<svg xmlns="http://www.w3.org/2000/svg" viewBox="0 0 657.41 420.5"><defs><style>.cls-1{fill:#ebebeb;}.cls-2{fill:#007bff;}.cls-3{fill:#fff;}.cls-16,.cls-4{fill:#263238;}.cls-5{fill:#ffc727;}.cls-6{fill:#eb9481;}.cls-7{fill:#a6a6a6;}.cls-8{fill:#c7c7c7;}.cls-9{fill:#455a64;}.cls-10{fill:#dbdbdb;}.cls-11{fill:#f7a9a0;}.cls-12{opacity:0.1;}.cls-13{fill:#ff9cbd;}.cls-14{fill:#ad6359;}.cls-15{fill:#37474f;}.cls-16{opacity:0.2;}.cls-17{fill:#d3766a;}.cls-18{fill:none;}</style></defs><g id="Background_Complete" data-name="Background Complete"><path class="cls-1" d="M17.77,235.14a3.1,3.1,0,0,1,3.24,0c.27.17.55.32.83.47s.57.3.86.44a3.08,3.08,0,0,1,1.81,2.67l.12,4,13-.41-.13-4a3.11,3.11,0,0,1,1.63-2.8,15.5,15.5,0,0,0,1.65-1,3.07,3.07,0,0,1,3.22-.21l3.5,1.88,6.14-11.44-3.5-1.88a3.07,3.07,0,0,1-1.61-2.8,17.69,17.69,0,0,0-.07-1.93,3.1,3.1,0,0,1,1.43-2.91l3.39-2.1-6.85-11L43,204.22a3.06,3.06,0,0,1-3.22,0l-.83-.47-.86-.43a3.12,3.12,0,0,1-1.81-2.68l-.12-4-13,.4.13,4a3.11,3.11,0,0,1-1.63,2.8,17.51,17.51,0,0,0-1.65,1,3.09,3.09,0,0,1-3.22.2l-3.51-1.87L7.19,214.59l3.5,1.88a3.08,3.08,0,0,1,1.61,2.8,17.88,17.88,0,0,0,.06,1.94,3.08,3.08,0,0,1-1.43,2.9l-3.38,2.1,6.84,11ZM21,214.65A10.63,10.63,0,1,1,25.38,229,10.65,10.65,0,0,1,21,214.65Z"/><path class="cls-1" d="M512.54,53.13a2.17,2.17,0,0,1,2-1.06l.67,0,.67,0a2.17,2.17,0,0,1,2,1l1.4,2.42L527.16,51l-1.39-2.42a2.16,2.16,0,0,1,.08-2.27c.24-.38.47-.77.68-1.17A2.14,2.14,0,0,1,528.45,44h2.78v-9.1h-2.78a2.15,2.15,0,0,1-1.92-1.2c-.21-.4-.44-.79-.68-1.17a2.14,2.14,0,0,1-.08-2.26l1.39-2.42-7.87-4.55-1.41,2.43a2.13,2.13,0,0,1-2,1.05h-1.33a2.16,2.16,0,0,1-2-1.06l-1.39-2.42-7.88,4.55,1.39,2.41a2.16,2.16,0,0,1-.08,2.27c-.24.37-.47.77-.68,1.17a2.15,2.15,0,0,1-1.92,1.2H499.2V44H502a2.14,2.14,0,0,1,1.92,1.19c.21.41.44.8.68,1.18a2.16,2.16,0,0,1,.08,2.27L503.27,51l7.88,4.54ZM507.76,39.4a7.45,7.45,0,1,1,7.46,7.45A7.46,7.46,0,0,1,507.76,39.4Z"/><path class="cls-1" d="M54.28,272.92a2.17,2.17,0,0,1,1.06,2c0,.22,0,.45,0,.67s0,.45,0,.68a2.17,2.17,0,0,1-1.06,2l-2.42,1.39,4.55,7.88,2.42-1.4a2.19,2.19,0,0,1,2.26.08,10.62,10.62,0,0,0,1.18.68,2.17,2.17,0,0,1,1.19,1.92v2.79h9.1v-2.79a2.16,2.16,0,0,1,1.19-1.92,10.48,10.48,0,0,0,1.17-.68,2.2,2.2,0,0,1,2.27-.08l2.42,1.4,4.54-7.88-2.43-1.4a2.17,2.17,0,0,1-1-2c0-.22,0-.44,0-.67s0-.45,0-.67a2.15,2.15,0,0,1,1.06-2l2.42-1.4-4.54-7.87-2.41,1.39a2.16,2.16,0,0,1-2.27-.08,12.47,12.47,0,0,0-1.18-.68,2.16,2.16,0,0,1-1.19-1.92v-2.78h-9.1v2.78a2.15,2.15,0,0,1-1.2,1.92c-.4.21-.79.43-1.17.68a2.16,2.16,0,0,1-2.27.08l-2.41-1.39-4.55,7.87ZM68,268.15a7.45,7.45,0,1,1-7.45,7.45A7.46,7.46,0,0,1,68,268.15Z"/><circle class="cls-1" cx="416.55" cy="358.09" r="24.5" transform="translate(-120.65 243.36) rotate(-28.63)"/><circle class="cls-1" cx="263.33" cy="57.75" r="24.5"/><circle class="cls-1" cx="166.55" cy="206.41" r="10.45" transform="translate(-63.25 338.82) rotate(-81.05)"/><circle class="cls-1" cx="578.72" cy="207.91" r="10.45"/><rect class="cls-1" x="229.09" y="151.5" width="2" height="115.51" transform="matrix(0.02, -1, 1, 0.02, 15.56, 434.43)"/><rect class="cls-1" x="371.63" y="198.51" width="2" height="171.67" transform="translate(-93.02 230.72) rotate(-30.78)"/><rect class="cls-1" x="295.93" y="58.06" width="2" height="130.34" transform="translate(-24.15 139.31) rotate(-25.41)"/><rect class="cls-1" x="356.18" y="206.92" width="222.54" height="2"/><circle class="cls-1" cx="184.03" cy="15.76" r="6.97"/><path class="cls-1" d="M165.83,31.21a7,7,0,1,1-7-7A7,7,0,0,1,165.83,31.21Z"/><path class="cls-1" d="M191,46.67a7,7,0,1,1-7-7A7,7,0,0,1,191,46.67Z"/><polygon class="cls-1" points="183.49 48.3 156.99 31.19 183.51 14.9 184.56 16.61 160.74 31.23 184.57 46.61 183.49 48.3"/></g><g id="Connectivity"><rect class="cls-2" x="211.27" y="96.34" width="4" height="122.01" transform="translate(-10.07 300.03) rotate(-68.99)"/><rect class="cls-2" x="210.77" y="254.11" width="72.25" height="4" transform="translate(-96.66 163.81) rotate(-31.01)"/><rect class="cls-2" x="413.89" y="225.63" width="4" height="77.27" transform="translate(-1.96 525.42) rotate(-64.44)"/><rect class="cls-2" x="385.53" y="146.02" width="121.52" height="4" transform="translate(-23.58 165.39) rotate(-20.47)"/><rect class="cls-2" x="342.15" y="109" width="71.01" height="4" transform="translate(82.75 371.71) rotate(-57.86)"/><circle class="cls-2" cx="328.71" cy="205.03" r="76.02"/><circle class="cls-2" cx="81.65" cy="104.66" r="70.51" transform="translate(-39.63 158.63) rotate(-76.03)"/><path class="cls-2" d="M81.65,186.31a81.65,81.65,0,1,1,81.65-81.65A81.74,81.74,0,0,1,81.65,186.31Zm0-159.3a77.65,77.65,0,1,0,77.65,77.65A77.73,77.73,0,0,0,81.65,27Z"/><path class="cls-2" d="M575.76,176.7a81.65,81.65,0,1,1,81.65-81.65A81.74,81.74,0,0,1,575.76,176.7Zm0-159.3a77.65,77.65,0,1,0,77.65,77.65A77.75,77.75,0,0,0,575.76,17.4Z"/><path class="cls-2" d="M518.4,404.14a81.65,81.65,0,1,1,81.65-81.65A81.74,81.74,0,0,1,518.4,404.14Zm0-159.3a77.65,77.65,0,1,0,77.65,77.65A77.74,77.74,0,0,0,518.4,244.84Z"/><path class="cls-2" d="M147.66,397.42a81.65,81.65,0,1,1,81.65-81.65A81.74,81.74,0,0,1,147.66,397.42Zm0-159.3a77.65,77.65,0,1,0,77.65,77.65A77.73,77.73,0,0,0,147.66,238.12Z"/><circle class="cls-2" cx="518.4" cy="322.49" r="70.51" transform="matrix(0.22, -0.97, 0.97, 0.22, 88.43, 755.92)"/><circle class="cls-2" cx="575.76" cy="95.05" r="70.51" transform="translate(101.42 434.97) rotate(-45)"/><circle class="cls-2" cx="575.76" cy="95.05" r="70.51" transform="translate(101.42 434.97) rotate(-45)"/><circle class="cls-2" cx="147.66" cy="315.77" r="70.51" transform="translate(-180.04 196.9) rotate(-45)"/><circle class="cls-2" cx="147.66" cy="315.77" r="70.51" transform="translate(-180.04 196.9) rotate(-45)"/><circle class="cls-2" cx="410.99" cy="59.08" r="33.93" transform="translate(260.37 446.02) rotate(-76.91)"/><circle class="cls-2" cx="410.99" cy="59.08" r="33.93" transform="translate(260.37 446.02) rotate(-76.91)"/><rect class="cls-2" x="326.71" y="270.51" width="4" height="80.23"/><circle class="cls-2" cx="328.71" cy="374.58" r="33.93"/><circle class="cls-2" cx="328.71" cy="374.58" r="33.93"/><g id="u5Zjqx"><path class="cls-3" d="M379.56,191.31,375,195.82l-2.57,2.59c-12.2-11.84-26.72-18.15-43.72-18.16s-31.52,6.29-43.81,18.2c-.81-.84-1.62-1.71-2.45-2.56-1.49-1.51-3-3-4.48-4.5a.64.64,0,0,0-.14-.08v-.11l.34-.27c1.91-1.7,3.77-3.46,5.74-5.08a70.74,70.74,0,0,1,30.87-14.38c2.91-.53,5.86-.81,8.79-1.17,1-.12,7.5-.14,7.7-.13,2,.15,4,.24,6,.45a68.33,68.33,0,0,1,16.14,3.86,69.57,69.57,0,0,1,10.92,5.11,68,68,0,0,1,10.43,7.3c1.63,1.39,3.19,2.87,4.79,4.31Z"/><path class="cls-3" d="M299.32,212.67l-7.17-7.12c8.17-8,17.83-13.12,29.19-14.65,17-2.3,31.54,2.86,43.9,14.55L358,212.62a40.86,40.86,0,0,0-29.34-12.13C317.25,200.5,307.5,204.75,299.32,212.67Z"/><path class="cls-3" d="M350.87,219.83,343.73,227a21.22,21.22,0,0,0-30.08,0l-7.12-7.12C317.88,208,338.3,207,350.87,219.83Z"/><path class="cls-3" d="M335.14,233.45a6.45,6.45,0,1,1-6.45-6.45A6.44,6.44,0,0,1,335.14,233.45Z"/></g><path class="cls-3" d="M389.32,63.44A5.57,5.57,0,0,0,394.49,69v0h31.62a6.56,6.56,0,0,0,.61-13.1,11.06,11.06,0,0,0-21.43-3.46,6.56,6.56,0,0,0-9.48,5.46,5.49,5.49,0,0,0-.91-.07A5.58,5.58,0,0,0,389.32,63.44Z"/><path class="cls-3" d="M329.09,357.7c-12,0-21.82,7.22-21.82,16.11a12.69,12.69,0,0,0,2.17,7l-2.93,6.55,7.53-1.92a26.22,26.22,0,0,0,15,4.46c12,0,21.81-7.22,21.81-16.12S341.13,357.7,329.09,357.7ZM319,376.07a2.26,2.26,0,1,1,2.26-2.26A2.26,2.26,0,0,1,319,376.07Zm10.12,0a2.26,2.26,0,1,1,2.26-2.26A2.25,2.25,0,0,1,329.09,376.07Zm10.11,0a2.26,2.26,0,1,1,2.26-2.26A2.27,2.27,0,0,1,339.2,376.07Z"/></g><g id="Character_4" data-name="Character 4"><path class="cls-4" d="M536.51,306.72a.64.64,0,0,1-.51.66l-2.57.17c-2.31-6-4.8-10.78-4.15-8.92a31,31,0,0,1,1.62,9.07c-1.14.07-3.77.19-5.09.26-2-10.58-4.57-18.42-4.41-16,.65,9.76.07,12.9-.61,16.25-12.26.58-28.36,1.16-40,1.33-1.34-5.85-2.52-12.17-2.73-11.73-1.58,3.31-2,8.1-2.05,11.79-3.7,0-6.67,0-8.47-.14,0,0-.87-4.91-1-6.53a33.8,33.8,0,0,1,1.29-12.32c1.23-4.1,3.36-7.72,5.38-11.43a.56.56,0,0,1,0-.08s0,0,0,0a34.62,34.62,0,0,0,3.09-7.63.08.08,0,0,0,0-.06,33.7,33.7,0,0,0,1-5.85c.53-7.22,4.6-13.47,11.38-15.38,12.81-12.08,25.65-7,29.53,2.24.38.9.74,1.93,1.09,3.06v0c1.32,4.18,2.49,9.59,3.58,13.77a0,0,0,0,0,0,0s0,0,0,0v0a41,41,0,0,0,1.53,4.83C527.74,281.7,535.14,286,536.51,306.72Z"/><path class="cls-4" d="M485.79,252.14c-4.46,2.32-7.18,5.72-7.87,11-.4,3.07-.61,6.07-1.78,9A31.93,31.93,0,0,1,471,280c-3.14,3.9-5.34,7.78-5.82,12.95s-.24,11.45,1.53,16.35c0,0,0,0,0,0-1.43-5-1.47-11.85-.59-17.06,1-5.71,4.2-9.31,7.51-13.66a23.92,23.92,0,0,0,4.87-11.68c.33-2.6.29-5.31,1.33-7.77,1.25-2.93,3.75-4.79,6.22-6.45A.31.31,0,0,0,485.79,252.14Z"/><path class="cls-4" d="M532,282.24c-3.14-4.09-6.41-7.58-8.26-12.66-1.67-4.62-2.63-9.51-4.34-14.13a.06.06,0,0,0-.12,0c2.64,8.2,3.15,16.48,8.45,23.38,2.88,3.74,5.76,7.22,7.67,11.71a40.25,40.25,0,0,1,3,14.84.13.13,0,1,0,.26,0A33.18,33.18,0,0,0,532,282.24Z"/><path class="cls-5" d="M448.41,390.86c0-.21.07-.4.11-.6,0,.25-.1.49-.13.74C448.4,391,448.4,390.9,448.41,390.86Z"/><path class="cls-5" d="M481.71,396.75a2.86,2.86,0,0,1-.35.18l-.05-.09h0l.36-.07Z"/><path class="cls-6" d="M495.49,308.11c-20.84,21.13-47.05,65.55-42.17,74.56,5.45,10,34.46-19.58,34.35-21.31-.09-1.3,10.12-28.29,17.86-47.92S500.64,302.89,495.49,308.11Z"/><path class="cls-7" d="M487.86,361.4c.89-2.89,14.78-38.47,18.75-49.73s.29-14.73-11.05-4.43-36.19,44.74-41.86,63c-5.47,17.6,3.6,17.6,15.56,9.49C479.05,373.1,487.86,361.4,487.86,361.4Z"/><path class="cls-3" d="M508.1,305.6c0,.2,0,.41-.07.63a.74.74,0,0,1-.6.32.71.71,0,0,1-.71-.71.72.72,0,0,1,.71-.72A.7.7,0,0,1,508.1,305.6Zm-23.63,14.89a.71.71,0,1,0,.71.71A.71.71,0,0,0,484.47,320.49Zm11.48,0a.71.71,0,1,0,.71.71A.71.71,0,0,0,496,320.49Zm-5.74-7.36a.72.72,0,1,0,.71.71A.71.71,0,0,0,490.21,313.13Zm11.48,0a.72.72,0,1,0,.71.71A.71.71,0,0,0,501.69,313.13ZM473,335.85a.72.72,0,1,0,.71.71A.71.71,0,0,0,473,335.85Zm11.49,0a.72.72,0,1,0,.71.71A.71.71,0,0,0,484.47,335.85Zm11.48,0a.72.72,0,1,0,.71.71A.71.71,0,0,0,496,335.85Zm-17.23-7.36a.72.72,0,1,0,.72.72A.71.71,0,0,0,478.72,328.49Zm11.49,0a.72.72,0,1,0,.71.72A.72.72,0,0,0,490.21,328.49ZM473,351.21a.72.72,0,1,0,.71.72A.71.71,0,0,0,473,351.21Zm11.49,0a.72.72,0,1,0,.71.72A.72.72,0,0,0,484.47,351.21Zm-17.23-7.35a.71.71,0,1,0,.71.71A.71.71,0,0,0,467.24,343.86Zm11.48,0a.71.71,0,1,0,0,1.42.71.71,0,1,0,0-1.42Zm11.49,0a.71.71,0,1,0,.71.71A.71.71,0,0,0,490.21,343.86ZM461.5,366.58a.71.71,0,1,0,.71.71A.71.71,0,0,0,461.5,366.58Zm11.48,0a.71.71,0,1,0,.71.71A.71.71,0,0,0,473,366.58Zm-5.74-7.36a.71.71,0,1,0,.71.71A.71.71,0,0,0,467.24,359.22Zm11.48,0a.71.71,0,1,0,.72.71A.71.71,0,0,0,478.72,359.22ZM461.5,381.94a.71.71,0,1,0,0,1.42.71.71,0,1,0,0-1.42Zm-5.74-7.36a.72.72,0,1,0,.71.71A.71.71,0,0,0,455.76,374.58Zm11.48,0a.72.72,0,1,0,.71.71A.71.71,0,0,0,467.24,374.58Z"/><path class="cls-8" d="M555,382.81a70.64,70.64,0,0,1-75.24-1.35l.16-.93,3-22.15s-7-12.29-2.95-21.11c2.07-4.46,20.16-32.27,27.78-37.79,7.15-5.18,17.52.37,21.38,4.44C542.73,318.29,549.77,345.66,555,382.81Z"/><path class="cls-4" d="M479.89,380.54c.38-3.71.77-7.41,1.21-11.11s.85-7.4,1.35-11.09l.09.32a24.78,24.78,0,0,1-4.09-10.18,24.17,24.17,0,0,1-.24-5.51,19.84,19.84,0,0,1,1.37-5.36,53,53,0,0,1,5.14-9.6,87.32,87.32,0,0,1,6.5-8.69c-2.13,2.92-4.11,5.94-6,9a62,62,0,0,0-4.82,9.6,19.26,19.26,0,0,0-1.25,5.12,25.28,25.28,0,0,0,.27,5.28,23.91,23.91,0,0,0,3.8,9.8l.11.16,0,.17c-.5,3.69-1.1,7.36-1.65,11.05S480.52,376.86,479.89,380.54Z"/><path class="cls-4" d="M485.18,328.06a6,6,0,0,1,.26-1.47,10.93,10.93,0,0,1,.5-1.39,12.57,12.57,0,0,1,.67-1.32,9.17,9.17,0,0,1,.82-1.24,23.35,23.35,0,0,1-1,2.76C486,326.29,485.59,327.16,485.18,328.06Z"/><path class="cls-4" d="M495.21,355.51a46.17,46.17,0,0,1,11.89,2c3.88,1.1,12.46,4.49,14.62,5.33a0,0,0,0,1,0,.09,74.07,74.07,0,0,1-8.26-2.49c-3.81-1.29-7.65-2.46-11.54-3.47a54.22,54.22,0,0,0-6.69-1.21A.12.12,0,0,1,495.21,355.51Z"/><path class="cls-4" d="M488.12,357.56a36.85,36.85,0,0,1,12.5,1.11c.05,0,0,.09,0,.09-2.07-.25-4.13-.49-6.21-.67s-4.18-.28-6.27-.42C488.05,357.67,488.05,357.57,488.12,357.56Z"/><path class="cls-6" d="M453.32,382.67c4.69,6.71,17.46,8,49.3,14.22,4.41.87,18.87-28.59,14.21-29.75-5.87-1.47-29-5.89-30.68-6C471.56,360.22,450.14,378.12,453.32,382.67Z"/><path class="cls-6" d="M510.46,365.68s13.49,2,20.25,5.31c9,4.37,15,11.87,17.38,15.16C553,393,560,413,554.55,416c-4.9,2.74-11-18.06-11-18.06s9.74,20.17,3.24,22.38S534.54,398,534.54,398s9.55,21,2.49,22.17c-5.34.92-11.79-21-11.79-21s8.08,18.06,2.64,19.25c-6,1.3-13.24-18.57-13.24-18.57-14.35.67-21.46-4.87-26.05-9.42C487.48,389.34,510.46,365.68,510.46,365.68Z"/><path class="cls-4" d="M540.61,390.79c1.23,2.33,2.49,4.67,3.51,7.1s2,4.9,2.74,7.41A45.66,45.66,0,0,1,549,415.38c-1-6.05-4.54-14.8-5.56-17.23s-1.91-4.9-2.93-7.33C540.49,390.76,540.58,390.73,540.61,390.79Z"/><path class="cls-4" d="M531.77,394.31c1.44,3,3,6,4.29,9.11s2.27,6.14,3.35,9.31c.09.24-.07.21-.17,0-1.21-3.12-2.57-5.92-3.82-9s-2.37-6.27-3.73-9.32C531.67,394.29,531.75,394.26,531.77,394.31Z"/><path class="cls-4" d="M523.64,396a75.92,75.92,0,0,1,5.5,14.44c.07.24-.13.18-.22-.07-1.74-4.83-3.06-8.64-5.44-14.28C523.44,396,523.59,395.87,523.64,396Z"/><path class="cls-7" d="M513.27,365.68l-27.9,31.07S457.16,390.27,453,383c-2.74-4.76,18.5-24.05,34.53-21.81Z"/><path class="cls-3" d="M473.69,367.29a.71.71,0,1,1-.71-.71A.71.71,0,0,1,473.69,367.29Zm10.78-.71a.71.71,0,1,0,.71.71A.71.71,0,0,0,484.47,366.58Zm11.48,0a.71.71,0,1,0,.71.71A.71.71,0,0,0,496,366.58Zm11.48,0a.71.71,0,1,0,.72.71A.71.71,0,0,0,507.43,366.58ZM461.5,381.94a.71.71,0,1,0,0,1.42.71.71,0,1,0,0-1.42Zm11.48,0a.71.71,0,1,0,.71.71A.71.71,0,0,0,473,381.94Zm11.49,0a.71.71,0,1,0,0,1.42.71.71,0,1,0,0-1.42Zm11.48,0a.71.71,0,1,0,.71.71A.71.71,0,0,0,496,381.94Zm-28.71-7.36a.72.72,0,1,0,.71.71A.71.71,0,0,0,467.24,374.58Zm11.48,0a.72.72,0,1,0,.72.71A.71.71,0,0,0,478.72,374.58Zm11.49,0a.72.72,0,1,0,.71.71A.71.71,0,0,0,490.21,374.58Zm11.48,0a.72.72,0,1,0,.71.71A.71.71,0,0,0,501.69,374.58Zm-34.45,15.36a.72.72,0,1,0,.71.72A.71.71,0,0,0,467.24,389.94Zm11.48,0a.72.72,0,1,0,.72.72A.71.71,0,0,0,478.72,389.94Zm11.49,0a.71.71,0,0,0,0,1.42l.7-.78h0A.7.7,0,0,0,490.21,389.94Z"/><path class="cls-4" d="M468.41,366.29a27.78,27.78,0,0,1,19.16-5.08c.08,0,.08.14,0,.14-7-.2-16.45,3.46-19.09,5C468.41,366.45,468.35,366.34,468.41,366.29Z"/><path class="cls-4" d="M477.74,391.55c2.89-3.58,6-7,9.05-10.42s6.16-6.84,9.33-10.18c1.79-1.88,3.57-3.78,5.43-5.61,0,0,.14,0,.09.08-2.88,3.58-5.94,7-9,10.44s-6.17,6.85-9.3,10.23c-1.77,1.9-3.57,3.78-5.42,5.6C477.83,391.78,477.66,391.65,477.74,391.55Z"/><path class="cls-4" d="M513.32,365.28a40,40,0,0,0-5.23-1.19q-2.64-.49-5.29-.91c-3.52-.57-10.91-2.16-17.4-2.15-.07,0,.29.35.37.35,3.09-.17,25.25,4.24,27.07,4.37-.07.12-.14.24-.2.37s.06.21.15.14.39-.34.61-.51A.27.27,0,0,0,513.32,365.28Z"/><path class="cls-7" d="M534.16,305.85c26.66,23.26,47.63,52,46.26,59.17-2.53,13.37-20.14,14.21-22.81,11.31-10.8-11.69-22.19-34.35-34.53-59.63C512.05,294.11,525.38,298.19,534.16,305.85Z"/><path class="cls-3" d="M529.3,305.12a.71.71,0,1,1-.71-.71A.71.71,0,0,1,529.3,305.12Zm-.71,14.65a.72.72,0,1,0,.71.72A.71.71,0,0,0,528.59,319.77Zm11.48,0a.72.72,0,1,0,.72.72A.71.71,0,0,0,540.07,319.77Zm-17.22-7.35a.71.71,0,1,0,.71.71A.71.71,0,0,0,522.85,312.42Zm11.48,0a.71.71,0,1,0,.71.71A.71.71,0,0,0,534.33,312.42Zm5.74,22.72a.71.71,0,1,0,.72.71A.71.71,0,0,0,540.07,335.14Zm11.49,0a.71.71,0,1,0,.71.71A.71.71,0,0,0,551.56,335.14Zm11.23,0a.71.71,0,1,0,.86,1Zm-28.46-7.4a.71.71,0,1,0,.71.71A.71.71,0,0,0,534.33,327.78Zm11.48,0a.71.71,0,1,0,.72.71A.71.71,0,0,0,545.81,327.78Zm10.89.34a.67.67,0,0,0-.11.37.71.71,0,0,0,.71.71.73.73,0,0,0,.3-.06Zm-16.36,22.43c.15.26.29.53.43.78a.49.49,0,0,0,0-.12A.7.7,0,0,0,540.34,350.55Zm11.22-.05a.72.72,0,1,0,.71.71A.71.71,0,0,0,551.56,350.5Zm11.48,0a.72.72,0,1,0,.71.71A.71.71,0,0,0,563,350.5Zm11.21.05h0a.72.72,0,0,0-.43.66.71.71,0,0,0,.71.71.76.76,0,0,0,.49-.18C574.77,351.35,574.51,351,574.25,350.55Zm-28.44-7.41a.72.72,0,1,0,.72.71A.71.71,0,0,0,545.81,343.14Zm11.49,0a.72.72,0,0,0,0,1.43.72.72,0,0,0,0-1.43Zm12.19.57s0,0,0,0h0l-.34-.44a.71.71,0,1,0-.36,1.33.72.72,0,0,0,.72-.71A.76.76,0,0,0,569.49,343.71Zm-17.93,22.15a.72.72,0,1,0,.71.72A.72.72,0,0,0,551.56,365.86Zm11.48,0a.72.72,0,1,0,.71.72A.71.71,0,0,0,563,365.86Zm11.48,0a.72.72,0,1,0,.72.72A.71.71,0,0,0,574.52,365.86Zm-28.71-7.36a.72.72,0,1,0,.72.72A.71.71,0,0,0,545.81,358.5Zm11.49,0a.72.72,0,1,0,.71.72A.71.71,0,0,0,557.3,358.5Zm11.48,0a.72.72,0,1,0,.72.72A.71.71,0,0,0,568.78,358.5ZM557.3,373.87a.71.71,0,1,0,.71.71A.71.71,0,0,0,557.3,373.87Zm11.48,0a.71.71,0,1,0,.72.71A.71.71,0,0,0,568.78,373.87Z"/><path class="cls-4" d="M553.21,371.11c-2-3-3.79-6.16-5.66-9.25s-3.72-6.2-5.53-9.32c-3.59-6.18-6.93-12.5-10.14-18.88-1.82-3.61-3.66-7.2-5.4-10.86-.05-.11-.24,0-.2.09q2.51,6.38,5.41,12.55a1.71,1.71,0,0,1-.11-.14c-.43-.58-.86-1.16-1.28-1.75-.84-1.16-1.62-2.35-2.37-3.57-.06-.1-.21,0-.15.1a40.85,40.85,0,0,0,2.92,4.77,21,21,0,0,0,1.66,2.1l.06.06c.88,1.83,1.78,3.66,2.73,5.46A214.54,214.54,0,0,0,546,361.22c1.12,1.7,2.24,3.4,3.41,5.06s2.43,3.27,3.63,4.92C553.13,371.28,553.27,371.2,553.21,371.11Z"/><path class="cls-6" d="M562,373.74c-5-7.25-2.49-21.67,3.06-56.26.77-4.78,37.1-5.16,36.55,0-.71,6.49-7.17,32.14-8.86,35.91C584.51,371.85,565.45,378.66,562,373.74Z"/><path class="cls-6" d="M602.8,303.12c-1.4-11-3.45-13.62.3-23.53,2.46-6.51-.64-10.87-6.05-6.07-8.85,7.85-10,22.43-9,27.6Z"/><path class="cls-4" d="M567.66,262.69,554.48,307c-.53,1.29.08,2.39,1.37,2.44l23.11,1a3.75,3.75,0,0,0,3.31-2.25l13.18-44.3c.53-1.3-.08-2.39-1.38-2.45l-23.1-1A3.74,3.74,0,0,0,567.66,262.69Z"/><path class="cls-9" d="M570.4,262.79l-13.17,44.3c-.54,1.29.08,2.39,1.37,2.44l23.11,1a3.72,3.72,0,0,0,3.3-2.24L598.19,264c.53-1.3-.08-2.39-1.37-2.44l-23.11-1A3.74,3.74,0,0,0,570.4,262.79Z"/><path class="cls-4" d="M576.65,265.1a2,2,0,1,1-1.83-2.09A2,2,0,0,1,576.65,265.1Z"/><path class="cls-6" d="M597.1,334.22s6.59-14.3,6.25-26.17c-.23-8.21-2.72-26-24.18-37.88-5.09-2.81-14.34-3.21-7.7,4.4,4.72,5.41,9.35,7.41,11.52,11.06,0,0-11.82.89-14.44,6.1a106.19,106.19,0,0,0-5.87,14.1,22.12,22.12,0,0,0,2.54,1.33s-2,5.1.94,12.88Z"/><path class="cls-6" d="M601.88,300.25c-2.92-3.16-9.23-9.76-16.26-13.37-7.81-4-23.94-9.61-26.84-3.81-2.12,4.25,3.85,6.93,3.85,6.93s-7.16-.91-8.24,3.35c-1,3.88,3.76,5.68,3.76,5.68s-4.43.19-4.66,4.12c-.27,4.71,9.07,3.53,12.92,8.55C567.28,312.83,601.88,300.25,601.88,300.25Z"/><path class="cls-4" d="M582.77,295.84c-3.24-2.52-12.06-6.37-20-5.94-.18,0-.27.15-.11.18a86,86,0,0,1,20.06,5.84S582.8,295.87,582.77,295.84Z"/><path class="cls-4" d="M578.5,303.61c-3-1.89-12.29-5.45-20.31-4.74-.18,0-.26.17-.09.19a92,92,0,0,1,20.36,4.63S578.53,303.64,578.5,303.61Z"/><path class="cls-7" d="M602.21,329.2l-42.13,11.95s-8.41,27.61-3.06,34.55c5.71,7.4,32.23-4.07,37.51-20.22Z"/><path class="cls-3" d="M586.72,335.85a.71.71,0,1,1-.71-.71A.71.71,0,0,1,586.72,335.85Zm10.77-.71a.71.71,0,1,0,.71.71A.71.71,0,0,0,597.49,335.14ZM563,350.5a.72.72,0,1,0,.71.71A.71.71,0,0,0,563,350.5Zm11.48,0a.72.72,0,1,0,.72.71A.71.71,0,0,0,574.52,350.5Zm11.49,0a.72.72,0,0,0,0,1.43.72.72,0,0,0,0-1.43Zm-17.23-7.36a.72.72,0,1,0,.72.71A.71.71,0,0,0,568.78,343.14Zm11.49,0a.72.72,0,1,0,.71.71A.71.71,0,0,0,580.27,343.14Zm11.48,0a.72.72,0,1,0,.71.71A.71.71,0,0,0,591.75,343.14ZM563,365.86a.72.72,0,1,0,.71.72A.71.71,0,0,0,563,365.86Zm11.48,0a.72.72,0,1,0,.72.72A.71.71,0,0,0,574.52,365.86Zm11.49,0a.72.72,0,1,0,.71.72A.71.71,0,0,0,586,365.86ZM557.3,358.5a.72.72,0,1,0,.71.72A.71.71,0,0,0,557.3,358.5Zm11.48,0a.72.72,0,1,0,.72.72A.71.71,0,0,0,568.78,358.5Zm11.49,0a.72.72,0,1,0,.71.72A.72.72,0,0,0,580.27,358.5Zm11.48,0a.72.72,0,1,0,.71.72A.71.71,0,0,0,591.75,358.5ZM557.3,373.87a.71.71,0,1,0,.71.71A.71.71,0,0,0,557.3,373.87Zm11.48,0a.71.71,0,1,0,.72.71A.71.71,0,0,0,568.78,373.87Z"/><path class="cls-4" d="M561.46,350.73c4.7-1.06,9.34-2.38,14-3.71s9.28-2.65,13.89-4.09c2.6-.82,5.21-1.62,7.79-2.53.06,0,0-.14,0-.12-4.7,1.06-9.35,2.36-14,3.65s-9.29,2.65-13.91,4c-2.61.79-5.21,1.62-7.79,2.53C561.28,350.54,561.32,350.76,561.46,350.73Z"/><path class="cls-4" d="M561.58,340.69c-.66.07-1.31.21-2,.33a.28.28,0,0,0-.2.21c-.72,2.45-1.24,5-1.75,7.48s-.94,5-1.35,7.43c-.22,1.34-.42,2.68-.57,4a14.48,14.48,0,0,0-1.46,5.21c0,.09.15.11.16,0a17.69,17.69,0,0,1,1.24-4.68,33.29,33.29,0,0,0,.26,9.86s0,0,0,0c-.83-4.87.4-9.94,1.2-14.73.4-2.4.85-4.79,1.32-7.17s1-4.75,1.46-7.14c.56-.21,1.12-.41,1.66-.67A.09.09,0,0,0,561.58,340.69Z"/><path class="cls-6" d="M518.6,297.9c-.22,1.39-6.1,10.74-12.37,10.91-2,.05-2.81-11.09-2.81-11.09l-.25-.81-3.42-11.33,12.9-9.67,1.87-1.29s.73,3.16,1.6,7.1c0,.19.08.37.12.57s.11.43.16.64c.13.58.27,1.19.4,1.79.09.45.19.9.27,1.38s.19,1,.28,1.44A74.6,74.6,0,0,1,518.6,297.9Z"/><path class="cls-4" d="M518.48,295.78c-8.71,1.56-13.75-.49-16.36-2.33l-2.36-7.87,12.89-9.67,1.86-1.29s.74,3.16,1.61,7.11c0,.17.08.36.12.56s.12.43.16.64c.14.59.27,1.18.4,1.79.09.45.19.9.27,1.38s.19,1,.28,1.44C517.91,290.61,518.3,293.76,518.48,295.78Z"/><path class="cls-6" d="M524.82,267c3.92,20.39-7.85,25-12.25,25.88-4,.77-17.69,2.86-23.7-17s2.24-28.15,11.28-30.38S520.9,246.61,524.82,267Z"/><path class="cls-4" d="M521,263.1a13.55,13.55,0,0,1-1.43-.1,2.27,2.27,0,0,1-1.44-.38.73.73,0,0,1-.12-.89,1.82,1.82,0,0,1,1.73-.67,2.67,2.67,0,0,1,1.8.71A.78.78,0,0,1,521,263.1Z"/><path class="cls-4" d="M506.38,264.32c.48-.12.9-.3,1.36-.46a2.34,2.34,0,0,0,1.29-.74.71.71,0,0,0-.11-.89,1.81,1.81,0,0,0-1.84-.21,2.67,2.67,0,0,0-1.56,1.15A.78.78,0,0,0,506.38,264.32Z"/><path class="cls-4" d="M510.79,270s-.1.09-.09.14c.25,1.4.29,3-.91,3.68,0,0,0,.09,0,.08C511.33,273.48,511.25,271.3,510.79,270Z"/><path class="cls-4" d="M509.33,268.74c-2.28.16-1.8,4.7.31,4.55S511.24,268.61,509.33,268.74Z"/><path class="cls-4" d="M508.46,269.08c-.37.29-.71.79-1.18.89s-1-.32-1.43-.74c0-.05-.07,0-.07.06.08.87.51,1.73,1.45,1.76s1.4-.81,1.52-1.7C508.78,269.18,508.61,269,508.46,269.08Z"/><path class="cls-4" d="M519,268.61c0-.06.12.05.13.11.11,1.41.48,3,1.81,3.32,0,0,0,.09,0,.08C519.32,272.08,518.85,270,519,268.61Z"/><path class="cls-4" d="M520.05,267c2.24-.43,2.93,4.08.86,4.48S518.17,267.36,520.05,267Z"/><path class="cls-4" d="M521,267.15c.39.18.81.56,1.24.52s.79-.58,1-1.1c0-.05.07,0,.08,0,.16.86,0,1.8-.79,2.09s-1.41-.38-1.74-1.21C520.79,267.33,520.88,267.07,521,267.15Z"/><path class="cls-4" d="M512.42,281c.35.31.72.75,1.23.76a3.63,3.63,0,0,0,1.5-.45,0,0,0,0,1,.06.07,1.87,1.87,0,0,1-1.74.87,1.49,1.49,0,0,1-1.19-1.18C512.26,281,512.36,280.91,512.42,281Z"/><path class="cls-4" d="M517.7,275.2s.53,2.06.65,3.05c0,.09-.23.17-.56.23h0a4.73,4.73,0,0,1-4.77-1.22.1.1,0,0,1,.13-.16,7.07,7.07,0,0,0,4.44.73c0-.28-1-3.5-.88-3.53a8.77,8.77,0,0,1,2.31.24c-1-4.33-2.67-8.46-3.59-12.79,0-.16.19-.23.25-.1,2.07,4.22,3.31,9.18,4.45,13.62C520.24,275.83,518.11,275.32,517.7,275.2Z"/><path class="cls-4" d="M489.71,276.05c5.12-.59,5.36-16.49,5.37-18.44.05,1.23.39,7.74.91,8a5.22,5.22,0,0,0,1.58-.43h0a15.1,15.1,0,0,1,0-2.33c0-.37.2.77.51,2.15l.92-.33a18.75,18.75,0,0,1,.1-5c.1-.63.48,2.12,1.26,4.49a62.17,62.17,0,0,1,13.25-3.44c1.28-.15,2.38-.22,3.37-.25-.15-1.92-.53-3.94-.36-3.52a18.47,18.47,0,0,1,1.09,3.5h1.47c-.09-2.72-1.72-6.94-1.23-6.31a19,19,0,0,1,3.14,6.46c1.88.21,2.42.53,2.43.05,0-.88-1.64-8.37-8-13.46-6.9-5.53-19.82-6-26.29,3.84,0,0-5.63,4.35-6.08,10.68S486.75,276.38,489.71,276.05Z"/><path class="cls-3" d="M508.45,277.84a6.4,6.4,0,1,1,5.95-8.16h0A6.41,6.41,0,0,1,510,277.6,6.1,6.1,0,0,1,508.45,277.84Zm-.37-11.93a5,5,0,0,0-1.36.22,5.51,5.51,0,1,0,1.36-.22Z"/><path class="cls-3" d="M523,275.6c-2.45.08-4.75-2.36-5.24-5.66a7.57,7.57,0,0,1,.68-4.62,4,4,0,0,1,6.74-1,7.66,7.66,0,0,1,2,4.22c.52,3.49-1.17,6.64-3.77,7A2.85,2.85,0,0,1,523,275.6Zm-1-11.87-.33,0a3.42,3.42,0,0,0-2.46,1.95,6.81,6.81,0,0,0-.59,4.1c.46,3,2.55,5.23,4.69,4.91s3.49-3,3-6.06a6.72,6.72,0,0,0-1.76-3.75A3.49,3.49,0,0,0,521.94,263.73Z"/><path class="cls-3" d="M514.29,270.44l-.64-.56c.84-.95,2.9-2.37,4.69-.95l-.53.67C516.21,268.33,514.37,270.36,514.29,270.44Z"/><path class="cls-3" d="M487.63,276.32l-.81-.27c.13-.38,1.32-3.71,3.16-4.3s11.93-1.22,12.42-1.24l.05.85c-3.3.18-10.88.78-12.21,1.21S488,275.41,487.63,276.32Z"/><path class="cls-6" d="M493.07,276.29s-5.17-6-7.93-4.07,1.6,10.91,5.17,11.83a3.51,3.51,0,0,0,4.48-2.36Z"/><path class="cls-4" d="M486.45,274.77a0,0,0,0,0,0,.09c2.51.73,4,2.83,5.14,5.06a1.93,1.93,0,0,0-2.94-.23c-.06.05,0,.14.08.12a2.16,2.16,0,0,1,2.44.5,10.21,10.21,0,0,1,1.33,1.8c.14.2.51.05.41-.19l0-.06C492.61,278.79,489.78,274.74,486.45,274.77Z"/><path class="cls-4" d="M488.78,249.26c-.08,1.53-7.3,5.18-12.48,1.29s-3-11.59,4.06-10.83C484.83,240.2,489,246.05,488.78,249.26Z"/><path class="cls-4" d="M473.68,243.69a9,9,0,0,1,3.94-4.39,5.41,5.41,0,0,1,5.38,0,10.87,10.87,0,0,1,4,4.23,16.62,16.62,0,0,1,1.24,2.75,8.18,8.18,0,0,1,.57,3,7.14,7.14,0,0,0,0-3.12,13.28,13.28,0,0,0-1-3,10.51,10.51,0,0,0-4.21-4.82,6.19,6.19,0,0,0-3.24-.8,6.27,6.27,0,0,0-3.14,1A7.89,7.89,0,0,0,473.68,243.69Z"/><path class="cls-6" d="M481.66,396.76l-.35.08h0Z"/><path class="cls-5" d="M448.52,390.26c0,.25-.1.49-.13.74,0-.05,0-.1,0-.14C448.44,390.65,448.48,390.46,448.52,390.26Z"/><path class="cls-5" d="M448.52,390.26c0,.25-.1.49-.13.74,0-.05,0-.1,0-.14C448.44,390.65,448.48,390.46,448.52,390.26Z"/><path class="cls-5" d="M483.24,400.37h0l-1.09.25Z"/><path class="cls-10" d="M448.52,390.26c0,.25-.1.49-.13.74,0-.05,0-.1,0-.14C448.44,390.65,448.48,390.46,448.52,390.26Z"/></g><g id="Character_3" data-name="Character 3"><path class="cls-11" d="M150.54,307.13c5.83,8.62,36.3,49.89,52.73,49.27,19.91-.75,44.23-8.7,54.35-15.56,5.67-3.85-14-31.37-19.49-28.56-8.72,4.44-29,10.85-32.5,11.62s-28.91-18.21-44.19-26.54C147.68,289.87,146.43,301.06,150.54,307.13Z"/><path class="cls-11" d="M256.64,341.15c3.76-1.58,23.6-11.3,27.68-14.76s15.07-14.27,12.74-17.66-5.81-.48-5.81-.48,3.92-5.3,1.27-8.5-7.92,1.51-7.92,1.51,3.63-5.74.75-8.74-7.37,2.61-7.37,2.61,3.57-5.09.15-6.56c-4.1-1.77-9.62,8.35-14.4,11.84-1.09.79-23.16,14.45-23.16,14.45Z"/><path class="cls-4" d="M278.37,294.66c-4.07,7.43-7.13,10-14.43,14-.14.08-.06.31.1.24,7.5-3.31,11.81-5.95,14.7-14.09C278.89,294.44,278.57,294.31,278.37,294.66Z"/><path class="cls-4" d="M284.91,300.66c-4.9,7.35-8.2,10.15-15.53,14.95-.11.07,0,.25.11.19,7.58-4.11,11.82-6.84,15.76-14.83C285.42,300.6,285.14,300.32,284.91,300.66Z"/><path class="cls-4" d="M290.87,308.48c-5.26,6.78-8.75,10-16.46,13.75a.16.16,0,0,0,.12.29c8.24-3.06,12.62-7,16.53-13.86C291.33,308.2,291.2,308.06,290.87,308.48Z"/><path class="cls-11" d="M232.54,317.49s3.79-9.93,6.42-13.92,17.89-15.26,20.51-12.11c3.39,4.08-4.14,12.33-8.36,15.88,0,0,7.84,9.43,3.72,16.51S232.54,317.49,232.54,317.49Z"/><path class="cls-4" d="M260,292.89c.41,5.95-5.43,10.26-9.26,14a.49.49,0,0,0,.1.8c3,4.17,6.07,10.93,4.28,16.07a.13.13,0,0,0,.23.1c2.67-5.25.21-12.13-3.39-16.49,4-3.79,9.65-8.37,8.1-14.5A0,0,0,0,0,260,292.89Z"/><path class="cls-5" d="M231.35,313.82,248.9,349s-38.47,14.9-53.45,6.52-38.13-37.12-42.95-43.68C142,297.48,150.23,290,162,297.28s40.87,25.19,42.74,25.69S231.35,313.82,231.35,313.82Z"/><path class="cls-12" d="M192.14,353.43c-14.86-10.26-35.16-35.5-39.63-41.6-9.58-13-3.65-20.43,6.33-16.19Z"/><path class="cls-9" d="M239.43,349.94c-2.24-3.87-4.26-7.86-6.28-11.85s-4-8-6-12c-1.09-2.29-2.18-4.57-3.19-6.9,0-.06.07-.12.11-.06,2.23,3.86,4.27,7.85,6.31,11.82s4,8,6,12q1.67,3.4,3.18,6.89C239.67,349.94,239.49,350.05,239.43,349.94Z"/><path class="cls-5" d="M185.31,375.4A70.54,70.54,0,0,1,104,371.15c3.85-20,13.32-54.24,32.94-76.77,5.48-6.29,20.41-4.45,22.15-1.92C170.82,309.47,181.21,353.85,185.31,375.4Z"/><polygon class="cls-7" points="169.33 389.98 212.43 400.09 234.88 341.01 191.79 330.9 169.33 389.98"/><polygon class="cls-8" points="171.45 390.47 214.54 400.58 237 341.5 193.9 331.39 171.45 390.47"/><path class="cls-3" d="M210.51,364.65a4.8,4.8,0,0,1-5.54,3.12,3.87,3.87,0,0,1-2.84-5.09,4.78,4.78,0,0,1,5.54-3.12A3.89,3.89,0,0,1,210.51,364.65Z"/><path class="cls-11" d="M129.2,302.46c-12.47,17.36-39.27,57-31.36,66.14,13,15,44.75,28.23,54.69,31.21,4.3,1.29,19.66-29.91,15.61-32.47-4.85-3.08-35.95-15.3-36.11-16.8-.16-1.66,5.66-23,7.57-39.84C142,289.8,134.4,295.22,129.2,302.46Z"/><path class="cls-11" d="M152.51,365.15s13.08-3.83,21.75-5.94c4.84-1.17,13.31-2.45,17.26-1.69,5.91,1.14,29.89,9.69,27.94,15.54-1.76,5.31-21.43-4.65-21.43-4.65s20.74,8.29,17.44,14.29-24-8.21-24-8.21,21.11,9,16.74,14.64c-3.31,4.27-22.81-7.54-22.81-7.54s18.1,7.86,14.88,12.39c-3.54,5-22.22-4.76-22.22-4.76-10.11,10.15-18.88,11.5-25.51,10.59C151,399.6,152.51,365.15,152.51,365.15Z"/><path class="cls-4" d="M192,365.51c15.74,4.94,22,12.18,21.74,12-4.81-3.76-13.28-7.84-15.67-8.94s-3.73-1.9-6.11-3A0,0,0,0,1,192,365.51Z"/><path class="cls-4" d="M186.91,373.62a56,56,0,0,1,18,8.41c.2.16.09.21-.15.09-3-1.48-14.85-7.09-17.9-8.43C186.82,373.67,186.86,373.61,186.91,373.62Z"/><path class="cls-4" d="M182,380.31a41.64,41.64,0,0,1,13.75,6.92c.21.15,0,.21-.2.09-4.53-2.38-8.07-4.29-13.61-6.85C181.9,380.43,181.94,380.27,182,380.31Z"/><path class="cls-5" d="M158.58,362.51l-17.51,37.34s-41.74-22.49-44.89-33.07,25.23-57,33.85-66.54,11.42-5.59,11.18,5.23-8.75,44.54-8.54,45.17S158.58,362.51,158.58,362.51Z"/><path class="cls-4" d="M135.77,334.71q.85-3.79,1.66-7.59c.28-1.32.55-2.64.85-3.95.13-.61.26-1.22.4-1.82.07-.3.17-.6.22-.91a4.91,4.91,0,0,1,.3-1.2c0-.06.13-.05.13,0-.08.7.07.42-.07.95a12,12,0,0,0-.2,1.2c-.09.61-.19,1.22-.29,1.84-.2,1.25-.43,2.5-.67,3.75l-.09.49a.74.74,0,0,1,0-.14c.46-1.35.94-2.7,1.42-4.05,0-.06.11,0,.1,0-.33,1.4-.69,2.77-1.15,4.14-.26.78-.56,1.55-.87,2.32-.33,1.66-.65,3.33-1,5-1.09,5.15-2.21,10.32-3.71,15.36,2.19,1,4.42,1.9,6.6,2.9s4.37,2,6.55,3.09,4.35,2.06,6.51,3.13c1,.51,2.05,1,3.07,1.56s2.17,1.26,3.29,1.8c.12.06,0,.23-.1.17-1.17-.54-2.42-.92-3.6-1.44L152,360c-2.2-1-4.39-2-6.57-3s-4.37-2-6.54-3.08-4.29-2.2-6.45-3.24a.22.22,0,0,1-.13-.17.25.25,0,0,1-.12-.28C133.3,345,134.62,339.87,135.77,334.71Z"/><path class="cls-4" d="M141.17,377.24c1.3-2.7,6.59-13.49,8.11-16.06a0,0,0,0,1,.09,0c-1,2.74-5.88,13.54-7.18,16.25a162.37,162.37,0,0,1-8.27,16c0,.09-.22,0-.18-.08C135.85,387.84,138.6,382.57,141.17,377.24Z"/><path class="cls-4" d="M111,381.38c1,.55,1.86,1.23,2.76,1.85l2.83,2c1.85,1.29,3.71,2.62,5.67,3.72.12.06,0,.23-.1.17-2-1.15-4-2.2-6-3.46a29.79,29.79,0,0,1-5.31-4.11C110.86,381.44,111,381.34,111,381.38Z"/><path class="cls-11" d="M157.24,306c-4.59,1.66-13.52-4.64-17.39-10.13-.26-.38-.13-4.68-.21-9.91-.07-3.17-.21-6.71-.57-9.92l20.71,2.61a51.48,51.48,0,0,0-.55,12.56,8,8,0,0,0,.29,1.3c0,.06,0,.14.06.22C160.27,295.19,161.69,304.4,157.24,306Z"/><path class="cls-4" d="M159.23,291.21a9,9,0,0,0,.24,1.13c-10.15-.57-16.39-5.33-19.92-9.41-.08-2.29-.23-4.67-.48-6.89l20.71,2.61A51.48,51.48,0,0,0,159.23,291.21Z"/><path class="cls-11" d="M132.08,253.9c-.9,7.46,6.48,27.26,12.33,30.93,8.48,5.31,20.55,3.82,24.6-6,3.94-9.47-6.13-35.1-12.5-38.25C147.14,236,133.42,242.87,132.08,253.9Z"/><path class="cls-4" d="M153.06,262.19s-.08.1-.06.16c.53,1.32.92,2.92-.13,3.81,0,0,0,.09,0,.07C154.31,265.48,153.78,263.36,153.06,262.19Z"/><path class="cls-4" d="M151.35,261.24c-2.2.62-.79,5,1.26,4.41S153.21,260.71,151.35,261.24Z"/><path class="cls-4" d="M161.2,259.29c0-.05.13,0,.15.09.39,1.36,1.07,2.86,2.44,2.92.05,0,.06.07,0,.08C162.24,262.65,161.36,260.65,161.2,259.29Z"/><path class="cls-4" d="M162,257.49c2.12-.87,3.7,3.44,1.73,4.24S160.17,258.21,162,257.49Z"/><path class="cls-4" d="M149,259.79a15.18,15.18,0,0,0,1.5-1.14,3,3,0,0,0,1.31-1.46,1,1,0,0,0-.51-1.07,2.43,2.43,0,0,0-2.39.51,3.56,3.56,0,0,0-1.47,2.09A1,1,0,0,0,149,259.79Z"/><path class="cls-4" d="M162.93,254.74a16.79,16.79,0,0,1-1.88.11,3.08,3.08,0,0,1-1.94-.25,1,1,0,0,1-.31-1.15,2.41,2.41,0,0,1,2.14-1.17,3.55,3.55,0,0,1,2.47.63A1,1,0,0,1,162.93,254.74Z"/><path class="cls-4" d="M156.21,274.86a2.16,2.16,0,0,0,1.4.42,3.71,3.71,0,0,0,1.34-.81s.1,0,.08,0a1.88,1.88,0,0,1-1.48,1.29,1.51,1.51,0,0,1-1.45-.85C156.05,274.89,156.15,274.83,156.21,274.86Z"/><path class="cls-4" d="M156.32,270.34a4.83,4.83,0,0,0,3.74,1.06,6.23,6.23,0,0,0,1.69-.46l.3-.14.28-.14a.36.36,0,0,0,.18-.39h0a.78.78,0,0,0-.05-.14h0l0-.11c-.31-1.06-.92-2.61-.92-2.61.44.07,2.67.31,2.46-.22-1.73-4.42-3.65-9.34-6.3-13.37a.13.13,0,0,0-.24.11c1.49,4.32,3.74,8.34,5.3,12.65a8.59,8.59,0,0,0-2.39,0c-.13.09,1.24,3,1.34,3.47a.12.12,0,0,1,0,.05c-1.68.79-3.17.69-5.25.06C156.28,270.14,156.21,270.26,156.32,270.34Z"/><path class="cls-4" d="M161,270.79a5.79,5.79,0,0,1-1.74,2.33,2.64,2.64,0,0,1-1.49.51c-1.18,0-1.48-1-1.52-1.9a6.29,6.29,0,0,1,.13-1.46A7.46,7.46,0,0,0,161,270.79Z"/><path class="cls-13" d="M159.24,273.12a2.64,2.64,0,0,1-1.49.51c-1.18,0-1.48-1-1.52-1.9A2.67,2.67,0,0,1,159.24,273.12Z"/><path class="cls-4" d="M139.06,269.45c3.43-1.22.63-9.64.63-9.64s5.05-2.5,5.54-10.55c0,0,8.09,2.32,13.53-.38,8.53-4.24,4.91-15.86.85-17.27-5.75-2-12.83,5.37-12.83,5.37s-13.91.14-15.22,10a6.87,6.87,0,0,0-4.23,8.36C128.76,261.75,136.51,270.36,139.06,269.45Z"/><path class="cls-4" d="M138.73,261.17a12.28,12.28,0,0,0,5.66-5.62,9.24,9.24,0,0,0-.22-8.47c-.09-.13.14-.25.21-.11,1.5,2.79,2.21,5.89,1,8.95a8.59,8.59,0,0,1-6.59,5.5C138.68,261.44,138.59,261.24,138.73,261.17Z"/><path class="cls-4" d="M125.79,251.71c1.13-2.76,3.73-3.89,6.43-4.57a.12.12,0,0,1,.06.24c-2.72.46-4.86,3-5.61,5.53s.34,5.08,1.55,7.25a19.49,19.49,0,0,0,10.68,9,.06.06,0,0,1,0,.12,19.46,19.46,0,0,1-11.9-9.77C125.8,257.17,124.76,254.25,125.79,251.71Z"/><path class="cls-4" d="M146.55,237.51a9.13,9.13,0,0,1,3.85-5.22,11,11,0,0,1,7.68-1.4,6.2,6.2,0,0,1,4.58,4.16,10.85,10.85,0,0,1-.44,7.32.05.05,0,1,1-.1,0,10.88,10.88,0,0,0,.1-6.56,5.68,5.68,0,0,0-4.62-3.91c-4.16-.57-9.49,1.26-10.82,5.71A.12.12,0,0,1,146.55,237.51Z"/><path class="cls-11" d="M139.42,269.8s-5.92-5.68-8.58-3.44,2.7,11.1,6.47,11.71a3.64,3.64,0,0,0,4.4-2.87Z"/><path class="cls-4" d="M132.44,268.86a.05.05,0,0,0,0,.1c2.66.51,4.41,2.53,5.79,4.72a2,2,0,0,0-3.06.05c-.06,0,0,.14.09.11a2.25,2.25,0,0,1,2.57.29,10.65,10.65,0,0,1,1.55,1.73c.16.19.53,0,.4-.24l0-.05C139.18,272.42,135.87,268.51,132.44,268.86Z"/><path class="cls-3" d="M159.52,292.29l-4.41,12.19-15.42-14.55-4,5s15.43,23.46,15.48,22.38l4.53-10.49,7.38,6.89-1.26-18Z"/><path class="cls-4" d="M162.94,304.81c-.31-3-.53-5.95-1-8.89,0-.1-.18-.14-.2,0-.48,2.89.75,14.2.84,16.92l0,0c-.31-.3-6.83-6.06-6.89-6-1,1.68-4.33,9.31-4.55,10-2.44-3.72-11.77-17.26-14.63-20.76a.1.1,0,0,0-.17.11c2.18,3.95,14.54,22.18,14.72,22.12a117,117,0,0,0,4.73-11.08c1.11,1.27,7.72,7.79,7.73,7.35A93.45,93.45,0,0,0,162.94,304.81Z"/></g><g id="Character_2" data-name="Character 2"><path class="cls-14" d="M568.56,71.91c-3.4,9.84-17.4,58.31-26.74,61-15.22,4.43-26.83,3-39,3.3-6.85.17-17.48-32.75-11.28-32.93,9.88-.27,32.32,1.46,35.9,1.29S544.43,76.83,557,64.83C568.37,54,571,65,568.56,71.91Z"/><path class="cls-14" d="M506.8,135.36c-.56.22-8.47,3.23-13.26,4.1-3.57.64-13.91,2.24-15-1.63-.75-2.63,5.22-4.28,9.41-5.55,2.21-.66,5.05-2.61,4.57-4-.85-2.49-6.55-.66-10.35,1.06-7.36,3.31-17.34,9.62-21.22,5.66-1.46-1.49.65-3.73,3.61-5.82-4.7,2.31-9.64,4.1-11.33,2.5-1-.91-.91-2-.19-3.21a3.13,3.13,0,0,1-3.36-.88c-1.28-1.65-.35-3.8,1.45-5.91a1.7,1.7,0,0,1-1.21-1c-2.56-4.94,14-16.68,19.41-17.39,15.85-2.08,32.09.28,32.09.28C507,109,506.81,135.35,506.8,135.36Z"/><path class="cls-4" d="M485.51,118.77a26.51,26.51,0,0,0-10.74,2.91c-4.19,2.19-7.1,4.95-10.71,7.67-.09.07,0,.22.11.15,1.72-1.29,8.78-6.08,10.59-7.15a25.19,25.19,0,0,1,10.75-3.51A0,0,0,0,0,485.51,118.77Z"/><path class="cls-4" d="M483.3,111.91a63,63,0,0,0-12.44,2.92c-4.35,1.68-7.94,4.78-11.46,7.76q-3.16,2.68-6.21,5.5c-.09.08,0,.23.1.15q5.37-4.62,11-8.91A33.2,33.2,0,0,1,476,113.55c2.42-.65,4.89-1.11,7.35-1.57C483.35,112,483.35,111.9,483.3,111.91Z"/><path class="cls-4" d="M479.54,105.72c-4,.4-7.55.74-11.27,2.5-4.92,2.33-9.88,6.59-11.62,8.1-1.92,1.68-3.79,3.41-5.63,5.17-.08.07.05.21.12.14a131.23,131.23,0,0,1,13.29-10.7,26.19,26.19,0,0,1,7.19-3.69,46.39,46.39,0,0,1,7.93-1.49S479.56,105.72,479.54,105.72Z"/><path class="cls-5" d="M528.76,98.26,553.28,128s14.18-39.15,17.06-56.48c3-18.07-3-23.46-18.28-4.64A379.11,379.11,0,0,0,528.76,98.26Z"/><path class="cls-3" d="M551.94,69.92a1.87,1.87,0,0,1-.83-.29,1.62,1.62,0,0,1-.64-.83c-.19.23-.38.46-.55.69a1.91,1.91,0,0,0,.9.72,2,2,0,0,0,1.12.12c.35-.08.68-.12,1-.21A8.2,8.2,0,0,0,551.94,69.92Zm-5.77,46.57a2,2,0,0,1-.83-.27,1.56,1.56,0,0,1-.72-1.36,2.09,2.09,0,0,0-1.34-1.9,1.82,1.82,0,0,0-1.12-.08c-.35.08-.68.12-1,.2a7.53,7.53,0,0,0,1,.21,2,2,0,0,1,.85.25,1.58,1.58,0,0,1,.76,1.32,2.12,2.12,0,0,0,1.28,1.94,2,2,0,0,0,1.12.1,9.35,9.35,0,0,0,1-.2C546.85,116.61,546.52,116.57,546.17,116.49Zm23-50.32a2,2,0,0,0-.13,1.13c.08.33.13.66.21,1,.1-.35.14-.68.21-1a1.78,1.78,0,0,1,.28-.84,1.59,1.59,0,0,1,1.25-.73c0-.29,0-.57.05-.84A2.09,2.09,0,0,0,569.2,66.17ZM548.41,91a8.21,8.21,0,0,0-.21-1c-.08.33-.12.66-.21,1a2.12,2.12,0,0,1-.24.85,1.55,1.55,0,0,1-1.32.76,2.12,2.12,0,0,0-1.94,1.28,2.08,2.08,0,0,0-.11,1.12,9.4,9.4,0,0,0,.21,1,9.35,9.35,0,0,0,.2-1,2,2,0,0,1,.29-.83,1.55,1.55,0,0,1,1.37-.72,2.13,2.13,0,0,0,1.9-1.34A2.16,2.16,0,0,0,548.41,91Zm10.13-11.63a1.83,1.83,0,0,1-.79.39,1.52,1.52,0,0,1-1.46-.45,2.1,2.1,0,0,0-2.29-.39,2,2,0,0,0-.85.74c-.19.29-.41.56-.58.87.31-.19.58-.39.87-.58a1.69,1.69,0,0,1,.78-.41,1.54,1.54,0,0,1,1.49.37,2,2,0,0,0,3.14-.25c.19-.29.39-.56.56-.87C559.1,79,558.83,79.19,558.54,79.37Zm1.86,23.84a2.1,2.1,0,0,0-2.29-.39,2,2,0,0,0-.85.74c-.18.29-.41.56-.58.87.31-.19.58-.4.87-.58a1.69,1.69,0,0,1,.78-.41,1.54,1.54,0,0,1,1.49.37,2,2,0,0,0,1.49.63l.24-.75A1.48,1.48,0,0,1,560.4,103.21Zm-28.14-2.78a1.6,1.6,0,0,1-.78.39,1.52,1.52,0,0,1-.6,0l.57.69.23-.08a2.05,2.05,0,0,0,.89-.72c.19-.29.39-.56.56-.87C532.82,100,532.55,100.24,532.26,100.43Z"/><path class="cls-4" d="M554,119.13c-.53-.81-1.19-1.55-1.8-2.31l-1.87-2.34c-1.26-1.58-2.55-3.14-3.85-4.7-2.6-3.1-5.18-6.22-7.82-9.28-.73-.84-1.46-1.68-2.21-2.51s-1.64-1.67-2.42-2.53a.05.05,0,1,0-.08.07c.61.79,1.17,1.63,1.79,2.43s1.27,1.61,1.92,2.41c1.29,1.56,2.58,3.12,3.89,4.66,2.58,3,5.14,6.09,7.78,9.07.74.84,1.49,1.66,2.22,2.5s1.52,1.8,2.36,2.6C554,119.24,554.05,119.18,554,119.13Z"/><path class="cls-12" d="M570.34,71.46C567.46,88.8,553.28,128,553.28,128l-15.43-18.69L567,55.08C570.9,55.32,572,61.45,570.34,71.46Z"/><path class="cls-5" d="M618.48,151.15a70.47,70.47,0,0,1-82.68,2c5.11-26.45,17.7-83.26,24.49-92.11,1.86-2.43,8-3.11,13.27-2.46a24,24,0,0,1,4,.83l.14,0a10,10,0,0,1,3,1.45C591.61,69.59,610.13,124,618.48,151.15Z"/><path class="cls-3" d="M612.71,151.16a2,2,0,0,1-.78.39,1.63,1.63,0,0,1-1.49-.45,2.06,2.06,0,0,0-2.27-.39,1.89,1.89,0,0,0-.85.74,10.11,10.11,0,0,0-.58.87c.31-.19.58-.39.87-.58a1.93,1.93,0,0,1,.79-.43,1.54,1.54,0,0,1,1.46.39,2.11,2.11,0,0,0,2.27.47,2,2,0,0,0,.87-.72c.19-.29.41-.56.58-.87C613.27,150.77,613,151,612.71,151.16Zm-43.15,10.68a1.9,1.9,0,0,1-.81.39,1.6,1.6,0,0,1-1.46-.45,2,2,0,0,0-2.3-.4,2.12,2.12,0,0,0-.84.75c-.19.27-.39.53-.58.84a8.13,8.13,0,0,0,.87-.57,2.73,2.73,0,0,1,.78-.42,1.6,1.6,0,0,1,1.49.4,2,2,0,0,0,3.14-.25c.18-.29.39-.56.55-.87C570.11,161.43,569.85,161.63,569.56,161.84Zm15.32-24.73a1.9,1.9,0,0,1-.81.39,1.6,1.6,0,0,1-1.46-.45,2,2,0,0,0-2.3-.4,2.12,2.12,0,0,0-.84.75c-.19.27-.39.53-.58.84a8.13,8.13,0,0,0,.87-.57,2.73,2.73,0,0,1,.78-.42,1.6,1.6,0,0,1,1.49.4,2,2,0,0,0,3.14-.25c.18-.29.39-.56.55-.87C585.43,136.7,585.17,136.9,584.88,137.11Zm-40.77,2.68a1.54,1.54,0,0,1-.79.39,1.58,1.58,0,0,1-1.48-.43,2,2,0,0,0-2.27-.42,2.25,2.25,0,0,0-.85.75q-.22.3-.42.6a1.16,1.16,0,0,1,0,.18,8.75,8.75,0,0,0,.75-.49,1.82,1.82,0,0,1,.78-.42,1.55,1.55,0,0,1,1.47.4,2.12,2.12,0,0,0,2.27.47,2,2,0,0,0,.87-.72c.18-.29.41-.56.58-.87C544.67,139.4,544.4,139.6,544.11,139.79Zm18.54-36.52a1.63,1.63,0,0,1-.79.39,1.52,1.52,0,0,1-1.46-.45,2.1,2.1,0,0,0-2.29-.39,2,2,0,0,0-.85.74c-.18.29-.41.56-.58.87.31-.19.58-.4.87-.58a1.69,1.69,0,0,1,.78-.41,1.54,1.54,0,0,1,1.49.37,2,2,0,0,0,3.14-.25c.18-.29.39-.56.56-.87C563.21,102.88,562.94,103.08,562.65,103.27Zm-4.11-23.9a1.83,1.83,0,0,1-.79.39,1.52,1.52,0,0,1-1.46-.45,2.1,2.1,0,0,0-2.29-.39,2,2,0,0,0-.85.74l-.23.33c0,.12-.07.25-.11.38l.63-.42a1.69,1.69,0,0,1,.78-.41,1.54,1.54,0,0,1,1.49.37,2,2,0,0,0,3.14-.25c.19-.29.39-.56.56-.87C559.1,79,558.83,79.19,558.54,79.37Zm31.48-.9a1.85,1.85,0,0,1-.78.39,1.53,1.53,0,0,1-1.47-.45,2.1,2.1,0,0,0-2.29-.39,2,2,0,0,0-.85.74c-.18.29-.41.56-.58.87.31-.19.58-.39.87-.58a1.68,1.68,0,0,1,.79-.41,1.53,1.53,0,0,1,1.48.37,2,2,0,0,0,3.14-.25c.19-.29.39-.56.56-.87C590.58,78.08,590.31,78.29,590,78.47Zm-41.08,79.42c-.08-.35-.12-.68-.21-1a8.2,8.2,0,0,0-.2,1,1.86,1.86,0,0,1-.27.85,1.5,1.5,0,0,1-1.16.75c.35.16.7.32,1,.46a2.05,2.05,0,0,0,.71-.94A2.17,2.17,0,0,0,548.94,157.89Zm43.37-60.24c-.08-.33-.12-.66-.2-1a7.91,7.91,0,0,0-.21,1,1.94,1.94,0,0,1-.27.87,1.54,1.54,0,0,1-1.32.77,2,2,0,0,0-1.92,1.28,1.66,1.66,0,0,0-.1,1.11c.06.35.1.68.18,1a6.7,6.7,0,0,0,.21-1,2,2,0,0,1,.29-.83,1.54,1.54,0,0,1,1.36-.72,2.09,2.09,0,0,0,1.9-1.34A2.49,2.49,0,0,0,592.31,97.65Zm-30.2,25.11a8.2,8.2,0,0,0-.2-1c-.09.33-.13.66-.21,1a2,2,0,0,1-.25.85,1.53,1.53,0,0,1-1.32.76,2.14,2.14,0,0,0-1.94,1.28,2,2,0,0,0-.1,1.11,10,10,0,0,0,.2,1,8,8,0,0,0,.21-1,1.72,1.72,0,0,1,.29-.82,1.5,1.5,0,0,1,1.36-.72,2,2,0,0,0,2-2.46Zm11-59.48c-.06-.36-.11-.69-.19-1a8,8,0,0,0-.2,1,2.25,2.25,0,0,1-.27.84,1.53,1.53,0,0,1-1.32.77,2.08,2.08,0,0,0-1.92,1.28,2,2,0,0,0-.13,1.13c.08.33.13.66.21,1,.1-.35.14-.68.21-1a1.78,1.78,0,0,1,.28-.84,1.59,1.59,0,0,1,1.37-.73,2.08,2.08,0,0,0,1.9-1.34A2.12,2.12,0,0,0,573.1,63.28Zm31.48,51.57a2.43,2.43,0,0,1-.79.44,1.61,1.61,0,0,1-1.49-.4,2.09,2.09,0,0,0-2.25-.47,1.87,1.87,0,0,0-.88.72c-.19.29-.4.56-.58.87.31-.19.58-.39.87-.58a1.85,1.85,0,0,1,.78-.39,1.66,1.66,0,0,1,1.49.45,2.09,2.09,0,0,0,2.29.4,2.22,2.22,0,0,0,.85-.75c.18-.29.39-.56.55-.86C605.13,114.46,604.87,114.67,604.58,114.85Zm4.17,21.29a1.9,1.9,0,0,1-.83-.29,1.55,1.55,0,0,1-.72-1.37,2.11,2.11,0,0,0-1.34-1.9,2.24,2.24,0,0,0-1.14-.06c-.33.06-.66.11-1,.19a10,10,0,0,0,1,.2,2.29,2.29,0,0,1,.87.27,1.57,1.57,0,0,1,.76,1.32,2.07,2.07,0,0,0,1.26,1.92,2,2,0,0,0,1.14.13c.35-.08.68-.13,1-.21A8.2,8.2,0,0,0,608.75,136.14Zm-62.58-19.65a2,2,0,0,1-.83-.27,1.56,1.56,0,0,1-.72-1.36,2.17,2.17,0,0,0-.38-1.16c-.14.57-.27,1.13-.4,1.7a2.1,2.1,0,0,0,1.21,1.4,2,2,0,0,0,1.12.1,9.35,9.35,0,0,0,1-.2C546.85,116.61,546.52,116.57,546.17,116.49Zm34.5,2.06a2.14,2.14,0,0,1-.83-.27,1.57,1.57,0,0,1-.72-1.36,2.09,2.09,0,0,0-1.34-1.9,1.82,1.82,0,0,0-1.12-.08c-.35.08-.68.12-1,.2a7.53,7.53,0,0,0,1,.21,1.93,1.93,0,0,1,.85.25,1.56,1.56,0,0,1,.76,1.32,2.12,2.12,0,0,0,1.28,1.94,2,2,0,0,0,1.12.1,7.53,7.53,0,0,0,1-.21C581.35,118.67,581,118.63,580.67,118.55Zm-16.74,27.58a2.3,2.3,0,0,1-.85-.29,1.6,1.6,0,0,1-.72-1.37,2.05,2.05,0,0,0-1.34-1.89,2.08,2.08,0,0,0-1.12-.09c-.35.09-.68.13-1,.21.33.1.66.14,1,.21a1.85,1.85,0,0,1,.85.26,1.59,1.59,0,0,1,.78,1.33,2,2,0,0,0,2.4,2,7.91,7.91,0,0,0,1-.21C564.59,146.23,564.26,146.19,563.93,146.13Zm25,10.55a2,2,0,0,1-.85-.29,1.58,1.58,0,0,1-.72-1.37,2.07,2.07,0,0,0-1.35-1.9,2.12,2.12,0,0,0-1.11-.06c-.33.06-.68.11-1,.19a9,9,0,0,0,1,.2,2.3,2.3,0,0,1,.85.27,1.59,1.59,0,0,1,.78,1.32,2,2,0,0,0,1.26,1.92,2,2,0,0,0,1.14.13c.33-.08.66-.13,1-.21A10,10,0,0,0,588.89,156.68Zm-15-65.21a2,2,0,0,1-.83-.29,1.55,1.55,0,0,1-.72-1.37,2.13,2.13,0,0,0-1.34-1.9,2.17,2.17,0,0,0-1.12-.06,9.4,9.4,0,0,0-1,.21c.35.08.68.12,1,.19a2.13,2.13,0,0,1,.85.26,1.6,1.6,0,0,1,.76,1.33,2.09,2.09,0,0,0,1.28,1.92,2,2,0,0,0,1.12.12c.35-.08.68-.12,1-.21A8.2,8.2,0,0,0,573.92,91.47Z"/><path class="cls-14" d="M593.4,72c19.28,31.29,36.83,66,30.41,74.9-5.18,7.15-52.16,26.34-67.82,27.54-5,.38-17.31-36.24-9.07-39.2,2.34-.84,40.53-8.14,40.76-9,.74-2.83-4.4-21.93-9.13-43.69C572.46,54.54,585.24,58.79,593.4,72Z"/><path class="cls-14" d="M528.3,141.73c2.33-.84,3.71-2.69-.47-4.07s-21.89-3.34-20.69-9.46,25.78-1.88,32.93-.17a28.62,28.62,0,0,1,17.37,12.31C546,141,537.29,141.56,528.3,141.73Z"/><path class="cls-4" d="M515.05,125a60.23,60.23,0,0,1,7.11-.14c2.37.07,4.74.29,7.09.59A55.84,55.84,0,0,1,543,128.91c-1.17-.22-2.3-.55-3.47-.74s-2.3-.48-3.46-.68c-2.32-.39-4.64-.78-7-1.06s-4.67-.57-7-.81c-1.17-.13-2.35-.23-3.52-.33S516.23,125.1,515.05,125Z"/><rect class="cls-15" x="517.35" y="97.83" width="3.64" height="81.33" transform="translate(379.41 657.33) rotate(-89.86)"/><polygon class="cls-4" points="478.51 136.57 478.5 140.22 533.79 140.35 531.01 136.7 478.51 136.57"/><polygon class="cls-15" points="527.49 140.34 448.22 140.14 441.76 86.29 521.02 86.48 527.49 140.34"/><path class="cls-3" d="M489.45,113.32a4.73,4.73,0,0,1-4.75,4.82,4.93,4.93,0,0,1-4.9-4.84,4.72,4.72,0,0,1,4.75-4.81A4.92,4.92,0,0,1,489.45,113.32Z"/><path class="cls-14" d="M555.9,174.46c-14,.79-34.06-1.27-47.12-10.3a7.83,7.83,0,0,1-3.14-4.07c-5.93-4-5.84-7.93-5.84-7.93-4.4-5.36-3.75-9.42-3.75-9.42s-6.9-4.7-4.75-9.35c2.39-5.21,11.62,2.42,19.26,3.51,17.5,2.5,43.42,3.7,48.54,3.92Z"/><path class="cls-4" d="M527,152.38a114,114,0,0,1-15.2-3.06c-5.48-1.68-10.48-4.21-15.62-6.67a.14.14,0,0,0-.14.24c8.62,5.92,20.5,9.46,30.92,9.72C527.26,152.62,527.3,152.42,527,152.38Z"/><path class="cls-4" d="M527.06,163.16c-4.95-1.09-13.64-3.07-27.2-11.17,0,0-.1,0-.05.07A54,54,0,0,0,527,163.4C527.33,163.44,527.39,163.23,527.06,163.16Z"/><path class="cls-4" d="M527,169c-8.35-2.18-13.34-4.61-21.3-8.92-.05,0-.1.05-.06.08,8.54,5.84,12.3,7,21.32,9.13C527.24,169.33,527.3,169,527,169Z"/><path class="cls-5" d="M584.46,117.39l38.49,1s-20.2-36.42-31.38-50c-11.66-14.13-19.66-13.15-15.51,10.74A378.2,378.2,0,0,0,584.46,117.39Z"/><path class="cls-3" d="M613.16,101.37l-.51-.09a2.13,2.13,0,0,1-.85-.28,1.6,1.6,0,0,1-.72-1.37,2.08,2.08,0,0,0-1.34-1.9,2.17,2.17,0,0,0-1.12-.08c-.35.08-.68.12-1,.21a8.2,8.2,0,0,0,1,.2,1.82,1.82,0,0,1,.85.27,1.57,1.57,0,0,1,.79,1.32,2,2,0,0,0,1.26,1.92,1.93,1.93,0,0,0,1.13.11l.62-.12a2.74,2.74,0,0,0,.39-.09Zm-8.58,13.48a2.43,2.43,0,0,1-.79.44,1.61,1.61,0,0,1-1.49-.4,2.09,2.09,0,0,0-2.25-.47,1.87,1.87,0,0,0-.88.72c-.19.29-.4.56-.58.87.31-.19.58-.39.87-.58a1.85,1.85,0,0,1,.78-.39,1.66,1.66,0,0,1,1.49.45,2.09,2.09,0,0,0,2.29.4,2.22,2.22,0,0,0,.85-.75c.18-.29.39-.56.55-.86C605.13,114.46,604.87,114.67,604.58,114.85ZM602.2,83.52a1.81,1.81,0,0,0-.41.62,2.17,2.17,0,0,0-.1,1.12,9.35,9.35,0,0,0,.2,1,7.53,7.53,0,0,0,.21-1,1.75,1.75,0,0,1,.29-.83,1.49,1.49,0,0,1,.23-.27Zm-9.89,14.13c-.08-.33-.12-.66-.2-1a7.91,7.91,0,0,0-.21,1,1.94,1.94,0,0,1-.27.87,1.54,1.54,0,0,1-1.32.77,2,2,0,0,0-1.92,1.28,1.66,1.66,0,0,0-.1,1.11c.06.35.1.68.18,1a6.7,6.7,0,0,0,.21-1,2,2,0,0,1,.29-.83,1.54,1.54,0,0,1,1.36-.72,2.09,2.09,0,0,0,1.9-1.34A2.49,2.49,0,0,0,592.31,97.65ZM590,78.47a1.85,1.85,0,0,1-.78.39,1.53,1.53,0,0,1-1.47-.45,2.1,2.1,0,0,0-2.29-.39,2,2,0,0,0-.85.74c-.18.29-.41.56-.58.87.31-.19.58-.39.87-.58a1.68,1.68,0,0,1,.79-.41,1.53,1.53,0,0,1,1.48.37,2,2,0,0,0,3.14-.25c.19-.29.39-.56.56-.87C590.58,78.08,590.31,78.29,590,78.47Z"/><path class="cls-4" d="M616.78,112.05c-1-.13-1.95-.12-2.92-.16l-3-.13c-2-.09-4-.14-6.07-.18-4-.08-8.09-.18-12.14-.2-1.11,0-2.22,0-3.33,0s-2.34.14-3.51.16c-.07,0-.06.11,0,.11,1,0,2,.19,3,.24s2,.11,3.08.14c2,0,4.05.1,6.07.13,4,0,8,.12,12,.09l3.33,0c1.17,0,2.36,0,3.51-.07C616.83,112.15,616.85,112.06,616.78,112.05Z"/><path class="cls-4" d="M610.19,97.73c-1.38-2.33-2.68-4.7-4-7-1.52-2.66-3-5.37-4.44-8,0-.07.08-.13.12-.07,1.76,2.82,7.69,12.23,8.65,13.83q4.21,7,8.38,14c1.55,2.63,3.27,5.69,4.8,8.33.11.19-3,0-4.65-.2-.09,0-.19-.28-.09-.28,1.54,0,3.61-.13,3.81-.11q-4.25-6.63-8.31-13.37Q612.29,101.29,610.19,97.73Z"/><path class="cls-4" d="M579.73,99.41a11.51,11.51,0,0,1-1.61-4.15,0,0,0,0,1,0,0A24.68,24.68,0,0,0,579.64,99c-.11-.54-.22-1.07-.32-1.61-.38-1.93-.77-3.86-1.06-5.81,0,0,0,0,0,0,.89,3.32,1.64,6.68,2.45,10s1.64,6.78,2.45,10.17c.44,1.85.88,3.7,1.28,5.55.63.07,1.12.06,1.67.13a.14.14,0,0,1,0,.28,10.66,10.66,0,0,1-2.09-.09C582.28,111.63,581,105.52,579.73,99.41Z"/><path class="cls-14" d="M563.18,74.61c4.82.77,12.42-7.09,15.19-13.21.19-.42-.75-4.61-1.65-9.77-.53-3.13-1.05-6.63-1.29-9.85l-19.86,6.43a51.68,51.68,0,0,1,2.89,12.24,8.39,8.39,0,0,1,0,1.34,1.27,1.27,0,0,0,0,.22C558.18,64.55,558.51,73.87,563.18,74.61Z"/><path class="cls-4" d="M574,42.24c-.26,4.31-2,18.59-13.54,19.72a11.45,11.45,0,0,1-2.09,0,1.86,1.86,0,0,0,0-.22,7.37,7.37,0,0,0,.05-1.34,51.68,51.68,0,0,0-2.89-12.24Z"/><path class="cls-14" d="M572.3,15.48c3.8,6.49,4.92,27.58,1,33.28-5.66,8.25-17.33,11.69-25,4.33C541,46,540,18.45,544.6,13,551.36,5,566.68,5.89,572.3,15.48Z"/><path class="cls-4" d="M556,32.78c0-.05.11.07.11.12,0,1.43.32,3.05,1.63,3.45.05,0,.05.08,0,.08C556.2,36.3,555.84,34.14,556,32.78Z"/><path class="cls-4" d="M557.22,31.23c2.27-.31,2.72,4.26.61,4.55S555.31,31.48,557.22,31.23Z"/><path class="cls-4" d="M547.6,33.31c0-.05-.1.08-.09.14.18,1.41.15,3.06-1.09,3.65,0,0,0,.09,0,.08C548,36.81,548,34.62,547.6,33.31Z"/><path class="cls-4" d="M546.19,32c-2.29,0-2,4.63.1,4.59S548.12,31.92,546.19,32Z"/><path class="cls-4" d="M558.82,29a16.29,16.29,0,0,1-1.83-.45,3,3,0,0,1-1.78-.82,1,1,0,0,1,0-1.18,2.38,2.38,0,0,1,2.39-.48,3.47,3.47,0,0,1,2.18,1.32A1,1,0,0,1,558.82,29Z"/><path class="cls-4" d="M544.2,29.83c.63-.17,1.17-.43,1.77-.65a3,3,0,0,0,1.68-1,1,1,0,0,0-.17-1.17,2.4,2.4,0,0,0-2.43-.22,3.57,3.57,0,0,0-2,1.55A1,1,0,0,0,544.2,29.83Z"/><path class="cls-4" d="M558.38,45.6c-.31.37-.6.86-1.11.95a3.78,3.78,0,0,1-1.56-.21.05.05,0,0,0-.05.08,1.91,1.91,0,0,0,1.87.59,1.5,1.5,0,0,0,1-1.36C558.54,45.57,558.43,45.55,558.38,45.6Z"/><path class="cls-4" d="M556.48,41.51a4.81,4.81,0,0,1-3,2.45,5.89,5.89,0,0,1-1.73.25h-.33l-.32,0a.36.36,0,0,1-.31-.29h0a.38.38,0,0,1,0-.15h0v-.12c-.14-1.09-.19-2.76-.19-2.76-.38.24-2.33,1.35-2.35.78-.18-4.74-.37-10,.45-14.78a.13.13,0,0,1,.26,0c.36,4.56-.1,9.14.18,13.72a8.82,8.82,0,0,1,2.21-.92c.16,0,0,3.23.15,3.72a.18.18,0,0,0,0,0c1.86,0,3.19-.63,4.85-2C556.43,41.3,556.55,41.39,556.48,41.51Z"/><path class="cls-4" d="M547.82,18.23a8,8,0,0,0,7.48,2.18,8.17,8.17,0,0,0,5.93-5.31c0-.08.14,0,.12,0a8.08,8.08,0,0,1-5.89,5.9,8.25,8.25,0,0,1-7.79-2.67A.1.1,0,0,1,547.82,18.23Z"/><path class="cls-4" d="M554.2.45a8.63,8.63,0,0,1,9.22,2.63,11.87,11.87,0,0,1,2.52,5.35.06.06,0,0,1-.12,0,10.83,10.83,0,0,0-6.14-7.22,7.2,7.2,0,0,0-8.19,1.83,7.35,7.35,0,0,0-1.85,4.51.14.14,0,0,1-.28,0A7.48,7.48,0,0,1,554.2.45Z"/><path class="cls-4" d="M530,10.36a9.66,9.66,0,0,1,3.74-5.48c2.57-1.86,5.62-1.83,8.66-1.74.08,0,.08.13,0,.13-2.58-.07-5.2,0-7.47,1.39a9.43,9.43,0,0,0-4.06,4.93,9.27,9.27,0,0,0,4.65,11.21,9.44,9.44,0,0,0,7.46.22c.1,0,.18.1.08.14a9.47,9.47,0,0,1-13-10.8Z"/><path class="cls-4" d="M573.26,16.49s-.94-6.4-2.79-8.22-5.57-1.94-5.57-1.94S562.26,1.08,557,1.18c-4.69.1-7.47,4.49-7.47,4.49s-7-5.83-14.06-1.53c-6.69,4.07-4.85,14.65,2.22,17.45,5,2,11.15-2.77,11.15-2.77.64,0,7.34,3.41,11.74-2.68,0,0,4.67,3,7,.41C567.59,16.55,571.09,17.84,573.26,16.49Z"/><path class="cls-16" d="M575.74,33.36c-1.31-.78-4.13-6-5.41-8.13-1.16-2-2-10.26-2.34-14.39a14.76,14.76,0,0,1,4.31,4.64C574.29,18.87,575.55,26.26,575.74,33.36Z"/><path class="cls-14" d="M571.9,33s3.17-7.56,6.51-6.57,1.94,11.26-1.27,13.32a3.65,3.65,0,0,1-5.19-.88Z"/><path class="cls-4" d="M577.93,29.34a0,0,0,0,1,0,.09c-2.23,1.53-3,4.08-3.42,6.64a2,2,0,0,1,2.82-1.18c.07,0,0,.15,0,.15a2.23,2.23,0,0,0-2.24,1.28,10.72,10.72,0,0,0-.73,2.2c-.07.25-.49.22-.46-.05V38.4C573.16,35.29,574.64,30.38,577.93,29.34Z"/><path class="cls-15" d="M558.38,61.57,565,72.72l12.43-17.18,4.88,4.17s-10.77,25.94-11,24.88l-6.41-9.46-6,8.16L556.78,65.4Z"/><path class="cls-4" d="M557.35,74.51c-.25-3-.58-6-.7-8.92,0-.11.16-.18.2-.06,1,2.75,1.92,14.09,2.33,16.78l0,0c.25-.35,5.58-7.22,5.65-7.14,1.3,1.46,6,8.34,6.35,9C572.91,80,579.54,65,581.69,61c.07-.12.24-.06.2.07-1.41,4.29-10.14,24.51-10.33,24.49a117.24,117.24,0,0,1-6.72-10c-.86,1.46-6.13,9.1-6.22,8.67A96.22,96.22,0,0,1,557.35,74.51Z"/></g><g id="Character_1" data-name="Character 1"><path class="cls-4" d="M68.39,114C75.46,121.68,87,124,97,124c10.17,0,21.5-1.78,30.33-7.11a24.61,24.61,0,0,0,9.42-9.65C139,102.85,139,98.44,136,94.7c-2.4-3-7.31-5-7.53-7.84s2-5.35,2.45-8.19c.78-4.83-2-8.22-5.55-11.08C117,60.8,118.49,51,113.05,42.19c-3.1-5-11.49-14-25-8.7-5.14,2-8.4,7.1-10.2,12.24-2.11,6.05.22,13.65-2.46,19.52-2.3,5-6.1,6-8.26,11.26-.94,2.27-1.29,4.86,1.39,9.87,1,1.82,2.06,4.61,1.44,6.89-.85,3.15-4.38,4.82-5.34,8.12C63.28,105.93,65.27,110.67,68.39,114Z"/><path class="cls-4" d="M133.75,108.65c4.69-1.12,6.26-7.86,3-11-2-2-5-2.79-7-4.78-3.39-3.29-.81-6.65.64-10.21,3.15-7.71-2.22-12.39-7.86-16.63-4.27-3.21-5.37-7.16-6-12.29,0-.08.12-.1.13,0,.65,3.77,1.44,7.46,4.27,10.24,2.31,2.26,5.27,3.71,7.51,6.07,3.77,4,4.51,8.48,2.41,13.45-.6,1.42-1.82,3.08-2,4.6-.42,3.59,2.36,5.24,5,6.8,2,1.21,4.26,2.54,5.15,4.85,1.36,3.51-1.48,8.59-5.13,9.24C133.65,109,133.56,108.69,133.75,108.65Z"/><path class="cls-4" d="M131.42,112.45c2.78-2,5.83-3.83,7.31-7.06,2.21-4.78-1.2-8-4.4-11.07-1.37-1.31-2.53-2.63-2.6-4.6-.12-3,1.83-5.6,2-8.55.33-7.06-6.81-10.79-10.63-15.66s-5.49-11-7.21-17c0-.12.16-.18.2-.05,2.24,7.61,5,14.7,10.9,20.27,4.08,3.88,8.43,8.09,7.12,14.24-.32,1.51-1.09,2.92-1.38,4.42-.57,3,.35,4.84,2.43,6.79s4.28,3.79,4.84,6.63c1.08,5.51-4.14,9.6-8.29,12.05A.25.25,0,0,1,131.42,112.45Z"/><path class="cls-4" d="M63.21,99.74c2.08-3.56,5.69-5.54,4.31-10.28-1-3.26-3-5.77-2.58-9.35.3-3,2-5.36,4-7.45,2.58-2.66,5.48-4.88,7.23-8.22,1.92-3.64,2.57-7.78,3.27-11.78,0-.08.15-.06.14,0-.63,5.42-1.49,11-5.15,15.3-1.91,2.25-4.32,4-6.21,6.3-3.39,4.09-3,8.22-1,12.81.92,2.1,1.76,4.22,1,6.51s-2.76,3.83-4.06,5.8c-5.51,8.36,4.83,17.5,12.8,18.27.36,0,.36.59,0,.56-6-.39-12.62-5.23-14.42-11A9.3,9.3,0,0,1,63.21,99.74Z"/><path class="cls-4" d="M63.83,103.91c-.24-3.51,1.76-5.64,3.2-8.54,2.27-4.56-.85-8.6-1.58-13.14a11.36,11.36,0,0,1,2.29-8.47c2.35-3.36,5.52-5.89,7.36-9.67a23,23,0,0,0,2-13c0-.08.11-.08.12,0a21.76,21.76,0,0,1-4.15,17.11c-2.39,3.07-5.74,5.7-6.87,9.65-1.21,4.18,1.15,7.7,2,11.67a9,9,0,0,1-1.1,6.94c-.93,1.59-2.11,3.08-2.54,5A11,11,0,0,0,66,108.86C69.83,116,78,119.92,85.39,120.47c.26,0,.28.44,0,.42a25.65,25.65,0,0,1-17.71-8.65A14.78,14.78,0,0,1,63.83,103.91Z"/><path class="cls-17" d="M92.54,98.56c5.55,22.56,19,57.61,30.86,57.42,10.84-.17,35-19.39,45.15-25.69s-12.59-31.11-18.4-27.1c-9,6.23-22.47,17.33-24.74,16.61-2.84-.91-6.44-7.89-22.62-28.46C96.18,82.93,90.18,89,92.54,98.56Z"/><path class="cls-17" d="M161,93.63c4.78-1.69,10.12-4,15.42-3.91s9.71,7.11,9.71,9.11-2,14.52-7.31,14.52-2.1-9.61-2.3-10.71-.4-2.51-1.4-2.41-18.52,8.41-18.52,8.41Z"/><path class="cls-17" d="M161.38,94.36c.3,0,14.51-5.6,19.82-5.5s9.71,7.1,9.71,9.11-2,14.51-7.31,14.51-2.1-9.61-2.3-10.71-.4-2.51-1.4-2.41-18.52,8.42-18.52,8.42Z"/><path class="cls-4" d="M181.8,111.81a6.39,6.39,0,0,1-.88-3.14,11,11,0,0,1,.19-3.38,18.61,18.61,0,0,0,.65-2.92,5.89,5.89,0,0,0-.74-2.81c-.41-.74-1.19-.49-1.86-.25a27.73,27.73,0,0,0-2.89,1.3l-3,1.55a29.65,29.65,0,0,0-3.08,1.69c-.07.05,0,.18.06.15a27.14,27.14,0,0,0,2.7-1.21c1-.47,2-.94,3-1.39s1.88-.9,2.84-1.3a2.92,2.92,0,0,1,1.39-.42c.41.09.61,1.08.7,1.41a5,5,0,0,1-.18,2.86,14.5,14.5,0,0,0-.55,2.91,7.6,7.6,0,0,0,.22,2.77,10.82,10.82,0,0,0,1.26,2.28C181.7,112,181.88,111.9,181.8,111.81Z"/><path class="cls-17" d="M144.55,108.29s14.7-13.4,17.76-16.06c6.14-5.34,32-15.91,35.61-16.29s4.9,7-12.65,14.68c-9.25,4-10.9,9.35-10.72,12.28s3,8.41,7.92,8.28,8.14-7.34,12.68-8.14,1.54,7.51-1.66,12.32a30.36,30.36,0,0,1-13.29,10.37c-4.27,1.6-17.49,7.3-17.49,7.3Z"/><path class="cls-4" d="M188.6,107.71c-1.86,1.44-4,3.3-6.42,3.4s-4.17-1.55-5.35-3.61a9.36,9.36,0,0,1-1.29-6.83,11.45,11.45,0,0,1,3.38-5.54,27.76,27.76,0,0,1,6.69-4.45c.11-.06,0-.21-.1-.16-2.27,1-9.34,3.91-10.75,10.15a9.63,9.63,0,0,0,1.37,7c1.1,2,2.69,3.86,5.09,4.05,2.91.24,5.43-2.13,7.52-3.9C188.83,107.7,188.69,107.63,188.6,107.71Z"/><path class="cls-9" d="M144.55,106.41l22,34.15s-34.9,19.55-44.77,16.39S97,125.5,90.85,100.67s9.1-15.32,15-7.65,18.76,25.42,19.46,25.18S144.55,106.41,144.55,106.41Z"/><path class="cls-1" d="M156.52,145.8c-2.16,1.1-4.55,2.25-7.05,3.4l-19.06-34c2-1.22,4.36-2.68,6.57-4C143,121.77,150.29,134.7,156.52,145.8Z"/><path class="cls-1" d="M146.76,150.44c-.75.33-1.53.67-2.3,1L125.69,118l2.09-1.24C133.69,127.23,140.73,139.69,146.76,150.44Z"/><path class="cls-4" d="M142,152.48c-7.95,3.24-15.75,5.6-19.82,4.57-.13,0-.24-.07-.35-.09-9.87-3.16-24.78-31.45-30.93-56.29a38.29,38.29,0,0,1-1.42-10.21c0-.12,0-.24,0-.36s0-.39.06-.59a.93.93,0,0,1,0-.24,4.25,4.25,0,0,1,.07-.53Z"/><path class="cls-4" d="M154.26,137.2c-.69-1.21-1.4-2.42-2.1-3.62-1.42-2.41-9.94-16.71-13.31-21.05-.09-.12-.26,0-.2.14,2.34,5,11.17,19,12.64,21.34.76,1.19,1.51,2.37,2.28,3.54s1.67,2.27,2.44,3.46c.07.11.27,0,.19-.1C155.51,139.7,155,138.41,154.26,137.2Z"/><path class="cls-9" d="M115.92,138.94l3.66,25.17a70.54,70.54,0,0,1-73.72,1.32c3.7-19.22,12.61-56.38,29-75.28,2.73-3.14,12-11.67,23.67-1.94,5.7,4.75,19.36,24.85,21.09,33.18S115.92,138.94,115.92,138.94Z"/><path class="cls-4" d="M105.08,137a45.73,45.73,0,0,0-11.89,2c-3.88,1.1-12.46,4.5-14.62,5.33,0,0,0,.11,0,.09a72.62,72.62,0,0,0,8.26-2.49c3.81-1.29,7.65-2.46,11.54-3.47a54.22,54.22,0,0,1,6.69-1.21A.12.12,0,0,0,105.08,137Z"/><path class="cls-4" d="M112.16,139.05a36.81,36.81,0,0,0-12.49,1.11,0,0,0,0,0,0,.09c2.07-.25,4.13-.49,6.21-.66s4.18-.28,6.27-.42A.06.06,0,0,0,112.16,139.05Z"/><path class="cls-4" d="M116.47,112.82a29.39,29.39,0,0,0-2.3-5.92s0,0,0,0a42.39,42.39,0,0,1,1.94,5.14,69.16,69.16,0,0,0-4.8-7.35s-.08,0,0,0c4.88,8.12,9.76,17.52,7.43,27.28a21,21,0,0,1-1.16,3.55,16.6,16.6,0,0,1-1.83,3.46c-.06.08.25.41.32.33a18.36,18.36,0,0,0,1.87-2.79,16.42,16.42,0,0,0,1.44-3.13,20.76,20.76,0,0,0,1-6.91A30.46,30.46,0,0,0,116.47,112.82Z"/><path class="cls-17" d="M71.7,109.21c3.92,23,23.23,66,35.81,70.07,14.56,4.69,65.12-11.47,75-18.74,3.95-2.89-17.1-28.36-22-26.55-20.59,7.57-38.84,11.46-41.49,9.66-4.07-2.77-20.68-26.56-31.47-41.32C74,83.78,69.94,98.89,71.7,109.21Z"/><path class="cls-17" d="M181.24,161.23c2.25-.8,17.74-12,22.3-17.32a67.36,67.36,0,0,0,11.91-18.46c4.59-10.69,6.75-18.53,5.65-22-1.29-4.08-1.65-4.74-12.36,13-6.06,10-11.83,11.17-16.84,11.08a77,77,0,0,0-35.58,8S172.6,164.31,181.24,161.23Z"/><path class="cls-15" d="M228.78,90.13,202,123.87a3.19,3.19,0,0,1-3.23,1.06l-18.64-6.2a1.37,1.37,0,0,1-.56-2.32l26.74-33.74a3.17,3.17,0,0,1,3.23-1.06l18.64,6.2A1.36,1.36,0,0,1,228.78,90.13Z"/><path class="cls-4" d="M226.55,87.25l-18.64-6.2a3.18,3.18,0,0,0-3.23,1.06l-26.74,33.74a1.36,1.36,0,0,0,.55,2.32l18.65,6.2a3.17,3.17,0,0,0,3.22-1.06L227.1,89.57A1.36,1.36,0,0,0,226.55,87.25ZM200,121.87a2.94,2.94,0,0,1-3,1l-16.69-5.55c-.93-.31-1.12-1.28-.41-2.17l24.89-31.42c1.44-1.81,2.27-1.64,3.2-1.33l3.34,1.11c.2.06.2.31,0,.55l-.08.1c-.45.57-.1.69.33.83l7.73,2.57a.9.9,0,0,0,1.23-.31l.08-.1a.76.76,0,0,1,.7-.32L224.72,88c.94.31,1.5.8.19,2.45Z"/><path class="cls-3" d="M217.12,86l-2.11-.7c-.07,0-.09-.09,0-.16h0a.23.23,0,0,1,.22-.07l2.11.7a.1.1,0,0,1,0,.16h0A.23.23,0,0,1,217.12,86Z"/><line class="cls-18" x1="181.52" y1="113.21" x2="181.46" y2="113.19"/><path class="cls-3" d="M224.91,90.45,200,121.87a2.94,2.94,0,0,1-3,1l-16.69-5.55c-.93-.31-1.12-1.28-.41-2.17l24.9-31.42c1.43-1.81,2.26-1.64,3.19-1.33l3.34,1.11c.2.06.2.31,0,.55l-.08.1c-.45.57-.1.69.33.83l7.73,2.57a.9.9,0,0,0,1.23-.31l.08-.1a.76.76,0,0,1,.7-.32L224.72,88C225.66,88.31,226.22,88.8,224.91,90.45Z"/><path class="cls-5" d="M224.91,90.45l-1.86,2.35L203,86.13l1.85-2.35c1.44-1.81,2.27-1.64,3.2-1.33l3.34,1.11c.2.06.2.31,0,.55l-.08.1c-.45.57-.1.69.33.83l7.73,2.57c.44.14.79.26,1.23-.31l.08-.1a.76.76,0,0,1,.7-.32L224.72,88C225.66,88.31,226.22,88.8,224.91,90.45Z"/><polygon class="cls-3" points="205.93 85.66 205.72 84.97 206.7 84.68 206.72 84.8 205.92 85.04 206.09 85.6 205.93 85.66"/><path class="cls-3" d="M223.07,90.49a.21.21,0,0,1-.2.06c-.06,0-.08-.08,0-.14a.16.16,0,0,1,.19-.06C223.1,90.37,223.11,90.43,223.07,90.49Z"/><path class="cls-3" d="M222.78,90.85a.19.19,0,0,1-.2.07.09.09,0,0,1,0-.15.2.2,0,0,1,.19-.06C222.81,90.73,222.82,90.79,222.78,90.85Z"/><path class="cls-3" d="M222.49,91.22a.21.21,0,0,1-.2.06c-.06,0-.08-.08,0-.14a.19.19,0,0,1,.2-.07A.09.09,0,0,1,222.49,91.22Z"/><g id="u5Zjqx-2" data-name="u5Zjqx"><path class="cls-3" d="M210.25,84.07l-.06,0h0a.32.32,0,0,0-.22-.22.69.69,0,0,0-.4,0v-.06h0l.06,0,.14,0h.15l.07,0s.06,0,.06,0h0l.09.06.06.06,0,.07,0,0Z"/><path class="cls-3" d="M209.57,84l0-.07a.55.55,0,0,1,.28,0,.27.27,0,0,1,.24.2l-.08,0a.23.23,0,0,0-.15-.14A.42.42,0,0,0,209.57,84Z"/><path class="cls-3" d="M209.9,84.18l-.08,0a.11.11,0,0,0-.08-.07.17.17,0,0,0-.14,0v-.06C209.73,84,209.88,84.07,209.9,84.18Z"/><path class="cls-3" d="M209.72,84.23a.11.11,0,0,1-.08,0,0,0,0,0,1,0-.06.11.11,0,0,1,.08,0A0,0,0,0,1,209.72,84.23Z"/></g><path class="cls-3" d="M207,83.11a.22.22,0,0,1,.23-.07c.07,0,.09.09,0,.16a.23.23,0,0,1-.23.07A.1.1,0,0,1,207,83.11Z"/><path class="cls-3" d="M207.45,83.25a.21.21,0,0,1,.22-.07c.08,0,.1.09,0,.16a.21.21,0,0,1-.22.07A.1.1,0,0,1,207.45,83.25Z"/><path class="cls-3" d="M207.87,83.39a.19.19,0,0,1,.22-.07c.08,0,.09.09,0,.16a.23.23,0,0,1-.22.07C207.83,83.53,207.82,83.45,207.87,83.39Z"/><path class="cls-3" d="M208.29,83.53a.19.19,0,0,1,.22-.07c.08,0,.09.09,0,.16a.23.23,0,0,1-.22.07A.09.09,0,0,1,208.29,83.53Z"/><path class="cls-3" d="M208.71,83.67a.22.22,0,0,1,.22-.08.1.1,0,0,1,0,.17.23.23,0,0,1-.22.07C208.67,83.8,208.65,83.73,208.71,83.67Z"/><polygon class="cls-3" points="224.16 89.36 222.63 88.85 223.27 88.04 224.8 88.55 224.16 89.36"/><polygon class="cls-3" points="224.07 88.64 223.38 88.41 223.15 88.7 223.84 88.93 224.07 88.64"/><polygon class="cls-3" points="224.26 89.03 224.16 89 224.35 88.77 224.44 88.8 224.26 89.03"/><polygon class="cls-1" points="183.24 115.9 183.09 115.85 182.6 116.47 182.32 116.37 182.57 116.06 182.06 115.89 181.81 116.2 181.53 116.11 182.02 115.49 181.86 115.44 183.05 115.04 183.24 115.9"/><polygon class="cls-1" points="198.92 120.59 197.26 120.03 197.43 119.83 199.09 120.38 198.92 120.59"/><polygon class="cls-1" points="198.51 121.1 196.85 120.55 197.02 120.34 198.68 120.89 198.51 121.1"/><polygon class="cls-1" points="198.1 121.62 196.44 121.07 196.61 120.86 198.27 121.41 198.1 121.62"/><polygon class="cls-1" points="190.77 118.29 189.95 118.58 189.82 117.98 189.96 117.94 190.06 118.43 190.74 118.19 190.77 118.29"/><path class="cls-1" d="M190,119.54a1.62,1.62,0,0,1-.49-.08,1.06,1.06,0,0,1-.71-.7,1.14,1.14,0,0,1,.24-1.06,1.84,1.84,0,0,1,1.91-.6,1.09,1.09,0,0,1,.72.71,1.16,1.16,0,0,1-.25,1h0A1.86,1.86,0,0,1,190,119.54Zm.44-1.49a.81.81,0,0,0-.62.28.3.3,0,0,0-.07.14.84.84,0,0,0,.89-.23.23.23,0,0,0,.07-.15A.84.84,0,0,0,190.39,118.05Z"/><path class="cls-3" d="M212.37,87.39a.88.88,0,0,1,.91-.29.39.39,0,0,1,.26.22s0,.08-.07.1a.1.1,0,0,1-.13,0,.28.28,0,0,0-.18-.15.65.65,0,0,0-.34,0,.7.7,0,0,0-.28.19.33.33,0,0,0-.08.27.3.3,0,0,0,.2.18.57.57,0,0,0,.29,0,.08.08,0,0,1,.11,0s-.05.08-.1.1a.85.85,0,0,1-.42,0A.38.38,0,0,1,212.37,87.39Z"/><path class="cls-3" d="M213.24,88.18l.6-.77a.13.13,0,0,1,.14,0c.05,0,.06.06,0,.1l-.25.31.38.13.25-.32a.12.12,0,0,1,.14,0s.06.06,0,.1l-.6.76a.16.16,0,0,1-.14,0,.06.06,0,0,1,0-.1l.25-.31-.38-.13-.25.31a.15.15,0,0,1-.14,0A.06.06,0,0,1,213.24,88.18Z"/><path class="cls-3" d="M214.83,88.53l-.36-.12-.21.14a.11.11,0,0,1-.11,0h0s0-.08,0-.11l.93-.66a.18.18,0,0,1,.12,0,.06.06,0,0,1,0,.08l-.28.87a.14.14,0,0,1-.12.07h0a.05.05,0,0,1,0-.07Zm0-.17.1-.31-.34.23Z"/><path class="cls-3" d="M216.17,88.28l-.23-.08-.55.69a.15.15,0,0,1-.14,0,.06.06,0,0,1,0-.1l.55-.69-.24-.08a.06.06,0,0,1,0-.1.12.12,0,0,1,.14,0l.63.21s.05,0,0,.09A.15.15,0,0,1,216.17,88.28Z"/><polygon class="cls-9" points="194.79 99.97 209.14 104.74 212.28 100.78 197.93 96.01 197.93 96.01 194.79 99.97 194.79 99.97"/><polygon class="cls-9" points="210.47 105.19 209.14 104.74 210.1 103.53 210.47 105.19"/><polygon class="cls-3" points="210.85 101.27 198.14 97.04 198.2 96.97 210.91 101.19 210.85 101.27"/><polygon class="cls-3" points="207.89 100.8 197.82 97.45 197.88 97.38 207.95 100.72 207.89 100.8"/><polygon class="cls-3" points="208.84 102.14 197.18 98.26 197.24 98.19 208.9 102.07 208.84 102.14"/><polygon class="cls-3" points="209.56 102.9 196.86 98.67 196.92 98.59 209.62 102.82 209.56 102.9"/><polygon class="cls-3" points="209.24 103.3 196.53 99.08 196.59 99 209.3 103.23 209.24 103.3"/><polygon class="cls-3" points="205.4 102.54 196.21 99.48 196.27 99.41 205.46 102.46 205.4 102.54"/><polygon class="cls-9" points="187.37 109.32 201.72 114.1 204.86 110.14 190.51 105.36 190.51 105.36 187.37 109.32 187.37 109.32"/><polygon class="cls-9" points="203.05 114.54 201.72 114.1 202.69 112.88 203.05 114.54"/><polygon class="cls-3" points="203.44 110.62 190.73 106.4 190.79 106.32 203.5 110.55 203.44 110.62"/><polygon class="cls-3" points="200.48 110.15 190.41 106.8 190.47 106.73 200.54 110.08 200.48 110.15"/><polygon class="cls-3" points="201.43 111.5 189.77 107.62 189.82 107.54 201.49 111.42 201.43 111.5"/><polygon class="cls-3" points="202.15 112.25 189.44 108.02 189.5 107.95 202.21 112.17 202.15 112.25"/><polygon class="cls-3" points="201.83 112.66 189.12 108.43 189.18 108.35 201.89 112.58 201.83 112.66"/><polygon class="cls-3" points="197.99 111.89 188.8 108.84 188.86 108.76 198.05 111.82 197.99 111.89"/><polygon class="cls-5" points="216.72 97.3 202.37 92.52 205.02 89.18 219.37 93.95 216.72 97.3"/><polygon class="cls-5" points="201.04 92.08 202.37 92.52 203.33 91.31 201.04 92.08"/><polygon class="cls-3" points="215.89 93.67 205.31 90.15 205.37 90.08 215.95 93.6 215.89 93.67"/><polygon class="cls-3" points="217.69 94.78 204.98 90.56 205.04 90.48 217.75 94.71 217.69 94.78"/><polygon class="cls-3" points="217.37 95.19 204.66 90.97 204.72 90.89 217.43 95.12 217.37 95.19"/><polygon class="cls-3" points="216.04 95.26 204.34 91.37 204.4 91.3 216.1 95.19 216.04 95.26"/><polygon class="cls-3" points="216.72 96 204.02 91.78 204.08 91.7 216.78 95.93 216.72 96"/><polygon class="cls-3" points="213.08 95.31 203.7 92.18 203.76 92.11 213.14 95.23 213.08 95.31"/><polygon class="cls-5" points="214.33 100.31 199.98 95.54 201.94 93.06 216.29 97.84 214.33 100.31"/><polygon class="cls-5" points="198.65 95.1 199.98 95.54 200.94 94.33 198.65 95.1"/><polygon class="cls-3" points="214.91 98.25 202.23 94.03 202.29 93.96 214.97 98.18 214.91 98.25"/><polygon class="cls-3" points="212.35 97.91 201.91 94.44 201.97 94.37 212.41 97.84 212.35 97.91"/><polygon class="cls-3" points="213.07 98.67 201.59 94.85 201.65 94.77 213.13 98.59 213.07 98.67"/><polygon class="cls-3" points="210.13 98.2 201.26 95.25 201.32 95.18 210.19 98.13 210.13 98.2"/><polygon class="cls-10" points="206.93 109.65 192.58 104.88 195.35 101.38 209.7 106.16 206.93 109.65"/><polygon class="cls-10" points="191.25 104.43 192.58 104.88 193.54 103.66 191.25 104.43"/><polygon class="cls-3" points="206.68 107.55 194.68 103.56 194.74 103.49 206.74 107.48 206.68 107.55"/><polygon class="cls-3" points="205.38 107.63 194.36 103.97 194.42 103.89 205.44 107.56 205.38 107.63"/><polygon class="cls-3" points="206.63 106.51 195.32 102.75 195.38 102.67 206.69 106.43 206.63 106.51"/><polygon class="cls-3" points="208.19 106.52 195.65 102.34 195.71 102.27 208.25 106.44 208.19 106.52"/><polygon class="cls-3" points="205.45 108.17 194.04 104.37 194.09 104.3 205.51 108.09 205.45 108.17"/><polygon class="cls-5" points="199.93 118.48 185.58 113.71 187.89 110.8 202.24 115.57 199.93 118.48"/><polygon class="cls-5" points="184.25 113.26 185.58 113.71 186.54 112.49 184.25 113.26"/><polygon class="cls-3" points="200.9 115.97 188.2 111.74 188.26 111.67 200.96 115.89 200.9 115.97"/><polygon class="cls-3" points="200.58 116.38 187.87 112.15 187.93 112.07 200.64 116.3 200.58 116.38"/><polygon class="cls-3" points="199.25 116.45 187.55 112.56 187.61 112.48 199.31 116.37 199.25 116.45"/><polygon class="cls-3" points="199.94 117.19 187.23 112.96 187.29 112.89 200 117.11 199.94 117.19"/><polygon class="cls-3" points="196.3 116.49 186.91 113.37 186.97 113.29 196.36 116.42 196.3 116.49"/><path class="cls-17" d="M194.4,127.44c-5.18.07,11.64-10.42,11.9-16.31s-5.49-4-10-.71c-15.7,11.54-27.55,11-35.51,22S194.4,127.44,194.4,127.44Z"/><path class="cls-4" d="M178.76,120.26a40.92,40.92,0,0,0-9.68,3.79,25.07,25.07,0,0,0-7,6.55c-.09.11.07.26.16.15,4.24-5.21,10.52-7.83,16.55-10.34C178.89,120.37,178.85,120.23,178.76,120.26Z"/><path class="cls-9" d="M120.16,142.23c4,1.09,32-6.6,32-6.6L168,173.71s-48.8,11.36-60.19,7.42S78.63,138.48,72.9,116C67.51,94.84,74.69,81,89.79,103,89.79,103,118.06,141.66,120.16,142.23Z"/><path class="cls-1" d="M159,175.66c-3.15.65-6.91,1.41-11,2.18l-14.34-37.58c3.67-.82,7.5-1.76,10.7-2.57C148.83,149.13,154.19,163,159,175.66Z"/><path class="cls-1" d="M143.79,178.6l-3.54.62L126,141.81c1.06-.18,2.22-.39,3.42-.63C133.72,152.4,139,166.06,143.79,178.6Z"/><path class="cls-4" d="M107.16,180c-9.55-4.89-21.32-30.48-23.58-35.5-1.45-3.21-2.78-6.48-4.08-9.75-2.6-6.56-5-13.2-7.27-19.88a.09.09,0,0,0-.18.06c1.25,5.15,2.76,10.26,4.51,15.28a57.9,57.9,0,0,1-3.12-5.81c0-.1-.2,0-.16.07a31.8,31.8,0,0,0,3.62,6.72Q79.58,138.72,83,146c.65,1.4,14.27,32.74,24.93,35.65,3.71,1,16.4.1,19.1-.52.11,0,.14-.17,0-.17C123.35,180.87,110.57,181.7,107.16,180Z"/><path class="cls-4" d="M157.41,169.1q-.71-2-1.44-3.93c-1-2.63-6.85-18.2-9.39-23.06-.07-.13-.27,0-.23.1,1.43,5.33,7.66,20.7,8.7,23.24.53,1.29,1.06,2.59,1.61,3.88s1.26,2.53,1.8,3.83c0,.12.26.07.21-.07C158.2,171.79,157.88,170.42,157.41,169.1Z"/><path class="cls-4" d="M152.21,135.69c-2.32.11-23.3,5-27.93,6a9.29,9.29,0,0,1-3.42.47c-1.21-.18-2-1.19-2.75-2.05-1.5-1.72-17.9-23.41-19.09-24.47-.45-.4-.81-.48-.38.2.73,1.18,16.68,22.59,18.12,24.27s2.62,3.21,4.88,3.12c1,0,29.28-6.39,30.67-7A.3.3,0,0,0,152.21,135.69Z"/><path class="cls-17" d="M85.38,87.13c.08,1.4,5,11.29,11.23,12.07,2,.25,3.9-10.75,3.9-10.75l.32-.79,4.52-10.93L93.47,65.83l-1.73-1.47s-1,3.08-2.3,6.92c0,.17-.11.35-.17.54s-.16.42-.22.62c-.19.58-.39,1.16-.57,1.75-.15.44-.29.87-.42,1.35s-.27.93-.42,1.4A77.52,77.52,0,0,0,85.38,87.13Z"/><path class="cls-4" d="M89.44,71.28a23.69,23.69,0,0,0,11.39,16.38l4.52-10.93L93.47,65.83l-1.73-1.47S90.7,67.44,89.44,71.28Z"/><path class="cls-17" d="M124.26,59.34c.25,20.76-12.16,23.26-16.63,23.31-4.07,0-17.92-.32-20.32-21s7.18-27.31,16.47-27.9S124,38.57,124.26,59.34Z"/><path class="cls-4" d="M121,55.1a12.91,12.91,0,0,1-1.39-.37,2.31,2.31,0,0,1-1.34-.66.74.74,0,0,1,.06-.9,1.83,1.83,0,0,1,1.82-.32,2.74,2.74,0,0,1,1.64,1A.79.79,0,0,1,121,55.1Z"/><path class="cls-4" d="M107.09,55a11.3,11.3,0,0,0,1.42-.21,2.31,2.31,0,0,0,1.41-.5.75.75,0,0,0,0-.9,1.84,1.84,0,0,0-1.78-.53,2.69,2.69,0,0,0-1.74.86A.78.78,0,0,0,107.09,55Z"/><path class="cls-4" d="M109.62,60.07c0-.06-.11.06-.11.12,0,1.41-.25,3-1.54,3.46a0,0,0,0,0,0,.08C109.54,63.56,109.84,61.41,109.62,60.07Z"/><path class="cls-4" d="M108.41,58.55c-2.27-.25-2.6,4.3-.5,4.53S110.31,58.76,108.41,58.55Z"/><path class="cls-4" d="M107.5,58.72c-.42.23-.84.66-1.32.67s-1-.49-1.28-1c0,0-.07,0-.08.05-.07.87.2,1.79,1.12,2s1.51-.55,1.8-1.41C107.79,58.88,107.67,58.63,107.5,58.72Z"/><path class="cls-4" d="M117.93,60.11s.11.08.1.14c-.16,1.4-.1,3,1.13,3.61,0,0,0,.09,0,.08C117.61,63.59,117.56,61.42,117.93,60.11Z"/><path class="cls-4" d="M119.31,58.74c2.28,0,2.09,4.58,0,4.57S117.4,58.73,119.31,58.74Z"/><path class="cls-4" d="M120.25,59.08c.35.26.69.71,1.12.76s.88-.42,1.22-.88c0-.05.07,0,.07,0,0,.87-.34,1.77-1.18,1.9s-1.3-.65-1.47-1.53C120,59.22,120.11,59,120.25,59.08Z"/><path class="cls-4" d="M109,71.12c.29.37.58.86,1.08,1a3.74,3.74,0,0,0,1.55-.18s.09,0,0,.08a1.88,1.88,0,0,1-1.87.55,1.51,1.51,0,0,1-1-1.37C108.8,71.08,108.91,71.07,109,71.12Z"/><path class="cls-4" d="M115.17,66.38s.16,2.13.1,3.12c0,.1-.25.13-.59.13,0,0,0,0,0,0a4.75,4.75,0,0,1-4.49-2,.1.1,0,0,1,.16-.13,7.15,7.15,0,0,0,4.24,1.5c.09-.27-.4-3.63-.24-3.63a8.29,8.29,0,0,1,2.23.65c-.21-4.44-1.13-8.81-1.27-13.23a.14.14,0,0,1,.27-.05c1.28,4.51,1.63,9.61,2,14.19C117.56,67.45,115.56,66.58,115.17,66.38Z"/><path class="cls-4" d="M114.57,69.25A5.84,5.84,0,0,1,112.2,71a2.6,2.6,0,0,1-1.59,0c-1.13-.33-1.13-1.38-.9-2.28a6.05,6.05,0,0,1,.56-1.36A7.51,7.51,0,0,0,114.57,69.25Z"/><path class="cls-13" d="M112.2,71a2.6,2.6,0,0,1-1.59,0c-1.13-.33-1.13-1.38-.9-2.28A2.69,2.69,0,0,1,112.2,71Z"/><path class="cls-4" d="M86.85,60.88c3.45.64,5-6.56,5-6.56s7.06.77,10.47-9.13a15.75,15.75,0,0,1-4,8.06s12.59,0,18.94-9.86c0,0-2.65,5.09-4.82,6.77,0,0,5.38-.9,8.38-4.87,0,0,1.54,6.24,3,8.08,0,0,1.81-21.84-18.62-21.67,0,0-12.73-.51-18.33,9S86.85,60.88,86.85,60.88Z"/><path class="cls-17" d="M90,62s-4-6.8-7.09-5.41-.35,11,3,12.56a3.51,3.51,0,0,0,4.83-1.54Z"/><path class="cls-4" d="M83.74,59.31s-.07.07,0,.09c2.34,1.16,3.44,3.49,4.16,5.88A1.94,1.94,0,0,0,85,64.54c-.07,0,0,.14,0,.13a2.17,2.17,0,0,1,2.32.93,10.63,10.63,0,0,1,1,2c.1.23.5.14.43-.11,0,0,0,0,0-.06C89.1,64.35,87,59.87,83.74,59.31Z"/></g></svg>