<svg id="OBJECTS" xmlns="http://www.w3.org/2000/svg" xmlns:xlink="http://www.w3.org/1999/xlink" viewBox="0 0 750 500"><defs><style>.cls-1{fill:none;}.cls-2{opacity:0.8;}.cls-3{opacity:0.5;}.cls-4{fill:#ced3e6;}.cls-5{fill:#fff;}.cls-6{fill:#585859;}.cls-7{fill:#39393b;}.cls-8{fill:#df615c;}.cls-9{fill:#5392f3;}.cls-10{fill:#d2dcec;}.cls-11{clip-path:url(#clip-path);}.cls-12{fill:#ea9b7a;}.cls-13{fill:#d96c63;}.cls-14{fill:#faaf3a;}.cls-15{fill:#c77e2e;}.cls-16{fill:#0875f7;}.cls-17{fill:#084fc7;}.cls-18{fill:#21b573;}.cls-19{fill:#217c58;}.cls-20{fill:#b11722;}</style><clipPath id="clip-path"><path class="cls-1" d="M342.21,267.49c-1.31,4-1.31,4.74-1.31,4l0-115.11c0-.71,0-.6,0-83.95H599.77l0,195Z"/></clipPath></defs><g class="cls-2"><g class="cls-3"><path class="cls-4" d="M384.89,173.44a145.5,145.5,0,0,1-66.32-28.1c-29.29-22.11-90.59-59.73-149.07-41-80.65,25.85-81,100.62-60,141.24s170,159.56,363.14,140.64C645.46,369.29,679.14,175.43,587,140.35,507,109.92,479.74,187.45,384.89,173.44Z"/></g><g class="cls-3"><ellipse class="cls-4" cx="633.7" cy="144.75" rx="7.49" ry="8.07"/></g><path class="cls-4" d="M144.42,91.61a4.87,4.87,0,0,1,5.44,3c1.38,3.74-2.24,7.93-7.1,6h0C138.56,97.6,140.38,92.36,144.42,91.61Z"/><circle class="cls-4" cx="613.24" cy="72.65" r="9.76" transform="translate(443.01 666.25) rotate(-80.75)"/><g class="cls-2"><path class="cls-4" d="M174,83.92a9.87,9.87,0,1,1-12.16-6.84A9.85,9.85,0,0,1,174,83.92Z"/></g><path class="cls-4" d="M564.21,377.73a4.85,4.85,0,0,1,5.91,2c2,3.42-.72,8.21-5.85,7.27h0C559.56,384.7,560.38,379.21,564.21,377.73Z"/><path class="cls-4" d="M591.86,364.66a9.86,9.86,0,1,1-13.22-4.45A9.87,9.87,0,0,1,591.86,364.66Z"/><circle class="cls-4" cx="594.85" cy="57.71" r="6.01"/></g><g class="cls-2"><path class="cls-4" d="M616.85,166.51c0-53.65-44.68-112.44-100.27-116-1-.07-2-.12-3-.17-79.71-3.71-85.78,93.5-157.89,104.47s-127.19-44.39-213.48-8.28C64.76,179,43.77,361.22,271.47,368.53,453.65,374.38,616.88,326.58,616.85,166.51Z"/></g><ellipse class="cls-4" cx="474" cy="424.48" rx="175.71" ry="9.06"/><path class="cls-4" d="M593,399.11H568.66v25.32h28.47v-21.2A4.11,4.11,0,0,0,593,399.11Z"/><rect class="cls-4" x="438.41" y="344.85" width="84.52" height="54.26"/><path class="cls-5" d="M370.3,399.11H571.63A15.92,15.92,0,0,1,587.55,415v9.4a0,0,0,0,1,0,0H354.38a0,0,0,0,1,0,0V415A15.92,15.92,0,0,1,370.3,399.11Z"/><rect class="cls-5" x="428.05" y="344.85" width="84.52" height="54.26"/><polygon class="cls-4" points="428.05 361.51 512.57 354.74 512.58 344.85 428.16 344.85 428.05 361.51"/><rect class="cls-4" x="279.12" y="109.49" width="383.46" height="235.37" rx="11.29"/><path class="cls-6" d="M662.58,120.78v197H627.67V109.49h23.62A11.3,11.3,0,0,1,662.58,120.78Z"/><path class="cls-5" d="M648.22,120.78V333.57a11.28,11.28,0,0,1-11.29,11.29H290.41a11.28,11.28,0,0,1-11.29-11.29V120.78a11.29,11.29,0,0,1,11.29-11.29h347l.37,0h0l.26,0,.44,0,.28.05.14,0,.27,0A11.3,11.3,0,0,1,648.22,120.78Z"/><path class="cls-7" d="M639.2,109.72l-.27,0-.14,0-.28-.05-.44,0-.26,0h0l-.37,0h-347a11.29,11.29,0,0,0-11.29,11.29v197h369.1v-197A11.3,11.3,0,0,0,639.2,109.72Zm-5.62,188.43a3.06,3.06,0,0,1-3.07,3.07H296.83a3.06,3.06,0,0,1-3.07-3.07V127.2a3.06,3.06,0,0,1,3.07-3.07H630.51a3.06,3.06,0,0,1,3.07,3.07Z"/><rect class="cls-4" x="293.76" y="124.13" width="339.82" height="177.09" rx="3.07"/><path class="cls-5" d="M633.58,127.2v16.13H293.76V127.2a3.06,3.06,0,0,1,3.07-3.07H630.51A3.06,3.06,0,0,1,633.58,127.2Z"/><path class="cls-8" d="M607.26,133.47a2.61,2.61,0,1,1-2.61-2.6A2.61,2.61,0,0,1,607.26,133.47Z"/><circle class="cls-9" cx="613.11" cy="133.47" r="2.61"/><rect class="cls-10" x="323.43" y="130.71" width="270.34" height="5.52" rx="2.43"/><path d="M306,133.47V136a.47.47,0,0,1-.71.41l-2.21-1.28-2.21-1.28a.47.47,0,0,1,0-.81l2.21-1.28,2.21-1.28a.47.47,0,0,1,.71.41Z"/><path d="M309.92,133.47V136a.47.47,0,0,0,.7.41l2.21-1.28,2.21-1.28a.46.46,0,0,0,0-.81l-2.21-1.28-2.21-1.28a.47.47,0,0,0-.7.41Z"/><rect class="cls-7" x="618.26" y="132.64" width="6.27" height="1.47" rx="0.65" transform="translate(87.69 478.46) rotate(-45)"/><rect class="cls-7" x="620.65" y="130.25" width="1.47" height="6.27" rx="0.65" transform="translate(87.69 478.46) rotate(-45)"/><rect class="cls-5" x="332.17" y="147.23" width="262.09" height="147.12" rx="6.42"/><path class="cls-4" d="M408,222.5H350.57a1.6,1.6,0,0,1-1.6-1.59h0a1.6,1.6,0,0,1,1.6-1.6H408a1.6,1.6,0,0,1,1.6,1.6h0A1.6,1.6,0,0,1,408,222.5Z"/><path class="cls-4" d="M408,209H350.57a1.6,1.6,0,0,1-1.6-1.6h0a1.6,1.6,0,0,1,1.6-1.6H408a1.6,1.6,0,0,1,1.6,1.6h0A1.6,1.6,0,0,1,408,209Z"/><path class="cls-4" d="M408,236H350.57a1.6,1.6,0,0,1-1.6-1.6h0a1.6,1.6,0,0,1,1.6-1.59H408a1.6,1.6,0,0,1,1.6,1.59h0A1.6,1.6,0,0,1,408,236Z"/><path class="cls-4" d="M584.59,222.5H527.13a1.59,1.59,0,0,1-1.59-1.59h0a1.59,1.59,0,0,1,1.59-1.6h57.46a1.59,1.59,0,0,1,1.6,1.6h0A1.59,1.59,0,0,1,584.59,222.5Z"/><path class="cls-4" d="M584.59,209H527.13a1.6,1.6,0,0,1-1.59-1.6h0a1.6,1.6,0,0,1,1.59-1.6h57.46a1.6,1.6,0,0,1,1.6,1.6h0A1.6,1.6,0,0,1,584.59,209Z"/><path class="cls-4" d="M584.59,236H527.13a1.6,1.6,0,0,1-1.59-1.6h0a1.59,1.59,0,0,1,1.59-1.59h57.46a1.59,1.59,0,0,1,1.6,1.59h0A1.6,1.6,0,0,1,584.59,236Z"/><path class="cls-7" d="M332.17,271.5H594.26V293a1.36,1.36,0,0,1-1.36,1.36H333.53a1.36,1.36,0,0,1-1.36-1.36Z"/><path class="cls-5" d="M568.52,280V278h2.42v-1.72h-3.29a.86.86,0,0,0-.86.86V280Z"/><path class="cls-5" d="M568.52,283.41h-1.73v2.95a.87.87,0,0,0,.86.86h3.29V285.5h-2.42Z"/><path class="cls-5" d="M576,280h1.73v-2.8a.86.86,0,0,0-.86-.86h-3.16V278H576Z"/><path class="cls-5" d="M576,283.41v2.09h-2.29v1.72h3.16a.87.87,0,0,0,.86-.86v-2.95Z"/><polygon class="cls-5" points="347.44 282.13 347.44 276.69 352.15 279.41 356.87 282.13 352.15 284.86 347.44 287.58 347.44 282.13"/><rect class="cls-5" x="371.49" y="277.24" width="2.92" height="9.91" rx="0.84"/><rect class="cls-5" x="377.6" y="277.24" width="2.92" height="9.91" rx="0.84"/><rect class="cls-4" x="332.17" y="267.2" width="262.09" height="4.3"/><rect class="cls-8" x="332.17" y="267.2" width="134.48" height="4.3"/><path class="cls-7" d="M552.35,250.49h3V257h4v2.3h-6.92Z"/><path class="cls-7" d="M560.08,250.49h3v8.77h-3Z"/><path class="cls-7" d="M573.83,250.49l-3.7,8.77h-2.91l-3.71-8.77h3.18l2.1,5.12,2.14-5.12Z"/><path class="cls-7" d="M581.41,257v2.23h-7.29v-8.77h7.13v2.23H577v1h3.71v2.13H577V257Z"/><path class="cls-8" d="M547.48,254.8a3.61,3.61,0,1,1-3.6-3.61A3.61,3.61,0,0,1,547.48,254.8Z"/><path class="cls-7" d="M364.18,257.24c0,2-1.9,3.3-4.62,3.3s-4.62-1.3-4.62-3.3a2.69,2.69,0,0,1,1.38-2.37,2.51,2.51,0,0,1-1-2c0-1.87,1.75-3.08,4.25-3.08s4.26,1.21,4.26,3.08a2.52,2.52,0,0,1-1,2A2.69,2.69,0,0,1,364.18,257.24Zm-3.49-.12a1.13,1.13,0,1,0-1.13,1.08A1,1,0,0,0,360.69,257.12ZM358.74,253a.83.83,0,1,0,1.65,0,.83.83,0,1,0-1.65,0Z"/><path class="cls-7" d="M364.83,255.15c0-3.41,1.94-5.39,4.67-5.39s4.66,2,4.66,5.39-1.94,5.39-4.66,5.39S364.83,258.57,364.83,255.15Zm5.84,0c0-2-.5-2.61-1.17-2.61s-1.18.62-1.18,2.61.5,2.61,1.18,2.61S370.67,257.14,370.67,255.15Z"/><path class="cls-8" d="M348.9,252.26a3.17,3.17,0,1,1-3.17-3.17A3.16,3.16,0,0,1,348.9,252.26Z"/><path class="cls-8" d="M351.65,260.27H339.81a6.13,6.13,0,0,1,5.83-3.76h.18A6.12,6.12,0,0,1,351.65,260.27Z"/><g class="cls-11"><path class="cls-12" d="M382.12,180.74s-1.58,9.67-8.7,11.4c-5.74,1.39-11.16-4.13-13-6.3-.45-.52-.69-.85-.69-.85a9,9,0,0,1-1.07,0c-1.5,0-4.16-.33-5.2-2.17-1.49-2.63,3.92-4.42,3.92-4.42s-2.77-2.48-2.08-4.28,4.4-2.14,4.4-2.14-4-2.6-2.66-4.86c2-3.41,6.16.34,6.49.54-.26-.3-5.45-5.67-2.61-6.63,2.48-.84,6.55,1.94,9.23,4.71.43.43.67.69.67.69l.44-.31c1.34-.9,5.46-3.3,8.08-1.11C382.48,167.7,382.12,180.74,382.12,180.74Z"/><path class="cls-13" d="M374.7,186.68a.61.61,0,0,1-.57,0,.58.58,0,0,1-.15-.79,5.05,5.05,0,0,0,.86-4.23c-.94-3.61-5.78-6.12-5.83-6.14a.57.57,0,0,1,.52-1c.22.11,5.34,2.77,6.4,6.87a6.14,6.14,0,0,1-1,5.14A.69.69,0,0,1,374.7,186.68Z"/><path class="cls-13" d="M369.76,172.75a1.75,1.75,0,0,1-.8,1.54,1.82,1.82,0,0,1-.37.18,3.58,3.58,0,0,1-1,.23,4.83,4.83,0,0,1,.72.59,2,2,0,0,1,.44.67,1.47,1.47,0,0,1-.25,1.42c-.91,1.2-3,1.7-4.71,1.9a6,6,0,0,1,2.64,2.67,1.77,1.77,0,0,1-.22,1.72,3.39,3.39,0,0,1-1.23.9,18.6,18.6,0,0,1-4.58,1.27c-.45-.52-.69-.85-.69-.85a9,9,0,0,1-1.07,0,.5.5,0,0,1,.29-.12c2.09-.25,5.67-1,6.38-1.91a.65.65,0,0,0,.05-.67c-.38-1.08-2.41-2.51-4.17-2.94a.57.57,0,0,1-.43-.62.56.56,0,0,1,.57-.49c1.4,0,5.24-.21,6.26-1.58.15-.2.11-.3.09-.36a1.9,1.9,0,0,0-.86-.78,13.85,13.85,0,0,0-3.34-1.26.56.56,0,0,1-.29-.17.58.58,0,0,1-.13-.51.58.58,0,0,1,.69-.42c.19.05.59.15,1.1.31a12.67,12.67,0,0,0,2.55.09,2.21,2.21,0,0,0,1-.26.64.64,0,0,0,.28-.6A3.52,3.52,0,0,0,368,171a.56.56,0,0,1,.05-.64h0a.55.55,0,0,1,.91.06A4.76,4.76,0,0,1,369.76,172.75Z"/><path class="cls-7" d="M365.62,162.18a15.34,15.34,0,0,1,2.64,1.94c.81.77,1.31,1.15,1.86,1.66h0l-10.85-46.06a.56.56,0,0,0-1.1.22l7.45,42.24Z"/><path class="cls-7" d="M375.06,187.76c-3.77,2.42-4.82.63-4.82.63l-1.91-10.82a1.66,1.66,0,0,0,.41-1.61,2,2,0,0,0-.44-.67,4.15,4.15,0,0,0-.44-.38l0-.24a3.2,3.2,0,0,0,.77-.2,1.82,1.82,0,0,0,.37-.18,1.74,1.74,0,0,0,.7-.91,2.83,2.83,0,0,0,1.69.75,3.33,3.33,0,0,0,.55,0Z"/><path class="cls-13" d="M378.33,170.87a19.06,19.06,0,0,1-3.71,2.48,6.36,6.36,0,0,1-3.27.79,2.81,2.81,0,0,1-2-1.16c-1.79-2.4-.26-5.54.81-7.2.43.43.67.69.67.69l.44-.31c-.92,1.37-2.47,4.2-1,6.15a1.69,1.69,0,0,0,1.26.7c2,.21,5.09-2.09,6.11-3a.56.56,0,0,1,.8,0A.58.58,0,0,1,378.33,170.87Z"/><path class="cls-14" d="M436.44,159.69v0h0v.06l0,.14-.07.33-.15.73c-.05.25-.11.51-.17.77s-.11.52-.17.78c-.24,1.05-.51,2.12-.79,3.19-.59,2.14-1.21,4.29-1.93,6.41s-1.48,4.21-2.34,6.27c-.43,1-.86,2.05-1.33,3.05s-.93,2-1.4,3c-1,2-2,3.9-3.15,5.77-.26.48-.56.93-.84,1.4s-.56.93-.87,1.38c-.6.89-1.18,1.81-1.81,2.68-1.22,1.77-2.57,3.43-3.91,5.09s-2.81,3.19-4.32,4.66L412,206.5l-1.17,1.06-.58.53-.15.13.07-.07.11-.08a2.61,2.61,0,0,1,.43-.31,7.11,7.11,0,0,1,2.11-1c.18,0,.33-.09.5-.12l.25,0,.21,0c.14,0,.29,0,.42,0h.6l.22,0h.14l.06,0h0c.16.06-.16,0-.65-.21a18.56,18.56,0,0,1-1.89-1c-.72-.43-1.5-.95-2.3-1.52-1.61-1.14-3.3-2.5-5-4s-3.38-3-5.07-4.63-3.38-3.29-5.05-5-3.33-3.45-5-5.23c-.83-.88-1.65-1.76-2.45-2.66l-2.36-2.58-18.22,13.67.6.92.58.85,1.15,1.67c.78,1.1,1.56,2.19,2.35,3.27,1.6,2.15,3.24,4.28,4.95,6.38s3.47,4.17,5.31,6.21c.93,1,1.87,2,2.84,3.05s2,2,3,3a84,84,0,0,0,6.71,5.86c1.23.95,2.53,1.9,4,2.83a40.86,40.86,0,0,0,4.8,2.7,29.28,29.28,0,0,0,6.56,2.24l.49.1.54.09,1.08.15c.38,0,.78.07,1.17.09l.6,0h.63l1.28,0c.45,0,.91-.08,1.37-.13l.68-.1.72-.14c.48-.1.95-.2,1.43-.34a19.65,19.65,0,0,0,5.55-2.59c.4-.28.8-.58,1.19-.88l.29-.24.26-.21.21-.19.84-.74,1.67-1.5c.54-.5,1.07-1,1.6-1.55a89,89,0,0,0,6.07-6.53c1.87-2.28,3.68-4.62,5.33-7.05s3.19-4.92,4.63-7.45l1-1.91c.34-.64.66-1.29,1-1.94s.66-1.29,1-2l.92-2a106.87,106.87,0,0,0,5.78-16.18c.74-2.76,1.39-5.54,1.9-8.37.25-1.42.49-2.85.68-4.3.05-.37.09-.73.13-1.1s.09-.74.13-1.13.08-.76.11-1.15l.11-1.39Z"/><path class="cls-15" d="M379.23,190.73a1.55,1.55,0,0,0,1.69,1.43,1.57,1.57,0,1,0-1.69-1.43Z"/><path class="cls-15" d="M411.9,217.74a.68.68,0,0,0,.65-.51,50.38,50.38,0,0,0,1.09-11.64.67.67,0,1,0-1.34,0,50.13,50.13,0,0,1-1.06,11.27.68.68,0,0,0,.49.82Z"/><path class="cls-15" d="M416.19,212.87a.66.66,0,0,0,.3-.07.67.67,0,0,0,.3-.9,53.47,53.47,0,0,0-3.29-5.81.67.67,0,1,0-1.05.83,55.85,55.85,0,0,1,3.14,5.58A.66.66,0,0,0,416.19,212.87Z"/><path class="cls-15" d="M374.4,203.77a.65.65,0,0,0,.48-.2c5.62-5.8,18.31-14.95,18.43-15a.66.66,0,0,0,.16-.93.68.68,0,0,0-.94-.16c-.13.1-12.91,9.32-18.61,15.21a.67.67,0,0,0,0,1A.69.69,0,0,0,374.4,203.77Z"/><path class="cls-15" d="M379.83,198.82a.66.66,0,0,0,.43-.16.67.67,0,0,0,.08-.94l-6.78-8.14a.67.67,0,0,0-.95-.09.68.68,0,0,0-.08.95l6.78,8.14A.69.69,0,0,0,379.83,198.82Z"/><path class="cls-7" d="M453,357.24l9.1-53.68.74-4.39-26.18-9.24-1.49-.53L429,287.2s-.5,2.29-1.27,6.24c-.1.48-.19,1-.3,1.5-2.45,12.7-7.06,38.87-8.31,62.3Z"/><path class="cls-6" d="M448.39,357.24c3.94-21.41,9-52.69,9.29-54.51a.71.71,0,0,0-1.4-.23c-.07.45-5.32,32.93-9.33,54.74Z"/><path class="cls-7" d="M506,270.06s2,18.7-2.28,29.11-59.32,5.05-73.35-4.32c-5.76-3.84,6.5-39.3,6.5-39.3Z"/><path class="cls-6" d="M427.4,295a16.67,16.67,0,0,0,2.43-.63,16.33,16.33,0,0,0,3.62-1.75,19.44,19.44,0,0,0,3.24-2.64c6.07-6.13,7.86-15.38,7.94-15.84a.71.71,0,0,0-1.39-.26c0,.11-1.88,9.74-8,15.57a16.78,16.78,0,0,1-2.52,2,15.25,15.25,0,0,1-3.46,1.65,15.65,15.65,0,0,1-1.53.41C427.59,293.92,427.49,294.42,427.4,295Z"/><path class="cls-6" d="M461.37,300.17a.69.69,0,0,0,.67.72h0a.7.7,0,0,0,.74-.65c.13-2.55.28-5.17.44-7.79l.09-1.38c.56-8.54,1.26-16.93,1.79-22.85,0-.48.09-.94.13-1.39.12-1.3.23-2.45.32-3.43l-1.4-.23c-.09,1-.2,2.14-.32,3.46,0,.44-.08.91-.13,1.39-.52,5.87-1.23,14.18-1.78,22.67l-.09,1.41C461.66,294.81,461.5,297.53,461.37,300.17Z"/><path class="cls-6" d="M459.36,291.16a19.55,19.55,0,0,0,2.47.94,11.77,11.77,0,0,0,1.39.35,10,10,0,0,0,1.34.18,4.86,4.86,0,0,0,2.37-.37,2.88,2.88,0,0,0,1.61-2.16c.51-2.64,1.59-13.52,2.32-21.22,0-.47.09-.94.13-1.38.12-1.24.22-2.36.31-3.31l-1.41-.17c-.09,1-.19,2.09-.31,3.34,0,.44-.09.9-.13,1.38-.73,7.68-1.8,18.55-2.3,21.1a1.5,1.5,0,0,1-.85,1.19,4.92,4.92,0,0,1-3,0,12.34,12.34,0,0,1-1.39-.38,14.85,14.85,0,0,1-1.94-.76.73.73,0,0,0-1,.31A.68.68,0,0,0,459.36,291.16Z"/><path class="cls-7" d="M499.17,357.24c2.18-19.93,4.7-46.59,6.12-62,0-.49.09-1,.13-1.42.63-6.81,1-11.11,1-11.11-3.37-1.4-9.5-.44-16,1.41-.47.14-1,.27-1.42.42a194.66,194.66,0,0,0-23.86,9.32v63.41Z"/><path class="cls-6" d="M495.84,357.24c1.88-22.15,4.11-54.15,4.14-54.57a.7.7,0,0,0-.65-.76.72.72,0,0,0-.76.66c0,.42-2.27,32.54-4.15,54.67Z"/><path class="cls-6" d="M485.08,274.09A37.16,37.16,0,0,0,489,284.5a22.84,22.84,0,0,0,7.27,8.07,16.58,16.58,0,0,0,9,2.64c0-.49.09-1,.13-1.42a15.19,15.19,0,0,1-8.39-2.41,21.09,21.09,0,0,1-6.62-7.29,36,36,0,0,1-3.93-10.25.71.71,0,0,0-1.4.25Z"/><path class="cls-14" d="M428.45,268.88c15.24,14.23,51.29,21.8,79.07,8.27,3.05-8.33,6.4-38.06,7.3-46.94.18-1.77.32-3.54.44-5.31a233.93,233.93,0,0,0,0-26.09c0-.49,0-1-.07-1.47-.36-7.39-.91-15.06-1.42-23.19-1-16.1-6.39-26-15.73-27.51a38.44,38.44,0,0,1-10.31-3.11l-.88-.44a28.92,28.92,0,0,1-4.72-2.92H461.33a15.81,15.81,0,0,1-6.48,5.42L454,146c-7.39,3.2-16,2.56-17.79,11.48-1.12,5.6,3.17,17.11,2.72,40.46,0,1.72-.09,3.49-.18,5.33s-.19,3.51-.33,5.36-.28,3.48-.46,5.3c-.16,1.59-.34,3.23-.54,4.91s-.44,3.48-.7,5.28C435.36,233.79,431.64,256.4,428.45,268.88Z"/><path class="cls-15" d="M499.84,273.75l-.17,0a.62.62,0,0,1-.43-.76c11.56-42.42,9.23-85.54,9.2-86a.64.64,0,0,1,.59-.66.62.62,0,0,1,.66.59c0,.43,2.37,43.75-9.25,86.36A.63.63,0,0,1,499.84,273.75Z"/><path class="cls-15" d="M437.07,218.65a.67.67,0,0,0,.66-.59c1.39-12.27,1.4-36.68,1.4-36.92a.67.67,0,0,0-1.34,0c0,.24,0,24.57-1.39,36.77a.67.67,0,0,0,.59.74Z"/><path class="cls-15" d="M465.6,264.86a1.57,1.57,0,1,0,1.43-1.7A1.58,1.58,0,0,0,465.6,264.86Z"/><path class="cls-15" d="M465.35,272.45a1.57,1.57,0,1,0,1.43-1.69A1.57,1.57,0,0,0,465.35,272.45Z"/><path class="cls-15" d="M447,188.88c-4.09-4.75-2.55-15.32-2.49-15.77a.67.67,0,0,1,.67-.57h13.87a.67.67,0,0,1,.66.57c.07.45,1.6,11-2.49,15.77a6.87,6.87,0,0,1-10.22,0Zm-1.23-15c-.26,2.24-.94,10.42,2.25,14.13a5.55,5.55,0,0,0,8.18,0c3.19-3.7,2.51-11.89,2.26-14.13Z"/><path class="cls-7" d="M484,88.82c-3.88-2.52-16.1-3.78-16.1-3.78s-2-5.28-4.28-6.79c-5.15-3.44-5.79,3.52-5.79,3.52s-5-7-9.56-5,1.26,8.55,1.26,8.55-6.8-1.26-6,4.53,7.29,8.31,7.29,8.31a12.68,12.68,0,0,0-1,8.55c1,5.29,3.27,5.54,3.27,5.54l28.18,2.52s5.79,0,7.3-7.3-3.52-10.32-3.52-10.32S488.32,91.58,484,88.82Z"/><path class="cls-12" d="M461,136.63v5.3a16.72,16.72,0,0,0,1.87,1.31c9.2,5.52,19.11-1.31,19.11-1.31V123.57l-18.48,11.5Z"/><path class="cls-7" d="M461,136.48v5.45a16.72,16.72,0,0,0,1.87,1.31c7.83-3.1,13.53-11.31,13.53-11.31l-12.9,3.14Z"/><path class="cls-14" d="M482,136.55a10.46,10.46,0,0,1,7.88,8.11c-6,6.31-11.35,11.78-20,13.38V145.37A22.38,22.38,0,0,0,482,136.55Z"/><path class="cls-14" d="M460.83,138.38s-5.53,1.18-7.68,8.25c5.57,6.78,8.55,9.33,16.71,11.41V145.37S465.31,145.3,460.83,138.38Z"/><polygon class="cls-7" points="457.71 236.83 461.29 245.48 461.29 245.48 462.9 249.36 467.45 260.34 469.64 256.1 470.42 254.6 472.18 251.2 472.95 249.7 474.72 246.3 475.49 244.8 477.25 241.4 477.25 241.4 478.03 239.9 479.69 236.71 479.65 236.36 479.39 233.83 478.81 228.08 478.55 225.54 477.96 219.8 477.71 217.26 477.12 211.52 476.86 208.99 476.28 203.24 476.02 200.7 475.44 194.96 475.18 192.42 474.59 186.68 474.33 184.14 473.75 178.4 473.49 175.86 472.91 170.11 472.65 167.58 472.05 161.64 467.65 161.47 467.53 162.46 467.26 164.47 466.66 169.03 466.39 171.04 465.79 175.6 465.53 177.61 464.93 182.17 464.66 184.18 464.06 188.74 463.79 190.75 463.19 195.31 462.93 197.32 462.32 201.88 462.06 203.89 461.46 208.45 461.19 210.46 460.59 215.02 460.32 217.03 459.72 221.59 459.46 223.61 458.86 228.16 458.59 230.18 457.99 234.74 457.72 236.75 457.71 236.83"/><polygon class="cls-6" points="467.26 164.47 472.91 170.11 472.65 167.58 467.53 162.46 467.26 164.47"/><polygon class="cls-6" points="466.39 171.04 473.75 178.4 473.49 175.86 466.66 169.03 466.39 171.04"/><polygon class="cls-6" points="465.53 177.61 474.59 186.68 474.33 184.14 465.79 175.6 465.53 177.61"/><polygon class="cls-6" points="464.66 184.18 475.44 194.96 475.18 192.42 464.93 182.17 464.66 184.18"/><polygon class="cls-6" points="463.79 190.75 476.28 203.24 476.02 200.7 464.06 188.74 463.79 190.75"/><polygon class="cls-6" points="462.93 197.32 477.12 211.52 476.86 208.99 463.19 195.31 462.93 197.32"/><polygon class="cls-6" points="462.06 203.89 477.96 219.8 477.71 217.26 462.32 201.88 462.06 203.89"/><polygon class="cls-6" points="461.19 210.46 478.81 228.08 478.55 225.54 461.46 208.45 461.19 210.46"/><polygon class="cls-6" points="460.32 217.03 479.65 236.36 479.39 233.83 460.59 215.02 460.32 217.03"/><polygon class="cls-6" points="459.46 223.61 477.25 241.4 478.03 239.9 459.72 221.59 459.46 223.61"/><polygon class="cls-6" points="458.59 230.18 474.72 246.3 475.49 244.8 458.86 228.16 458.59 230.18"/><polygon class="cls-6" points="457.72 236.75 472.18 251.2 472.95 249.7 457.99 234.74 457.72 236.75"/><polygon class="cls-6" points="461.29 245.48 462.9 249.36 469.64 256.1 470.42 254.6 461.29 245.48"/><polygon class="cls-6" points="472.05 161.64 469.86 164.89 467.66 161.47 467.27 164.39 469.83 166.99 472.28 163.9 472.05 161.64"/><polygon class="cls-7" points="475.72 156.19 469.86 164.89 464.25 156.19 469.86 148.91 475.72 156.19"/><path class="cls-15" d="M479.12,162.14a.66.66,0,0,0,.42-.15c5.79-4.62,10.73-16.57,10.94-17.07a.68.68,0,0,0-.37-.88.67.67,0,0,0-.87.37c-.05.12-4.7,11.37-10,16.08l-8.81-12a.68.68,0,0,0-.55-.28.67.67,0,0,0-.54.29l-8.23,11.68c-1.26-2.27-4.56-8.29-7.33-13.88a.68.68,0,0,0-1.21.6c3.51,7,7.84,14.79,7.89,14.87a.66.66,0,0,0,.55.34.68.68,0,0,0,.58-.28l8.31-11.8,8.69,11.81a.67.67,0,0,0,.45.26Z"/><path class="cls-15" d="M469.88,149.59a.67.67,0,0,0,.67-.67v-3a.68.68,0,0,0-1.35,0v3A.67.67,0,0,0,469.88,149.59Z"/><path class="cls-13" d="M454.4,113.17s-3-3.56-4.71,0-.39,10.74,4.19,9.56Z"/><path class="cls-12" d="M451.19,125.63s0,10.94,11.38,10.92,19-8.91,19.42-9.32h0l.12-2.3.64-11.94.35-6.39S484.56,95.1,473.64,93c-8-1.53-15.46-.2-19.24,4-.12.13-.24.27-.35.41a9.82,9.82,0,0,0-2.15,5.36l-.35,11.46-.09,2.81Z"/><path class="cls-7" d="M464.27,106s4.77,3.56,7.62,1.29-3.78-4.74-6-4.56S462.85,105.16,464.27,106Z"/><path class="cls-7" d="M459.07,106s-4.78,3.56-7.62,1.29,3.78-4.74,6-4.56S460.49,105.16,459.07,106Z"/><path class="cls-13" d="M462.83,127.06a4.75,4.75,0,0,0,3.26-1,.5.5,0,0,0-.66-.76,3.5,3.5,0,0,1-3.5.54.5.5,0,0,0-.41.92A4.34,4.34,0,0,0,462.83,127.06Z"/><path class="cls-5" d="M467.77,119.24s-6.95,1.4-10.46,1.08c0,0,1.31,5.17,6.48,3.87A5.19,5.19,0,0,0,467.77,119.24Z"/><path class="cls-7" d="M454.05,97.37c1.79-.63,3.08,0,5.86,1.18,4,1.77,8.52.18,12.5-1.85s6.36.79,5,2.65-1.2,3.36.3,5.72-2.84,3.47-.44,5.32a2.46,2.46,0,0,1,.54,3,1.64,1.64,0,0,0,1.84,2.17h0c1.3-.33,3.12-2.62,3.12-2.62l.35-6.39S484.56,95.1,473.64,93c-8-1.53-15.46-.2-19.24,4C454.28,97.09,454.16,97.23,454.05,97.37Z"/><path class="cls-13" d="M466.4,115.6c0,.8,1.64,1.44,3.66,1.44s3.67-.64,3.67-1.44-1.64-1.44-3.67-1.44S466.4,114.8,466.4,115.6Z"/><path class="cls-13" d="M451.46,117a8.38,8.38,0,0,0,.88,0c2,0,3.67-.64,3.67-1.44s-1.64-1.44-3.67-1.44c-.27,0-.54,0-.79,0Z"/><path class="cls-7" d="M464.81,111.21c0,1.1.5,2,1.11,2s1.11-.88,1.11-2-.5-2-1.11-2S464.81,110.12,464.81,111.21Z"/><path class="cls-7" d="M453.81,111.21c0,1.1.5,2,1.11,2s1.11-.88,1.11-2-.5-2-1.11-2S453.81,110.12,453.81,111.21Z"/><path class="cls-7" d="M478.43,122.79c.05.12,1.49,3.46,3.56,4.44h0l.13-2.3A7.89,7.89,0,0,1,478.43,122.79Z"/><path class="cls-12" d="M480.43,115.18s4.38-5.88,7.59-1.26c2.64,3.81-2.36,13.73-7.59,10.33Z"/><path class="cls-7" d="M481,122.48a.45.45,0,0,0,.45-.4,7.51,7.51,0,0,1,4.37-6.06.46.46,0,0,0,.25-.59.45.45,0,0,0-.58-.25,8.42,8.42,0,0,0-4.94,6.8.47.47,0,0,0,.4.5Z"/><path class="cls-7" d="M485.23,119.75a.42.42,0,0,0,.35-.16.46.46,0,0,0-.06-.64c-.18-.14-1.8-1.41-3.15-1.07a.45.45,0,0,0-.32.55.44.44,0,0,0,.55.32c.77-.2,2,.59,2.35.9A.44.44,0,0,0,485.23,119.75Z"/><path class="cls-7" d="M461.26,116.72a.45.45,0,0,0,0-.9,3.09,3.09,0,0,1-2.69-1.25c1.79-3.7,3.58-7.44,3.6-7.47a.46.46,0,0,0-.21-.6.44.44,0,0,0-.6.21s-1.88,3.91-3.71,7.68a.45.45,0,0,0,0,.39A3.86,3.86,0,0,0,461.26,116.72Z"/><path class="cls-12" d="M570.21,157.31s6.06,6.12,12,3.74c4.83-1.93,5.9-8.65,6.14-11.17.05-.6.06-1,.06-1a7,7,0,0,0,.78-.52c1.07-.78,2.82-2.35,2.63-4.21-.27-2.64-5.07-1.17-5.07-1.17s.73-3.19-.69-4.12-4.25.71-4.25.71,1.55-3.91-.57-4.85c-3.19-1.42-4.24,3.38-4.38,3.7,0-.35,1.56-15.08-1-14.32-2.21.66-4.25,13-4.76,16.32-.08.53-.12.83-.12.83h-.48c-1.42.05-5.59.42-6.36,3.33C563.3,148.13,570.21,157.31,570.21,157.31Z"/><path class="cls-13" d="M582.61,146.9a5.31,5.31,0,0,0-.52,3.27,1.54,1.54,0,0,0,1,1.12,3,3,0,0,0,1.34,0,15.93,15.93,0,0,0,3.93-1.43c.06-.6.07-1,.07-1a7,7,0,0,0,.78-.52.54.54,0,0,0-.27.07c-1.62.89-4.56,2.19-5.55,1.87a.59.59,0,0,1-.38-.44c-.27-1,.46-3,1.5-4.24a.5.5,0,0,0-.67-.73c-1,.73-3.86,2.52-5.29,2.07-.21-.07-.24-.17-.25-.22a1.68,1.68,0,0,1,.21-1,12.53,12.53,0,0,1,1.76-2.6.5.5,0,0,0,.12-.28.49.49,0,0,0-.16-.42.51.51,0,0,0-.71,0,14.12,14.12,0,0,0-1.79,2.59,4.33,4.33,0,0,0-.42,1.24,1.63,1.63,0,0,0,0,.7,1.27,1.27,0,0,0,.9.89C579.54,148.34,581.29,147.63,582.61,146.9Z"/><path class="cls-13" d="M575,142.72a.49.49,0,0,1,.36.43,3.24,3.24,0,0,0,.43,1.54.56.56,0,0,0,.51.28,1.76,1.76,0,0,0,.82-.3,14.14,14.14,0,0,0,2.66-2.2.47.47,0,0,1-.12.27,12.33,12.33,0,0,0-1.76,2.61l-.29.18a3.77,3.77,0,0,1-.91.38,1.51,1.51,0,0,1-.35.06,1.54,1.54,0,0,1-1.36-.7,4.24,4.24,0,0,1-.63-2.05.48.48,0,0,1,.62-.5Z"/><path class="cls-13" d="M567.89,148.29a16.35,16.35,0,0,0,3.93-.11,5.54,5.54,0,0,0,2.74-1.1,2.49,2.49,0,0,0,.88-1.87c.06-2.64-2.64-4.11-4.26-4.75-.08.53-.12.83-.12.83h-.48c1.36.51,3.91,1.76,3.87,3.89a1.52,1.52,0,0,1-.54,1.15c-1.33,1.17-4.72,1.1-5.91,1a.5.5,0,0,0-.55.44A.5.5,0,0,0,567.89,148.29Z"/><path class="cls-13" d="M578.56,157.78a.48.48,0,0,0,.38-.32.5.5,0,0,0-.29-.64,4.47,4.47,0,0,1-2.77-2.59c-1.17-3.08,1-7.34,1-7.38a.48.48,0,0,0-.21-.67.49.49,0,0,0-.67.21c-.1.19-2.42,4.71-1.09,8.19a5.39,5.39,0,0,0,3.35,3.17A.48.48,0,0,0,578.56,157.78Z"/><path class="cls-14" d="M504.78,150.16l10.37,9c1.65,1.55,3.32,3.09,5,4.61s3.33,3,5,4.55,3.33,3,5,4.46,3.33,2.89,5,4.26,3.28,2.71,4.82,3.85c.77.57,1.51,1.09,2.11,1.48l.4.26.17.1.06.05a.64.64,0,0,1,.12.14c.06.07.05.12.12.18a.86.86,0,0,0,.51.08,8,8,0,0,0,2.91-1.13,25.07,25.07,0,0,0,4-3,53,53,0,0,0,4.09-4.11,101.68,101.68,0,0,0,7.73-10c2.46-3.55,4.2-6.29,6.42-10.07a16.65,16.65,0,0,0,15.1,5.77,134.43,134.43,0,0,1-5.84,13.48,105,105,0,0,1-7.68,13.06,69.29,69.29,0,0,1-5,6.35,47,47,0,0,1-6.49,6.06,34.68,34.68,0,0,1-4.23,2.75,28.24,28.24,0,0,1-5.25,2.18,23.7,23.7,0,0,1-6.34,1,23.06,23.06,0,0,1-6.71-.85,24.64,24.64,0,0,1-3.1-1.1l-.72-.33-.61-.29-.57-.29-.54-.29c-1.41-.76-2.61-1.49-3.76-2.22-2.28-1.45-4.33-2.89-6.34-4.35s-3.92-2.94-5.81-4.42-3.76-3-5.59-4.49-3.65-3-5.44-4.57-3.57-3.1-5.33-4.65-3.5-3.14-5.23-4.73l-2.59-2.4-1.28-1.22-1.31-1.26Z"/><path class="cls-15" d="M514.67,192.68a.62.62,0,0,1-.36-.12c-6.84-4.79-19-14.88-19.12-15a.62.62,0,0,1-.09-.88.63.63,0,0,1,.88-.08c.13.1,12.25,10.16,19,14.92a.64.64,0,0,1,.16.87A.66.66,0,0,1,514.67,192.68Z"/><path class="cls-15" d="M500.52,181.76h-.09l-4.82-.71a.61.61,0,0,1-.53-.7.63.63,0,0,1,.71-.53l4.82.7a.62.62,0,0,1-.09,1.24Z"/><path class="cls-15" d="M580.28,168.49a.62.62,0,0,0,.32-.7.64.64,0,0,0-.75-.49c-9.08,2-13.6-6.68-13.64-6.76a.64.64,0,0,0-.86-.28h0a.63.63,0,0,0-.28.85c0,.1,5,9.62,15,7.44A1,1,0,0,0,580.28,168.49Z"/><path class="cls-15" d="M575.61,168.66a.65.65,0,0,0,.29-.32l3-7a.64.64,0,1,0-1.17-.5l-3,7a.64.64,0,0,0,.88.82Z"/><path class="cls-15" d="M570.26,162a1.1,1.1,0,1,0,.47-1.49A1.11,1.11,0,0,0,570.26,162Z"/><path class="cls-15" d="M541.46,190.94a.63.63,0,0,0,.33-.46,27.9,27.9,0,0,1,1.86-6.34.64.64,0,1,0-1.13-.58,27.54,27.54,0,0,0-2,6.71.63.63,0,0,0,.52.73A.68.68,0,0,0,541.46,190.94Z"/><path class="cls-15" d="M545.59,189.51l.12-.08a.65.65,0,0,0,.08-.9,11.74,11.74,0,0,1-2.22-4.24.63.63,0,1,0-1.24.26,12.88,12.88,0,0,0,2.48,4.8A.65.65,0,0,0,545.59,189.51Z"/></g><ellipse class="cls-4" cx="186.66" cy="463.19" rx="144.84" ry="8.81"/><path class="cls-12" d="M177.63,217.85l14.63,53.5-5.22-6a27.11,27.11,0,0,0,6.65,2.37,49.07,49.07,0,0,0,8,1c2.82.15,5.76.12,8.77,0s6.08-.35,9.19-.62h0a8.36,8.36,0,0,1,2,16.59c-3.22.51-6.49,1-9.85,1.38s-6.79.68-10.36.76a65.5,65.5,0,0,1-11.06-.61A45.61,45.61,0,0,1,178.8,283a9.09,9.09,0,0,1-5-5.45l-.18-.56L156,224.4a11.29,11.29,0,0,1,21.42-7.14C177.51,217.44,177.58,217.66,177.63,217.85Z"/><path class="cls-15" d="M183.26,411.79a1.82,1.82,0,0,1-.65-.12L106,384a1.93,1.93,0,0,1,1.31-3.64L183.92,408a1.93,1.93,0,0,1-.66,3.75Z"/><path class="cls-15" d="M103.43,411.79a1.93,1.93,0,0,1-.65-3.75L180.33,380a1.93,1.93,0,1,1,1.32,3.63l-77.56,28.09A1.92,1.92,0,0,1,103.43,411.79Z"/><path class="cls-14" d="M190.08,461.17a3.32,3.32,0,0,1-3.28-2.87L173,354.94H115L101.4,458.3a3.31,3.31,0,0,1-6.56-.87l14-106.23a3.31,3.31,0,0,1,3.28-2.88h63.72a3.31,3.31,0,0,1,3.28,2.87l14.23,106.23a3.31,3.31,0,0,1-2.84,3.72A3.25,3.25,0,0,1,190.08,461.17Z"/><path class="cls-14" d="M157.4,351.63H116c-13.11,0-27.15-7.18-29.17-20.13A246.12,246.12,0,0,1,84.24,282a60.28,60.28,0,0,1,22.85-44.41h0s8.27,36-2.13,85.76C108.93,342.23,157.4,351.63,157.4,351.63Z"/><path class="cls-7" d="M148.77,140.32s-4.92-11.86-17.94-9.63c-9.11,1.56-13,12.91-12.45,30.42.78,25.49-7.84,40.85-7.84,40.85l11.44,2.6S151.11,160.86,148.77,140.32Z"/><path class="cls-7" d="M253.15,416.88H234.66s-4.27-20.52-5.71-32-2.18-38.78-2.18-38.78-14.73,4.79-45.57,3c-68.33-4-42.42-54.19-42.42-54.19,2.31,3.19,16.45,1,26.11,2.5,29.67,2.85,55.4,14.49,70.84,21.15a77.48,77.48,0,0,1,9.92,5.09c3.72,2.29,6,9.25,7.45,18.41C257.32,369.53,253.15,416.88,253.15,416.88Z"/><path class="cls-6" d="M237,407a.65.65,0,0,1-.65-.53c-2.67-13.2-3.56-29.63-4.28-42.83-.6-10.95-1.16-21.28-2.57-22.53-1.14-1-5.87-.22-11.85.78-11.91,2-29.91,5-49.76.34-10.81-2.51-18.75-7.76-23.62-15.61-8.39-13.52-4.56-30.28-4.52-30.45a.65.65,0,0,1,.79-.49.66.66,0,0,1,.5.79c0,.17-3.74,16.42,4.36,29.47,4.67,7.52,12.34,12.57,22.79,15,19.59,4.56,37.43,1.6,49.24-.36,7.07-1.17,11.34-1.88,13-.46s2.23,9.1,3,23.45c.72,13.16,1.61,29.53,4.26,42.64a.66.66,0,0,1-.52.78Z"/><path class="cls-6" d="M253.5,407.34h0l-20.56-.44a.67.67,0,0,1-.65-.68.65.65,0,0,1,.68-.64l20.56.44a.66.66,0,0,1,0,1.32Z"/><polygon class="cls-12" points="252.64 440.56 239.59 440.56 237.08 425.26 235.7 416.88 251.91 416.88 252.17 425.26 252.64 440.56"/><polygon class="cls-14" points="252.64 440.56 239.59 440.56 237.72 429.17 237.08 425.26 252.17 425.26 252.3 429.31 252.64 440.56"/><polygon class="cls-15" points="252.3 429.31 237.72 429.17 237.08 425.26 252.17 425.26 252.3 429.31"/><path class="cls-16" d="M284.84,461.17H235.49a6.77,6.77,0,0,1-.65-2.74c-.31-4.17,1-10.84,1.67-15,.08-.49.15-.94.2-1.36a14.8,14.8,0,0,0,.15-1.72c0-3.42,3-2.84,3-2.84,5,4.9,10.64-2.44,13.95,0l.43.33,1.29,1.05c.84.7,2,1.72,3.62,3.16,3.91,3.53,10.58,5.85,16.25,8.23.72.3,1.39.6,2,.9l1.34.68c4.63,2.51,6.11,4.9,6.45,6.64A3.84,3.84,0,0,1,284.84,461.17Z"/><path class="cls-17" d="M278.8,451.79c-1.27,1-4.1,3-6.37,3h-.3c-1.6-.13-7.48-3-12.26-5.65-2.75-1.51-5.25-3-7.05-4.18-3-1.95-3.47-2.69-3.58-3.21-.44-1.95,2.78-3.31,5-4l1.29,1.05c-2.81.76-5.11,2-5,2.65.28.57,3.2,2.8,10.18,6.62,5.33,2.92,10.39,5.28,11.51,5.37,1.52.12,3.75-1.26,5.21-2.35Z"/><path class="cls-17" d="M284.84,461.17H235.49a6.77,6.77,0,0,1-.65-2.74h50.41A3.84,3.84,0,0,1,284.84,461.17Z"/><path class="cls-17" d="M240.52,461.17h-1.46a10.83,10.83,0,0,0,2.65-7.9,13.92,13.92,0,0,0-5.2-9.88c.08-.49.15-.95.2-1.36a15.15,15.15,0,0,1,6.18,11.18A12,12,0,0,1,240.52,461.17Z"/><path class="cls-5" d="M258.35,444.89a.81.81,0,0,1-.2-1.6l3.09-.77a.81.81,0,0,1,.39,1.58l-3.08.77Z"/><path class="cls-5" d="M255.29,442.33a.82.82,0,0,1-.2-1.61l3.08-.76a.81.81,0,1,1,.39,1.58l-3.08.76A.63.63,0,0,1,255.29,442.33Z"/><path class="cls-5" d="M261.43,446.68a.81.81,0,0,1-.19-1.6l3.08-.76a.81.81,0,1,1,.39,1.57l-3.08.77A.68.68,0,0,1,261.43,446.68Z"/><path class="cls-5" d="M264.51,448.41a.82.82,0,0,1-.19-1.61l3.08-.76a.81.81,0,1,1,.39,1.58l-3.08.76A.64.64,0,0,1,264.51,448.41Z"/><path class="cls-5" d="M267.88,450a.81.81,0,0,1-.2-1.6l3.08-.77a.81.81,0,0,1,.4,1.58l-3.09.77Z"/><path class="cls-5" d="M271.52,451.36a.82.82,0,0,1-.79-.62.81.81,0,0,1,.6-1l3.08-.77a.81.81,0,0,1,.39,1.58l-3.08.76A.69.69,0,0,1,271.52,451.36Z"/><path class="cls-17" d="M104.56,279s-.59,4,4.76,5.1L165,285.91a6.29,6.29,0,0,0,3.09-6.55S144.57,266.15,104.56,279Z"/><path class="cls-12" d="M165.76,297.36c-28.91,15.9-60.46,3.1-60.46,3.1a88.63,88.63,0,0,0,3.52-13.29c1-5,1.5-9.46,1.75-11.8,12.29-.67,42.42-1.95,54.23.85l.09,4.73Z"/><path class="cls-13" d="M144.41,289.74c-.22,1.49-.89,2.62-1.51,2.53s-.94-1.36-.72-2.85.88-2.63,1.5-2.54S144.62,288.25,144.41,289.74Z"/><path class="cls-13" d="M164.89,281c-12.3-.75-36.52-1-56.07,6.22,1-5,1.5-9.46,1.75-11.8,12.29-.67,42.42-1.95,54.23.85Z"/><path class="cls-16" d="M178.62,258.08a6.46,6.46,0,0,1-.41,1l-.18.35a27.51,27.51,0,0,1-5.95,7.13c-.42.36-.82.7-1.19,1-.75.61-1.37,1.07-1.81,1.38a7.62,7.62,0,0,1-.63.43v.09c0,.21,0,.44-.06.68-.07.91-.13,2-.18,3.23,0,1-.06,2.08-.09,3.25,0,.87,0,1.78,0,2.73-16.34-7.3-50-2.7-63.52-.41.25-1.18.47-2.32.68-3.44a106,106,0,0,0,1.71-14,147.8,147.8,0,0,0-1.53-25.15l-.27-1.87-.18-1.22c-.47-3-1-6.05-1.62-9-2.67-12.82-.79-26.27,12.2-27.86.94-.12,1.87-.22,2.77-.32,6.13-.65,11.17-.87,12.57-.93h.39l25.12,7.29,2.38.7c1.38.44,2.65.87,3.82,1.28l1.45.54c1.22.45,2.33.9,3.33,1.34a28.29,28.29,0,0,1,4.86,2.65c5.52,3.92,4.66,8.34,4.52,17.07v.11c0,.11,0,.22,0,.34v1.22c0,1.12.05,2.25.12,3.37.09,1.65.24,3.29.42,4.89.07.64.14,1.29.22,1.92s.15,1.19.23,1.78C178.74,247.31,180,254,178.62,258.08Z"/><path class="cls-17" d="M176.76,226.15c0,.11,0,.22,0,.34v1.22L171.47,231a.74.74,0,0,1-1-.23.74.74,0,0,1,.23-1l5.6-3.51A.78.78,0,0,1,176.76,226.15Z"/><path class="cls-17" d="M142,254.43a.73.73,0,0,1-.55-.25.74.74,0,0,1,.05-1l4.91-4.42a.74.74,0,0,1,1,1.1l-4.91,4.42A.77.77,0,0,1,142,254.43Z"/><path class="cls-17" d="M177.74,239.67l-3.37,3a.7.7,0,0,1-.49.19.75.75,0,0,1-.55-.24.73.73,0,0,1,.06-1l4.12-3.71C177.58,238.49,177.66,239.08,177.74,239.67Z"/><path class="cls-17" d="M132,236.65a.71.71,0,0,1-.12-.59.74.74,0,0,1,.89-.54L139.2,237a.74.74,0,0,1,.55.89.75.75,0,0,1-.89.55L132.43,237A.7.7,0,0,1,132,236.65Z"/><path class="cls-17" d="M109.05,249.27a.74.74,0,0,1-.49-1.29l4.91-4.42a.74.74,0,0,1,1,.06.73.73,0,0,1-.06,1l-4.91,4.42A.7.7,0,0,1,109.05,249.27Z"/><path class="cls-17" d="M166.21,248.22a.79.79,0,0,1,.41-.45.74.74,0,0,1,1,.39l2.64,6.05a.74.74,0,0,1-.38,1,.72.72,0,0,1-1-.38l-2.64-6.06A.72.72,0,0,1,166.21,248.22Z"/><path class="cls-17" d="M178.62,258.08a6.46,6.46,0,0,1-.41,1l-.18.35-3.59-1.13A.78.78,0,0,1,174,258a.74.74,0,0,1,.86-1.08Z"/><path class="cls-17" d="M158.34,258.61a.71.71,0,0,1,.57.19.72.72,0,0,1,.05,1l-4.44,4.89a.72.72,0,0,1-1,0,.74.74,0,0,1,0-1l4.44-4.89A.77.77,0,0,1,158.34,258.61Z"/><path class="cls-17" d="M155.73,247.33a.74.74,0,0,1-.5-.33.75.75,0,0,1,.23-1l5.6-3.51a.74.74,0,1,1,.78,1.25l-5.59,3.51A.75.75,0,0,1,155.73,247.33Z"/><path class="cls-17" d="M159.3,226.05a.77.77,0,0,1,.18.57.75.75,0,0,1-.81.66l-6.57-.72a.73.73,0,0,1-.65-.81.73.73,0,0,1,.81-.66l6.57.72A.76.76,0,0,1,159.3,226.05Z"/><path class="cls-17" d="M149.75,211.8a.7.7,0,0,1,.36-.47.74.74,0,0,1,1,.3l3.13,5.82a.75.75,0,0,1-.3,1,.74.74,0,0,1-1-.3l-3.13-5.82A.71.71,0,0,1,149.75,211.8Z"/><path class="cls-17" d="M172.08,266.57c-.42.36-.82.7-1.19,1l-.87-2.2a.72.72,0,0,1,0-.52.74.74,0,0,1,.42-.43.73.73,0,0,1,.95.41Z"/><path class="cls-17" d="M111.68,255.37a.71.71,0,0,1-.05-.59.75.75,0,0,1,1-.45l6.21,2.24a.74.74,0,1,1-.5,1.39l-6.21-2.24A.69.69,0,0,1,111.68,255.37Z"/><path class="cls-17" d="M114.72,263.78a.74.74,0,0,1,.48,1.29l-4.94,4.37a.74.74,0,1,1-1-1.1l5-4.38A.76.76,0,0,1,114.72,263.78Z"/><path class="cls-17" d="M123.69,270.73a.79.79,0,0,1,.15.58.74.74,0,0,1-.85.6l-6.52-1.11a.73.73,0,0,1-.6-.85.74.74,0,0,1,.85-.6l6.52,1.11A.73.73,0,0,1,123.69,270.73Z"/><path class="cls-17" d="M129.14,208.87a.7.7,0,0,1,.09-.59.74.74,0,0,1,1-.22l5.55,3.58a.74.74,0,0,1-.8,1.24l-5.55-3.58A.73.73,0,0,1,129.14,208.87Z"/><path class="cls-17" d="M167,213.09a.74.74,0,0,1,1,.9l-2.21,6.22a.74.74,0,0,1-1.39-.49l2.21-6.23A.79.79,0,0,1,167,213.09Z"/><path class="cls-17" d="M164.05,205l-3.41,4.37a.73.73,0,0,1-1.16-.9l3.12-4Z"/><path class="cls-17" d="M130.68,265.41a.62.62,0,0,0,.46.4.51.51,0,0,0,.3,0A34.81,34.81,0,0,1,153.49,267a37.73,37.73,0,0,0,14.9,3.19c0-.24,0-.47.06-.68v-.09a7.62,7.62,0,0,0,.63-.43A35.69,35.69,0,0,1,154,265.84a35.32,35.32,0,0,0-22.88-1.19A.61.61,0,0,0,130.68,265.41Z"/><path class="cls-17" d="M156.39,202.46c-1.4,2.19-4.31,4.66-10.19,4.23-8.11-.59-13.45-8.33-15.31-11.51h.38Z"/><path class="cls-5" d="M147.77,216.82a4.33,4.33,0,0,0,.71.1,6.26,6.26,0,0,0,5.4-1.93c3.9-4.26,2.3-14,2.23-14.39a.61.61,0,0,0-.69-.49.6.6,0,0,0-.49.69c0,.1,1.57,9.55-1.93,13.38a5.08,5.08,0,0,1-4.42,1.55c-7.86-.64-16.67-20.6-16.75-20.8a.6.6,0,0,0-1.11.48C131.08,196.24,139.44,215.13,147.77,216.82Z"/><path class="cls-12" d="M172.25,209a43.79,43.79,0,0,0,4.61,22.11c-.08-1.48-.12-3-.11-4.44v-.15c0-.15,0-.3,0-.45C176.9,217.31,177.75,212.88,172.25,209Z"/><path class="cls-12" d="M126,219.11c-2.88,11.12-13.42,20-20.62,17.26l-.27-1.87-.18-1.22c-.47-3-1-6.05-1.62-9-2.67-12.82-.79-26.27,12.2-27.86.94-.12,1.87-.22,2.77-.32C124.83,198.88,129.36,206.31,126,219.11Z"/><path class="cls-12" d="M127.52,210.63l16.89,61.74-6-6.94a30.39,30.39,0,0,0,7.67,2.74,55.76,55.76,0,0,0,9.22,1.18c3.26.17,6.65.14,10.12,0s7-.41,10.61-.71h0a9.65,9.65,0,0,1,2.34,19.15c-3.71.59-7.49,1.15-11.36,1.6s-7.84.78-11.95.88a77.87,77.87,0,0,1-12.78-.71,53.1,53.1,0,0,1-13.4-3.7,10.48,10.48,0,0,1-5.81-6.3l-.21-.64L102.6,218.19A13,13,0,0,1,127.32,210C127.39,210.16,127.46,210.42,127.52,210.63Z"/><path class="cls-13" d="M135.08,270.4a.49.49,0,0,1-.43-.26.49.49,0,0,1,.18-.68,21.14,21.14,0,0,1,7.71-2.47.5.5,0,0,1,.54.46.5.5,0,0,1-.46.54,20.41,20.41,0,0,0-7.29,2.34A.47.47,0,0,1,135.08,270.4Z"/><path class="cls-13" d="M141.22,268.17a.59.59,0,0,1-.26-.07,13,13,0,0,0-5.18-1.63.5.5,0,0,1-.46-.54.49.49,0,0,1,.53-.46,14,14,0,0,1,5.63,1.77.5.5,0,0,1-.26.93Z"/><path class="cls-17" d="M156.27,235.63c7.47,1.51,10.74-6.22,10.78-6.29a.61.61,0,0,0-.33-.79.6.6,0,0,0-.79.33c-.12.29-2.93,6.88-9.42,5.57-6.81-1.38-19.5-14.78-19.63-14.91a.6.6,0,0,0-.85,0,.61.61,0,0,0,0,.85C136.53,220.93,149.1,234.17,156.27,235.63Z"/><path class="cls-7" d="M144.53,187s-12-2.26-15.38-14.36c-3.22-11.52-.74-17.5,2.61-23.72,2.52-4.69,10.52-11,21.73-8.75s19.79,8.11,21,17.42C176.87,175,162.82,196.26,144.53,187Z"/><path class="cls-14" d="M129.72,174.51a.64.64,0,0,1-.54-.32,27.13,27.13,0,0,1-1.07-21.39,19.53,19.53,0,0,1,11.63-12.28,21,21,0,0,1,7.85-1.45.63.63,0,0,1-.07,1.25h0a20,20,0,0,0-7.37,1.38,18.16,18.16,0,0,0-10.86,11.51,26.36,26.36,0,0,0,1,20.36.64.64,0,0,1-.24.86A.68.68,0,0,1,129.72,174.51Z"/><path class="cls-13" d="M167.78,174.7s3.9-3.08,4.93,1-1.87,11.34-6.41,9.13Z"/><path class="cls-14" d="M164,182.2a6.24,6.24,0,0,0-4.09,4.49A5.88,5.88,0,1,0,169,183a5.73,5.73,0,0,0-2.16-.92h-.06a1,1,0,0,0,.17,1,4.78,4.78,0,0,1,1.72.85,5,5,0,1,1-7.86,3,4.83,4.83,0,0,1,3.65-3.78Z"/><path class="cls-12" d="M156,192.19l-1.63,10.21s-7.65,7.81-21.62-6.2c3.75-2.79,5.18-9.26,4.74-13.45a20.25,20.25,0,0,1,2.8,2.2,12.57,12.57,0,0,0,1.17.82C145.11,188.28,150.77,191.55,156,192.19Z"/><path class="cls-7" d="M156,192.19l-.78,4.84c-4.19-1.87-11.59-5.86-14.93-12.08l1.17.82C145.11,188.28,150.77,191.55,156,192.19Z"/><path class="cls-12" d="M171.56,172.24c-.22,1.08-.42,2.11-.63,3.09s-.43,2.06-.63,3c-1.55,7.07-2.83,10.86-4.89,12.28-10.43,7.17-27.4-7.35-27.95-7.82h0c0-.84,0-1.66,0-2.47a64,64,0,0,1,3.16-18.78,14.43,14.43,0,0,1,12-12.18c6.46-1,11.32,2.77,14.36,4.43C171.56,156.28,173.36,163.23,171.56,172.24Z"/><path class="cls-7" d="M141,155.12s7.3-14,21.86-10.12,15.33,10.68,15.59,14.06-7.54-2.61-7.54-2.61-.27,6.77-2.87,4.68c-3.19-2.55-6.75-8.07-6.75-8.07s-8.67,8.53-16.92,6.23C139.66,158,141,155.12,141,155.12Z"/><path class="cls-13" d="M158.85,186a4.89,4.89,0,0,1-3.25-1.38.52.52,0,0,1,.75-.72,3.59,3.59,0,0,0,3.55.88.52.52,0,1,1,.33,1A4.34,4.34,0,0,1,158.85,186Z"/><path class="cls-5" d="M154.5,177.51s7,2.08,10.66,2.08c0,0-1.82,5.2-7,3.38A5.35,5.35,0,0,1,154.5,177.51Z"/><path class="cls-7" d="M167.53,162.89s-1.83-.18-1.53,1.58,4.25.69,6.21,4.23C172.21,168.7,174.1,165,167.53,162.89Z"/><path class="cls-7" d="M159.42,161.25s1.76.54.8,2.05-4.19-1-7.37,1.48C152.85,164.78,152.56,160.63,159.42,161.25Z"/><path class="cls-13" d="M156.26,173.92c-.17.84-2,1.17-4.15.74s-3.7-1.46-3.53-2.29,2-1.17,4.14-.74S156.43,173.09,156.26,173.92Z"/><path class="cls-5" d="M177,174.47l-5.67-1c0,.24-.09.47-.14.71,0,0,0,.08,0,.11l5.71,1a.43.43,0,0,0,.49-.35A.42.42,0,0,0,177,174.47Z"/><path class="cls-5" d="M161.84,169.63a5.08,5.08,0,0,0-.05-.87,7.17,7.17,0,0,0-5.57-6.12l-.07,0a7.18,7.18,0,0,0-8,4,7.54,7.54,0,0,0-.3.79c-.08.24-.14.49-.2.74a7.1,7.1,0,0,0,2.05,6.59,7,7,0,0,0,3.5,1.85,7.16,7.16,0,0,0,8.45-5.55v0A7.49,7.49,0,0,0,161.84,169.63Zm-8.41,6.15-.11,0a6.31,6.31,0,0,1-4.79-7.42,7.11,7.11,0,0,1,.27-.93.14.14,0,0,0,0-.06,6.31,6.31,0,0,1,5.5-4,6.16,6.16,0,0,1,1.65.12,6.24,6.24,0,0,1,3.07,1.61,6.29,6.29,0,0,1-5.61,10.72Z"/><path class="cls-5" d="M174.55,166.71a7.33,7.33,0,0,0-1.34-.54,5.29,5.29,0,0,0-.54-.13,7.07,7.07,0,0,0-1-.14,8,8,0,0,0-1.2,0,7.16,7.16,0,0,0-5.46,3.59,5.82,5.82,0,0,0-.41.83l0,.05a6.55,6.55,0,0,0-.35,1.19,7.14,7.14,0,0,0,2.63,7.09,6.92,6.92,0,0,0,2.32,1.2l.4.1.2.05a7,7,0,0,0,2,.12l.32,0A7.88,7.88,0,0,0,173,180a7.24,7.24,0,0,0,1.53-.59,7.14,7.14,0,0,0,0-12.65Zm2.84,7.6c0,.13-.06.27-.1.4a5.05,5.05,0,0,1-.18.55,6.42,6.42,0,0,1-3.93,3.76,5.86,5.86,0,0,1-.92.22l-.27,0a6.38,6.38,0,0,1-2-.08l-.19,0-.12,0A6.23,6.23,0,0,1,167,177.7c-.1-.09-.21-.19-.31-.3a6.27,6.27,0,0,1-1.63-5.64,5.48,5.48,0,0,1,.44-1.35,6.28,6.28,0,0,1,3.06-3.08,6.36,6.36,0,0,1,2.67-.6l.45,0a8,8,0,0,1,.82.11c.19,0,.39.09.57.15a5.7,5.7,0,0,1,.76.29c.2.09.39.19.57.29A6.31,6.31,0,0,1,177.39,174.31Z"/><path class="cls-5" d="M139.17,167.93a.35.35,0,0,1-.14-.06.42.42,0,0,1-.13-.59c2.84-4.43,9.67-.45,9.73-.41a.42.42,0,0,1-.43.73c-.06,0-6.19-3.61-8.59.14A.43.43,0,0,1,139.17,167.93Z"/><path class="cls-5" d="M164.91,170.6a.45.45,0,0,1-.27-.19c-.9-1.4-2.85-.77-2.87-.76a.43.43,0,0,1-.26-.81,3.36,3.36,0,0,1,3.84,1.11.42.42,0,0,1-.12.59A.45.45,0,0,1,164.91,170.6Z"/><g class="cls-2"><path class="cls-13" d="M170.93,175.33c-.21,1.06-.43,2.06-.63,3-1.93-.46-3.32-1.42-3.16-2.2S169,175,170.93,175.33Z"/></g><path class="cls-7" d="M157.75,169.73c-.23,1.15-.94,2-1.58,1.84s-1-1.16-.74-2.31.94-2,1.58-1.84S158,168.58,157.75,169.73Z"/><path class="cls-7" d="M169.09,172c-.23,1.14-.94,2-1.58,1.84s-1-1.17-.74-2.31.94-2,1.58-1.84S169.32,170.88,169.09,172Z"/><path class="cls-7" d="M163.23,175.11a4.35,4.35,0,0,0,1,.09.46.46,0,0,0,.34-.18.45.45,0,0,0,.11-.37l-.73-5.35a.48.48,0,0,0-1,.13l.65,4.77a3.83,3.83,0,0,1-1.84-.81.48.48,0,1,0-.62.74A4.71,4.71,0,0,0,163.23,175.11Z"/><path class="cls-7" d="M142.14,178.89c-.08.12-2.3,3.31-4.67,3.9h0c0-.84,0-1.66,0-2.47A9,9,0,0,0,142.14,178.89Z"/><path class="cls-12" d="M141.65,170.51s-3.34-7.08-7.67-2.93c-3.58,3.43-.45,14.88,5.75,12.43Z"/><path class="cls-14" d="M133.44,176.62a6.18,6.18,0,0,0-4.09,4.49,5.88,5.88,0,1,0,9.08-3.68,5.83,5.83,0,0,0-2.15-.91h-.06a1,1,0,0,0,.16,1,5,5,0,1,1-6.13,3.81,4.81,4.81,0,0,1,3.65-3.77Z"/><path class="cls-7" d="M139.47,178h.06a.47.47,0,0,0,.52-.43,9,9,0,0,0-3.72-8.17.47.47,0,0,0-.67.14.48.48,0,0,0,.14.66h0a8,8,0,0,1,3.29,7.28A.49.49,0,0,0,139.47,178Z"/><path class="cls-7" d="M135.65,174.28a.51.51,0,0,0,.32-.05c.48-.25,1.89-.81,2.66-.44a.48.48,0,0,0,.42-.87c-1.35-.65-3.31.34-3.53.46a.49.49,0,0,0-.2.65A.51.51,0,0,0,135.65,174.28Z"/><path class="cls-7" d="M146,158.5s-4.49,12.19-4.73,14.64c-.34,3.35-4.76-8.12-.31-17.93Z"/><path class="cls-7" d="M221,416.94H202.48s-4.28-20.52-5.71-32-2.18-38.79-2.18-38.79-14.74,4.79-45.57,3c-68.33-4-42.42-54.2-42.42-54.2,2.3,3.19,19.62,7.59,29.29,9.11,29.66,2.85,52.21,7.88,67.66,14.55a77.33,77.33,0,0,1,9.91,5.08c3.73,2.3,6.06,9.26,7.46,18.41C225.14,369.6,221,416.94,221,416.94Z"/><path class="cls-6" d="M204.77,407.06a.65.65,0,0,1-.64-.53c-2.67-13.2-3.57-29.63-4.29-42.84-.59-10.94-1.16-21.28-2.56-22.52-1.14-1-5.87-.22-11.86.77-11.91,2-29.9,5-49.75.35-10.81-2.52-18.76-7.77-23.62-15.61-8.39-13.52-4.56-30.29-4.53-30.46a.68.68,0,0,1,.8-.49.65.65,0,0,1,.49.8c0,.16-3.73,16.41,4.37,29.46,4.67,7.53,12.34,12.58,22.79,15,19.59,4.56,37.43,1.59,49.24-.37,7.07-1.17,11.33-1.88,12.94-.45s2.23,9.09,3,23.44c.71,13.16,1.61,29.54,4.25,42.64a.66.66,0,0,1-.51.78Z"/><path class="cls-6" d="M221.32,407.4h0L200.75,407a.66.66,0,1,1,0-1.32l20.55.44a.66.66,0,0,1,0,1.32Z"/><polygon class="cls-12" points="220.46 440.63 207.41 440.63 204.9 425.32 203.52 416.94 219.73 416.94 219.99 425.32 220.46 440.63"/><polygon class="cls-14" points="220.46 440.63 207.41 440.63 205.54 429.23 204.9 425.32 219.99 425.32 220.11 429.38 220.46 440.63"/><polygon class="cls-15" points="220.11 429.38 205.54 429.23 204.9 425.32 219.99 425.32 220.11 429.38"/><path class="cls-16" d="M252.66,461.24H203.3a7,7,0,0,1-.64-2.74c-.31-4.18,1-10.84,1.67-15,.08-.49.15-.95.2-1.37a14.66,14.66,0,0,0,.15-1.71c0-3.43,3-2.84,3-2.84,5,4.9,10.65-2.45,13.95,0l.44.34c.28.21.7.55,1.28,1,.84.71,2,1.73,3.62,3.16,3.92,3.53,10.58,5.86,16.26,8.23q1.08.45,2,.9c.48.23.92.46,1.34.69,4.64,2.5,6.12,4.9,6.45,6.64A3.89,3.89,0,0,1,252.66,461.24Z"/><path class="cls-17" d="M246.61,451.86c-1.27,1-4.09,3-6.36,3H240c-1.6-.13-7.48-3-12.27-5.65-2.74-1.51-5.24-3-7.05-4.18-2.95-1.95-3.46-2.69-3.58-3.21-.43-1.94,2.79-3.3,5-4,.28.21.7.55,1.28,1-2.8.77-5.11,2-5,2.65.28.58,3.2,2.8,10.18,6.63,5.33,2.91,10.38,5.27,11.5,5.36,1.52.13,3.76-1.26,5.21-2.35C245.75,451.4,246.19,451.63,246.61,451.86Z"/><path class="cls-17" d="M252.66,461.24H203.3a7,7,0,0,1-.64-2.75h50.4A3.9,3.9,0,0,1,252.66,461.24Z"/><path class="cls-17" d="M208.34,461.24h-1.47a10.83,10.83,0,0,0,2.66-7.91,13.93,13.93,0,0,0-5.2-9.87c.08-.49.15-.95.2-1.37a15.14,15.14,0,0,1,6.17,11.18A12,12,0,0,1,208.34,461.24Z"/><path class="cls-5" d="M226.17,445a.82.82,0,0,1-.2-1.61l3.08-.76a.81.81,0,1,1,.4,1.58l-3.09.76A.63.63,0,0,1,226.17,445Z"/><path class="cls-5" d="M223.1,442.39a.83.83,0,0,1-.79-.62.81.81,0,0,1,.6-1L226,440a.81.81,0,0,1,.39,1.58l-3.08.76A.69.69,0,0,1,223.1,442.39Z"/><path class="cls-5" d="M229.25,446.75a.81.81,0,0,1-.79-.62.8.8,0,0,1,.59-1l3.09-.77a.81.81,0,0,1,.39,1.58l-3.08.76Z"/><path class="cls-5" d="M232.33,448.47a.82.82,0,0,1-.79-.62.81.81,0,0,1,.6-1l3.08-.77a.81.81,0,0,1,.39,1.58l-3.08.77Z"/><path class="cls-5" d="M235.69,450.06a.81.81,0,0,1-.19-1.6l3.08-.76a.81.81,0,1,1,.39,1.57l-3.08.77A.68.68,0,0,1,235.69,450.06Z"/><path class="cls-5" d="M239.34,451.42a.81.81,0,0,1-.2-1.6l3.09-.77a.81.81,0,0,1,.39,1.58l-3.09.77Z"/><path class="cls-18" d="M289.07,294.19v4.09c0,2.36-1.43,4.27-3.19,4.27H64.42c-1.76,0-3.18-1.91-3.18-4.27v-4.09c0-2.36,1.42-4.27,3.18-4.27H285.88C287.64,289.92,289.07,291.83,289.07,294.19Z"/><rect class="cls-19" x="61.24" y="295.49" width="227.83" height="1.88"/><path class="cls-19" d="M282.41,313.09H74.24a1.69,1.69,0,0,1-1.69-1.69v-8.9H284.1v8.9A1.69,1.69,0,0,1,282.41,313.09Z"/><rect class="cls-19" x="86.89" y="365.33" width="186.17" height="7.26"/><polygon class="cls-18" points="73.47 462.53 109.51 313.09 96.86 313.09 60.81 462.53 73.47 462.53"/><polygon class="cls-18" points="286.24 462.53 250.19 313.09 262.85 313.09 298.89 462.53 286.24 462.53"/><rect class="cls-14" x="79.79" y="255.69" width="3.95" height="29.81" transform="translate(-40.04 15.5) rotate(-8.71)"/><polygon class="cls-12" points="81.46 255.56 77.56 256.16 78.42 253.18 78.86 251.63 79.75 252.97 81.46 255.56"/><rect class="cls-7" x="81.88" y="283.17" width="3.95" height="2.17" transform="translate(-42.08 15.98) rotate(-8.71)"/><path class="cls-8" d="M86,286.77l-3.39.52a.27.27,0,0,1-.3-.22l-.22-1.45L86,285l.22,1.44A.26.26,0,0,1,86,286.77Z"/><polygon class="cls-7" points="79.75 252.97 78.42 253.18 78.86 251.63 79.75 252.97"/><rect class="cls-15" x="81.6" y="281.64" width="3.95" height="1.55" transform="translate(-41.79 15.91) rotate(-8.71)"/><path class="cls-15" d="M78.75,257.46l3.34,21.82a.31.31,0,0,0,.35.26h0a.31.31,0,0,0,.25-.35l-3.34-21.82a.31.31,0,0,0-.35-.25h0A.3.3,0,0,0,78.75,257.46Z"/><path class="cls-15" d="M80.28,257.23l3.34,21.82a.31.31,0,0,0,.35.25h0a.31.31,0,0,0,.25-.34l-3.34-21.82a.31.31,0,0,0-.35-.26h0A.31.31,0,0,0,80.28,257.23Z"/><rect class="cls-18" x="84.63" y="255.7" width="3.95" height="29.81" transform="translate(-0.89 0.29) rotate(-0.19)"/><polygon class="cls-12" points="88.53 255.7 84.58 255.71 85.87 252.89 86.54 251.42 87.22 252.88 88.53 255.7"/><rect class="cls-7" x="84.67" y="283.35" width="3.95" height="2.17" transform="translate(-0.93 0.29) rotate(-0.19)"/><path class="cls-8" d="M88.37,287.23H84.94a.26.26,0,0,1-.26-.26v-1.46h4V287A.26.26,0,0,1,88.37,287.23Z"/><polygon class="cls-7" points="87.22 252.88 85.87 252.89 86.54 251.42 87.22 252.88"/><rect class="cls-19" x="84.66" y="281.79" width="3.95" height="1.55" transform="translate(-0.93 0.29) rotate(-0.19)"/><path class="cls-19" d="M85.56,257.18l.08,22.07a.29.29,0,0,0,.3.3h0a.3.3,0,0,0,.3-.3l-.07-22.08a.31.31,0,0,0-.3-.3h0A.31.31,0,0,0,85.56,257.18Z"/><path class="cls-19" d="M87.11,257.17l.07,22.07a.3.3,0,0,0,.31.3h0a.3.3,0,0,0,.3-.3l-.08-22.07a.29.29,0,0,0-.3-.3h0A.3.3,0,0,0,87.11,257.17Z"/><rect class="cls-16" x="76.39" y="268.62" width="29.81" height="3.95" transform="translate(-189.45 322.93) rotate(-81.91)"/><polygon class="cls-12" points="95.35 256.12 91.44 255.56 93.12 252.95 94 251.6 94.46 253.14 95.35 256.12"/><rect class="cls-7" x="87.38" y="283.2" width="3.95" height="2.17" transform="translate(40.87 -9.74) rotate(8.09)"/><path class="cls-8" d="M90.66,287.3l-3.4-.48a.26.26,0,0,1-.22-.3l.21-1.45,3.91.56L91,287.08A.26.26,0,0,1,90.66,287.3Z"/><polygon class="cls-7" points="94.46 253.14 93.12 252.95 94 251.6 94.46 253.14"/><rect class="cls-17" x="88.84" y="280.46" width="1.55" height="3.95" transform="translate(-202.62 331.42) rotate(-81.91)"/><path class="cls-17" d="M92.2,257.15,89.1,279a.3.3,0,0,0,.26.34h0a.31.31,0,0,0,.34-.26l3.1-21.85a.29.29,0,0,0-.25-.34h0A.31.31,0,0,0,92.2,257.15Z"/><path class="cls-17" d="M93.74,257.37l-3.11,21.85a.31.31,0,0,0,.26.35h0a.31.31,0,0,0,.34-.26l3.1-21.86a.3.3,0,0,0-.25-.34h0A.3.3,0,0,0,93.74,257.37Z"/><polygon class="cls-8" points="96.64 267.49 96.43 269.09 96.24 270.54 95.96 272.74 95.77 274.18 95.49 276.4 95.3 277.82 95.01 280.06 94.83 281.46 94.54 283.72 94.36 285.1 94.07 287.38 93.89 288.74 93.74 289.92 78.2 289.92 78.05 288.74 77.87 287.38 77.58 285.1 77.4 283.72 77.11 281.46 76.93 280.06 76.64 277.82 76.46 276.4 76.17 274.18 75.98 272.74 75.7 270.54 75.51 269.09 75.31 267.49 96.64 267.49"/><polygon class="cls-20" points="96.43 269.09 96.24 270.54 75.7 270.54 75.51 269.09 96.43 269.09"/><polygon class="cls-20" points="95.96 272.74 95.77 274.18 76.17 274.18 75.98 272.74 95.96 272.74"/><polygon class="cls-20" points="95.49 276.4 95.3 277.82 76.64 277.82 76.46 276.4 95.49 276.4"/><polygon class="cls-20" points="95.01 280.06 94.83 281.46 77.11 281.46 76.93 280.06 95.01 280.06"/><polygon class="cls-20" points="94.54 283.72 94.36 285.1 77.58 285.1 77.4 283.72 94.54 283.72"/><polygon class="cls-20" points="94.07 287.38 93.89 288.74 78.05 288.74 77.87 287.38 94.07 287.38"/><path class="cls-7" d="M287.78,210.67l-13.26,56-.34,1.48-.9,3.77a3.61,3.61,0,0,1-3.52,2.79H180.5a3.62,3.62,0,0,1-3.52-4.45L191.47,209a3.61,3.61,0,0,1,3.52-2.78h89.26A3.63,3.63,0,0,1,287.78,210.67Z"/><polygon class="cls-6" points="274.52 266.7 274.18 268.18 181.49 268.18 181.49 266.7 274.52 266.7"/><path class="cls-14" d="M216.47,220.08a9.07,9.07,0,0,1-8.53,7.2,5.81,5.81,0,0,1-5.85-7.2,9.07,9.07,0,0,1,8.53-7.19A5.8,5.8,0,0,1,216.47,220.08Z"/><path class="cls-7" d="M208.35,218.71c-.15.79-.55,1.44-.89,1.44s-.51-.65-.36-1.44.55-1.44.89-1.44S208.5,217.91,208.35,218.71Z"/><path class="cls-7" d="M212.1,218.71c-.15.79-.55,1.44-.89,1.44s-.51-.65-.36-1.44.55-1.44.9-1.44S212.25,217.91,212.1,218.71Z"/><path class="cls-7" d="M208.69,223.59a3.19,3.19,0,0,1-3.22-3.13.38.38,0,0,1,.3-.37.25.25,0,0,1,.33.24,2.66,2.66,0,0,0,2.71,2.63,4.27,4.27,0,0,0,3.69-2.63.37.37,0,0,1,.41-.24.26.26,0,0,1,.17.37S211.78,223.59,208.69,223.59Z"/><path class="cls-8" d="M257.74,253.66c.07,3.72,6.38,8.38,6.38,8.38s7.32-4.66,8.21-8.38c1-4-3.64-5.27-7.06-2.23C262.53,248.39,257.65,249.63,257.74,253.66Z"/><path class="cls-6" d="M244.4,242.87a8,8,0,0,1-7.75,7,6.14,6.14,0,0,1-6.22-7,8,8,0,0,1,7.76-7A6.13,6.13,0,0,1,244.4,242.87Z"/><path class="cls-6" d="M198.53,206.22,183.1,274.74h-2.6a3.61,3.61,0,0,1-3.52-4.45L191.47,209a3.61,3.61,0,0,1,3.52-2.78Z"/><polygon class="cls-5" points="224.38 274.74 221.67 289.97 230.62 289.97 233.32 274.74 224.38 274.74"/><path class="cls-5" d="M208.29,287.35l1.83-2.58a3.47,3.47,0,0,1,2.84-1.46h24.52a3.48,3.48,0,0,1,3.09,1.87l1.23,2.36a1.66,1.66,0,0,1-1.47,2.43H209.64A1.66,1.66,0,0,1,208.29,287.35Z"/><path class="cls-5" d="M157.2,290h73.66l.8-2.78a2.74,2.74,0,0,0-2.63-3.49h-68a2.74,2.74,0,0,0-2.63,2Z"/><rect class="cls-8" x="218.92" y="163.32" width="37.15" height="24.59" rx="2.29"/><polygon class="cls-8" points="251.84 184.23 248.87 195.45 243.68 184.9 251.84 184.23"/><path class="cls-5" d="M245.73,173.8c-.67,4.2-8.51,9.46-8.51,9.46s-7.55-5.27-8-9.47c-.47-4.56,4.93-6,8.31-2.52C241.13,167.84,246.45,169.24,245.73,173.8Z"/><ellipse class="cls-4" cx="660.35" cy="463.59" rx="55.48" ry="5.48"/><rect class="cls-7" x="621.87" y="418.03" width="74.86" height="5.93" rx="2.41"/><rect class="cls-6" x="623.1" y="352.34" width="72.55" height="12.53" rx="2.06"/><path class="cls-18" d="M641.32,299s-28.85-5.7-36.91-25.83S625.8,238,641.32,248.79C657.92,260.35,641.32,299,641.32,299Z"/><path class="cls-7" d="M658.48,351.93a.53.53,0,0,1-.52-.45c-2.76-18.7-13.91-45.6-22.77-64.87-9.6-20.9-18.67-37.58-18.76-37.75a.52.52,0,0,1,.92-.5c.09.17,9.17,16.88,18.79,37.81,8.89,19.34,20.07,46.34,22.85,65.16a.52.52,0,0,1-.44.59Z"/><path class="cls-7" d="M640.24,297.09a.52.52,0,0,1-.46-.27c-12.55-23.38-32.93-40.33-33.14-40.5a.53.53,0,1,1,.67-.81c.2.17,20.74,17.25,33.38,40.81a.51.51,0,0,1-.21.71A.53.53,0,0,1,640.24,297.09Z"/><path class="cls-7" d="M640.81,298.77a.53.53,0,0,1-.4-.19,100.22,100.22,0,0,0-24.78-21.19,62.4,62.4,0,0,0-11.49-5.55.52.52,0,0,1-.34-.66.53.53,0,0,1,.65-.34,62.74,62.74,0,0,1,11.68,5.63,101.21,101.21,0,0,1,25.07,21.44.51.51,0,0,1-.06.73A.46.46,0,0,1,640.81,298.77Z"/><path class="cls-7" d="M638.27,292.64a.54.54,0,0,1-.5-.35c-7-20.65-4.44-45.74-4.42-46a.52.52,0,1,1,1,.11c0,.25-2.59,25.12,4.37,45.54a.52.52,0,0,1-.33.66A.45.45,0,0,1,638.27,292.64Z"/><path class="cls-7" d="M640,296.73a.52.52,0,0,1-.52-.44,72.65,72.65,0,0,1,1.27-30.37,48.28,48.28,0,0,1,4.42-11.45.52.52,0,1,1,.89.54,48.6,48.6,0,0,0-4.31,11.22,71.49,71.49,0,0,0-1.24,29.89.52.52,0,0,1-.43.6Z"/><path class="cls-18" d="M671.75,304.3s29.14-4,38.37-23.6-19.26-36.43-35.39-26.56C657.47,264.7,671.75,304.3,671.75,304.3Z"/><path class="cls-7" d="M660.7,350.22h0a.53.53,0,0,1-.52-.53c.11-9.63,2.21-20.6,6.24-32.6a214.07,214.07,0,0,1,13.22-30.52A281.91,281.91,0,0,1,698.7,255.1a.52.52,0,1,1,.85.61,278.22,278.22,0,0,0-19,31.35c-8.68,16.67-19.08,41.06-19.34,62.64A.52.52,0,0,1,660.7,350.22Z"/><path class="cls-7" d="M673,302.42a.45.45,0,0,1-.27-.08.51.51,0,0,1-.17-.71c14-22.78,35.53-38.61,35.74-38.77a.52.52,0,0,1,.62.84c-.21.16-21.56,15.88-35.47,38.47A.53.53,0,0,1,673,302.42Z"/><path class="cls-7" d="M672.31,304.06a.52.52,0,0,1-.37-.88,101.15,101.15,0,0,1,26.29-19.92,62.57,62.57,0,0,1,12-4.93.53.53,0,0,1,.26,1,61.4,61.4,0,0,0-11.8,4.86,99.89,99.89,0,0,0-26,19.69A.55.55,0,0,1,672.31,304.06Z"/><path class="cls-7" d="M675.21,298.09a.51.51,0,0,1-.2,0,.52.52,0,0,1-.28-.68c8.15-20,7.07-45,7.06-45.2a.52.52,0,0,1,.49-.55.53.53,0,0,1,.55.5c0,.25,1.11,25.45-7.14,45.65A.51.51,0,0,1,675.21,298.09Z"/><path class="cls-7" d="M673.2,302.07l-.11,0a.52.52,0,0,1-.4-.62,71.66,71.66,0,0,0,.54-29.91,47.76,47.76,0,0,0-3.65-11.46.52.52,0,0,1,.23-.7.51.51,0,0,1,.7.22,48.31,48.31,0,0,1,3.73,11.69,72.71,72.71,0,0,1-.53,30.39A.52.52,0,0,1,673.2,302.07Z"/><path class="cls-18" d="M660.53,266.34s-24.69-16-24.71-37.66,32.91-24.81,43.32-9C690.28,236.55,660.53,266.34,660.53,266.34Z"/><path class="cls-7" d="M657.08,321.85H657a.53.53,0,0,1-.39-.63c4.36-18.39,4-47.5,2.88-68.69-1.18-23-3.43-41.82-3.45-42a.51.51,0,0,1,.45-.58.52.52,0,0,1,.58.45c0,.19,2.28,19.08,3.46,42.09,1.1,21.25,1.49,50.47-2.9,69A.52.52,0,0,1,657.08,321.85Z"/><path class="cls-7" d="M660.44,264.17a.53.53,0,0,1-.52-.47c-3-26.36-15.65-49.66-15.78-49.89a.54.54,0,0,1,.21-.71.53.53,0,0,1,.71.21c.13.23,12.88,23.7,15.9,50.27a.52.52,0,0,1-.46.58Z"/><path class="cls-7" d="M660.35,265.93a.52.52,0,0,1-.49-.35,100,100,0,0,0-15.17-28.86,62,62,0,0,0-8.62-9.42.52.52,0,0,1,.66-.8,61.1,61.1,0,0,1,8.76,9.55,101.23,101.23,0,0,1,15.36,29.19.52.52,0,0,1-.33.66A.51.51,0,0,1,660.35,265.93Z"/><path class="cls-7" d="M660.26,259.3h0a.53.53,0,0,1-.5-.55c1.11-21.78,12.81-44.13,12.93-44.36a.52.52,0,0,1,.92.49c-.12.22-11.71,22.38-12.81,43.92A.52.52,0,0,1,660.26,259.3Z"/><path class="cls-7" d="M660.39,263.75h-.11a.52.52,0,0,1-.4-.62,73.76,73.76,0,0,1,12.46-27.88,50.7,50.7,0,0,1,8.37-9.13.54.54,0,0,1,.74.09.54.54,0,0,1-.1.74,49.71,49.71,0,0,0-8.19,9,72.56,72.56,0,0,0-12.26,27.44A.51.51,0,0,1,660.39,263.75Z"/><path class="cls-16" d="M690.7,319.05l-.86,2.28-.54,1.45-1.57,4.14-.54,1.45-1.61,4.26-.54,1.44-6.88,18.27H640.59l-6.88-18.27-.54-1.44-1.61-4.26-.54-1.45-1.57-4.14-.54-1.45-.86-2.28a2.4,2.4,0,0,1,2.24-3.24h58.17A2.4,2.4,0,0,1,690.7,319.05Z"/><polygon class="cls-17" points="689.84 321.33 689.29 322.78 629.46 322.78 628.91 321.33 689.84 321.33"/><polygon class="cls-17" points="687.73 326.92 687.19 328.37 631.56 328.37 631.02 326.92 687.73 326.92"/><polygon class="cls-17" points="685.58 332.63 685.04 334.07 633.71 334.07 633.17 332.63 685.58 332.63"/><polygon class="cls-7" points="649.31 364.86 647.23 371.58 618.22 465.08 612.55 465.08 630.95 373.49 632.68 364.86 649.31 364.86"/><polygon class="cls-7" points="706.37 465.08 700.7 465.08 670.84 368.81 669.61 364.86 686.24 364.86 686.66 366.96 686.66 366.96 706.37 465.08"/><rect class="cls-6" x="621.87" y="405.14" width="74.86" height="5.93" rx="2.41"/><ellipse class="cls-4" cx="237.63" cy="97.81" rx="27.12" ry="26.78"/><ellipse class="cls-16" cx="237.63" cy="94.33" rx="27.12" ry="26.78"/><ellipse class="cls-5" cx="237.63" cy="94.33" rx="22.04" ry="21.77"/><path class="cls-4" d="M259.67,94.33c0,.58,0,1.15-.07,1.72a22.07,22.07,0,0,0-44,0c-.05-.57-.07-1.14-.07-1.72a22,22,0,0,1,44.09,0Z"/><path class="cls-7" d="M237.63,96.59a.58.58,0,0,1-.45-.22L226.37,82a.54.54,0,0,1,.11-.76.55.55,0,0,1,.77.11l10.56,14,12-5.19a.53.53,0,0,1,.72.28.53.53,0,0,1-.28.71l-12.39,5.38A.57.57,0,0,1,237.63,96.59Z"/></svg>