<svg xmlns="http://www.w3.org/2000/svg" viewBox="0 0 500 372.61"><defs><style>.cls-1{fill:#ebebeb;}.cls-2,.cls-7{fill:#f0f0f0;}.cls-3,.cls-6{fill:#e0e0e0;}.cls-4{fill:#e6e6e6;}.cls-5{fill:#f5f5f5;}.cls-10,.cls-13,.cls-6{isolation:isolate;}.cls-7{stroke:#e0e0e0;stroke-width:2px;}.cls-21,.cls-7{stroke-linecap:round;stroke-linejoin:round;}.cls-12,.cls-14,.cls-15,.cls-17,.cls-18,.cls-24,.cls-25,.cls-8{fill:#fff;}.cls-9{fill:#407bff;}.cls-10,.cls-24{opacity:0.2;}.cls-11{fill:#263238;}.cls-12,.cls-19{opacity:0.5;}.cls-13,.cls-17{opacity:0.1;}.cls-14,.cls-16{opacity:0.6;}.cls-15{opacity:0.4;}.cls-18{opacity:0.7;}.cls-20{fill:#dc897c;}.cls-21{fill:none;stroke:#263238;stroke-width:0.48px;}.cls-22{fill:#de5753;}.cls-23{fill:#e4897b;}.cls-25{opacity:0.8;}</style></defs><g id="Background_Complete" data-name="Background Complete"><rect class="cls-1" y="327.45" width="500" height="0.25"/><rect class="cls-1" x="416.78" y="343.54" width="33.12" height="0.25"/><rect class="cls-1" x="322.53" y="346.26" width="8.69" height="0.25"/><rect class="cls-1" x="396.59" y="334.26" width="19.19" height="0.25"/><rect class="cls-1" x="52.46" y="335.94" width="43.19" height="0.25"/><rect class="cls-1" x="104.56" y="335.94" width="6.33" height="0.25"/><rect class="cls-1" x="131.47" y="340.16" width="93.68" height="0.25"/><path class="cls-1" d="M237,282.85H43.91a5.71,5.71,0,0,1-5.7-5.71V5.71A5.71,5.71,0,0,1,43.91,0H237a5.71,5.71,0,0,1,5.71,5.71V277.14A5.71,5.71,0,0,1,237,282.85ZM43.91.25a5.46,5.46,0,0,0-5.45,5.46V277.14a5.46,5.46,0,0,0,5.45,5.46H237a5.47,5.47,0,0,0,5.46-5.46V5.71A5.47,5.47,0,0,0,237,.25Z"/><path class="cls-1" d="M453.31,282.85H260.21a5.72,5.72,0,0,1-5.71-5.71V5.71A5.72,5.72,0,0,1,260.21,0h193.1A5.71,5.71,0,0,1,459,5.71V277.14A5.71,5.71,0,0,1,453.31,282.85ZM260.21.25a5.47,5.47,0,0,0-5.46,5.46V277.14a5.47,5.47,0,0,0,5.46,5.46h193.1a5.47,5.47,0,0,0,5.46-5.46V5.71A5.47,5.47,0,0,0,453.31.25Z"/><rect class="cls-2" x="66.15" y="128.78" width="156.54" height="198.22"/><rect class="cls-3" x="71.68" y="136" width="145.47" height="42.39"/><rect class="cls-1" x="71.68" y="142.87" width="8.26" height="35.52"/><rect class="cls-1" x="111.64" y="142.87" width="8.26" height="35.52"/><rect class="cls-1" x="160.07" y="142.42" width="8.26" height="35.52" transform="translate(-24.82 30.22) rotate(-9.78)"/><rect class="cls-1" x="81.92" y="147.55" width="8.26" height="30.84"/><rect class="cls-1" x="100.91" y="147.55" width="8.26" height="30.84"/><rect class="cls-1" x="148.85" y="147.55" width="8.26" height="30.84"/><rect class="cls-1" x="125.93" y="147.02" width="8.26" height="30.84" transform="translate(-32.14 32.08) rotate(-12.53)"/><rect class="cls-1" x="93.2" y="141.1" width="4.13" height="37.29"/><rect class="cls-1" x="142.35" y="141.1" width="4.13" height="37.29"/><rect class="cls-3" x="71.68" y="185.1" width="145.47" height="42.39" transform="translate(288.83 412.59) rotate(180)"/><rect class="cls-1" x="208.88" y="191.96" width="8.26" height="35.52" transform="translate(426.03 419.45) rotate(180)"/><rect class="cls-1" x="168.93" y="191.96" width="8.26" height="35.52" transform="translate(346.12 419.45) rotate(180)"/><rect class="cls-1" x="120.49" y="191.52" width="8.26" height="35.52" transform="translate(211.88 436.69) rotate(-170.22)"/><rect class="cls-1" x="198.65" y="196.64" width="8.26" height="30.84" transform="translate(405.55 424.13) rotate(180)"/><rect class="cls-1" x="179.65" y="196.64" width="8.26" height="30.84" transform="translate(367.57 424.13) rotate(180)"/><rect class="cls-1" x="131.71" y="196.64" width="8.26" height="30.84" transform="translate(271.68 424.13) rotate(180)"/><rect class="cls-1" x="154.63" y="196.12" width="8.26" height="30.84" transform="translate(267.86 452.48) rotate(-167.47)"/><rect class="cls-1" x="191.5" y="190.2" width="4.13" height="37.29" transform="translate(387.13 417.69) rotate(180)"/><rect class="cls-1" x="142.35" y="190.2" width="4.13" height="37.29" transform="translate(288.83 417.69) rotate(180)"/><rect class="cls-1" x="71.68" y="191.96" width="8.26" height="35.52"/><rect class="cls-1" x="81.92" y="196.64" width="8.26" height="30.84"/><rect class="cls-1" x="100.91" y="196.64" width="8.26" height="30.84"/><rect class="cls-1" x="93.2" y="190.2" width="4.13" height="37.29"/><rect class="cls-3" x="71.68" y="234.2" width="145.47" height="42.39"/><rect class="cls-1" x="155.17" y="241.06" width="8.26" height="35.52"/><rect class="cls-1" x="203.61" y="240.62" width="8.26" height="35.52" transform="translate(-40.86 39.04) rotate(-9.78)"/><rect class="cls-1" x="125.45" y="245.74" width="8.26" height="30.84"/><rect class="cls-1" x="144.45" y="245.74" width="8.26" height="30.84"/><rect class="cls-1" x="192.39" y="245.74" width="8.26" height="30.84"/><rect class="cls-1" x="169.47" y="245.21" width="8.26" height="30.84" transform="translate(-52.4 43.86) rotate(-12.53)"/><rect class="cls-1" x="136.73" y="239.3" width="4.13" height="37.29"/><rect class="cls-1" x="185.88" y="239.3" width="4.13" height="37.29"/><rect class="cls-1" x="108.54" y="240.62" width="8.26" height="35.52" transform="translate(-42.25 22.89) rotate(-9.78)"/><rect class="cls-1" x="97.32" y="245.74" width="8.26" height="30.84"/><rect class="cls-1" x="74.4" y="245.21" width="8.26" height="30.84" transform="translate(-54.67 23.24) rotate(-12.53)"/><rect class="cls-1" x="90.81" y="239.3" width="4.13" height="37.29"/><path class="cls-4" d="M305.28,208.68H393.5A17.32,17.32,0,0,1,410.82,226v68.88H288V226A17.33,17.33,0,0,1,305.28,208.68Z"/><path class="cls-3" d="M261.88,259.74h15.78A10.3,10.3,0,0,1,288,270v57H251.58V270A10.3,10.3,0,0,1,261.88,259.74Z"/><path class="cls-1" d="M261.88,259.74h.33A10.3,10.3,0,0,1,272.51,270v57H251.58V270A10.3,10.3,0,0,1,261.88,259.74Z"/><rect class="cls-4" x="276.91" y="300.83" width="121.06" height="26.17"/><rect class="cls-5" x="266.27" y="276.9" width="137.69" height="27.45" rx="10.47"/><rect class="cls-6" x="368.35" y="276.9" width="35.41" height="27.45" rx="10.47"/><path class="cls-3" d="M394.86,259.74h15.79A10.29,10.29,0,0,1,420.94,270v57H384.57V270A10.29,10.29,0,0,1,394.86,259.74Z"/><path class="cls-2" d="M394.86,259.74h.34A10.29,10.29,0,0,1,405.49,270v57H384.57V270A10.29,10.29,0,0,1,394.86,259.74Z"/><circle class="cls-3" cx="146.48" cy="81.45" r="23.55" transform="translate(-11.15 24.52) rotate(-9.22)"/><circle class="cls-2" cx="146.48" cy="81.45" r="20.03" transform="translate(-11.15 24.52) rotate(-9.22)"/><polyline class="cls-7" points="145.53 95.18 145.53 81.18 136.26 86.43"/><rect class="cls-4" x="277.86" y="51.73" width="150.75" height="133.77"/><rect class="cls-2" x="281.63" y="55.4" width="143.01" height="126.51"/><polygon class="cls-8" points="315.19 55.4 281.63 181.63 281.63 122.31 299.35 55.4 315.19 55.4"/><polygon class="cls-8" points="327.08 55.4 293.22 181.91 287.82 181.91 321.68 55.4 327.08 55.4"/><polygon class="cls-8" points="424.64 135.22 424.64 155.44 417.79 181.91 412.39 181.91 424.64 135.22"/><rect class="cls-4" x="329.1" y="53.12" width="2.41" height="131.61"/><rect class="cls-4" x="375.79" y="53.12" width="2.41" height="131.61"/></g><g id="Shadow"><ellipse id="_Path_" data-name="&lt;Path&gt;" class="cls-5" cx="250" cy="361.29" rx="193.89" ry="11.32"/></g><g id="Plant"><path class="cls-9" d="M401.9,336.28s4.75-10.37-.68-20.58-7-12.63-3.54-14.72,5.05,8.17,5.05,8.17a23.07,23.07,0,0,0,.5-14.45c-2.4-7.39-3.91-19.43-.63-20.72s.63,15,3.49,20.57a48,48,0,0,0,2.79-12.12c.39-5.94-.22-15.42,2.37-17.85s4.26-.75,1.71,12.35a137.07,137.07,0,0,0-2.53,23.75s5.63-17.18,9.42-17.68,3.78,5.06.54,9.89-9.49,13.47-10.51,17.92c0,0,6.19-12.93,11.75-9s-4.84,11.78-9.48,14.6S404.29,337,404.29,337Z"/><path class="cls-10" d="M401.9,336.28s4.75-10.37-.68-20.58-7-12.63-3.54-14.72,5.05,8.17,5.05,8.17a23.07,23.07,0,0,0,.5-14.45c-2.4-7.39-3.91-19.43-.63-20.72s.63,15,3.49,20.57a48,48,0,0,0,2.79-12.12c.39-5.94-.22-15.42,2.37-17.85s4.26-.75,1.71,12.35a137.07,137.07,0,0,0-2.53,23.75s5.63-17.18,9.42-17.68,3.78,5.06.54,9.89-9.49,13.47-10.51,17.92c0,0,6.19-12.93,11.75-9s-4.84,11.78-9.48,14.6S404.29,337,404.29,337Z"/><path class="cls-9" d="M405.65,340.53s-4.63-10.44.92-20.57,7.15-12.52,3.72-14.66-5.15,8.09-5.15,8.09a23.06,23.06,0,0,1-.33-14.46c2.49-7.35,4.15-19.37.88-20.71s-.81,15-3.73,20.53a48.29,48.29,0,0,1-2.65-12.17c-.32-5.94.41-15.41-2.16-17.88s-4.25-.82-1.85,12.32a137.21,137.21,0,0,1,2.24,23.79s-5.43-17.27-9.2-17.83-3.84,5-.66,9.89S397,310.48,398,315c0,0-6-13-11.64-9.15s4.7,11.85,9.3,14.74,7.62,20.64,7.62,20.64Z"/><polygon class="cls-11" points="384.31 333.09 422.52 333.09 419.43 360.43 387.4 360.43 384.31 333.09"/></g><g id="Device"><path class="cls-11" d="M242.6,356v3.59a.8.8,0,0,1-.81.8H140.37a5.28,5.28,0,0,1-4.91-7.25l32.14-79.6,51.94.35-1.77,10.33L206.31,351.1a3.54,3.54,0,0,0,3.48,4.14h32A.8.8,0,0,1,242.6,356Z"/><path class="cls-12" d="M242.6,356v3.59a.8.8,0,0,1-.81.8H140.37a5.28,5.28,0,0,1-4.91-7.25l19.93-49.35,12.21-30.25,51.94.35-1.77,10.33-5,29.07-6.47,37.77a3.54,3.54,0,0,0,3.48,4.14h32A.8.8,0,0,1,242.6,356Z"/><path class="cls-10" d="M209.79,355.24h-66a2.32,2.32,0,0,1-2.14-3.21l28.18-67.77h47.93L206.31,351.1A3.54,3.54,0,0,0,209.79,355.24Z"/><polygon class="cls-13" points="219.54 273.93 217.77 284.26 212.78 313.33 155.39 303.83 167.6 273.58 219.54 273.93"/><path class="cls-11" d="M320.53,125.55H80.08a6.15,6.15,0,0,0-6.15,6.15V294.48a6.15,6.15,0,0,0,6.15,6.16H320.53a6.16,6.16,0,0,0,6.16-6.16V131.7A6.15,6.15,0,0,0,320.53,125.55Z"/><path class="cls-14" d="M320.53,125.55H80.08a6.15,6.15,0,0,0-6.15,6.15V294.48a6.15,6.15,0,0,0,6.15,6.16H320.53a6.16,6.16,0,0,0,6.16-6.16V131.7A6.15,6.15,0,0,0,320.53,125.55Z"/><path class="cls-10" d="M85.18,300.63h-5.1a6.15,6.15,0,0,1-6.15-6.14V131.7a6.15,6.15,0,0,1,6.15-6.15h5.1A6.15,6.15,0,0,0,79,131.7V294.49A6.14,6.14,0,0,0,85.18,300.63Z"/><rect class="cls-9" x="84.58" y="130.83" width="236.57" height="156.97"/><circle class="cls-15" cx="199.6" cy="170.05" r="20.54"/><path class="cls-8" d="M194.7,166.93V165a3.39,3.39,0,0,1,3.38-3.39h3A3.39,3.39,0,0,1,204.5,165v1.92h2.19V165a5.58,5.58,0,0,0-5.57-5.58h-3a5.58,5.58,0,0,0-5.57,5.58v1.92Z"/><path class="cls-8" d="M189.75,169.46v10.09a1.12,1.12,0,0,0,1.12,1.12h17.46a1.12,1.12,0,0,0,1.12-1.12V169.46a1.12,1.12,0,0,0-1.12-1.12H190.87A1.12,1.12,0,0,0,189.75,169.46Zm10.48,5.71v2H199v-2a1.23,1.23,0,0,1-.62-1,1.25,1.25,0,0,1,2.5,0A1.23,1.23,0,0,1,200.23,175.17Z"/><rect class="cls-8" x="128" y="207.6" width="23.58" height="23.58" rx="2.09"/><rect class="cls-8" x="157.91" y="207.57" width="23.58" height="23.58" rx="2.09"/><rect class="cls-8" x="187.81" y="207.53" width="23.58" height="23.58" rx="2.09"/><rect class="cls-8" x="217.71" y="207.5" width="23.58" height="23.58" rx="2.09"/><rect class="cls-8" x="247.61" y="207.47" width="23.58" height="23.58" rx="2.09"/><path class="cls-11" d="M254.21,219.72c0-4.15,2.22-6.52,5.2-6.52s5.19,2.37,5.19,6.52-2.22,6.51-5.19,6.51S254.21,223.86,254.21,219.72Zm8.57,0c0-3.26-1.39-4.9-3.37-4.9s-3.38,1.64-3.38,4.9,1.38,4.89,3.38,4.89S262.78,223,262.78,219.72Z"/><path class="cls-11" d="M144.53,219.55c0,4.35-2.46,6.68-6,6.68a6.15,6.15,0,0,1-3.17-.75l.7-1.42a4.42,4.42,0,0,0,2.45.6c2.58,0,4.22-1.61,4.22-4.8v-.45a4.25,4.25,0,0,1-3.67,1.67c-2.53,0-4.35-1.51-4.35-3.85s2-4,4.49-4C142.6,213.2,144.53,215.5,144.53,219.55Zm-2.24-2.42c0-1.31-1-2.45-3-2.45a2.5,2.5,0,0,0-2.8,2.47c0,1.49,1.11,2.46,2.9,2.46A2.65,2.65,0,0,0,142.29,217.13Z"/><path class="cls-11" d="M164.5,219.72c0-4.15,2.22-6.51,5.2-6.51s5.19,2.36,5.19,6.51-2.22,6.51-5.19,6.51S164.5,223.86,164.5,219.72Zm8.57,0c0-3.26-1.38-4.9-3.37-4.9s-3.38,1.64-3.38,4.9,1.38,4.89,3.38,4.89S173.07,223,173.07,219.72Z"/><path class="cls-11" d="M204.2,224.5v1.58h-9.15v-1.23l5.18-5c1.35-1.31,1.6-2.11,1.6-2.91,0-1.31-.92-2.11-2.71-2.11a4,4,0,0,0-3.25,1.39l-1.24-1.08a5.88,5.88,0,0,1,4.66-1.93c2.65,0,4.36,1.37,4.36,3.55,0,1.24-.36,2.35-2.09,4l-3.89,3.75Z"/><path class="cls-11" d="M231,213.35v12.73h-1.8V214.93h-2.88v-1.58Z"/><g class="cls-16"><path class="cls-8" d="M177.23,201.84v.44h-3.47v-4.9h3.36v.45h-2.84v1.74h2.53V200h-2.53v1.82Z"/><path class="cls-8" d="M181.73,200.15v2.13h-.5V200.2a1,1,0,0,0-1.11-1.18,1.21,1.21,0,0,0-1.29,1.33v1.93h-.49V198.6h.47v.68a1.56,1.56,0,0,1,1.4-.71A1.42,1.42,0,0,1,181.73,200.15Z"/><path class="cls-8" d="M185,202.06a1.17,1.17,0,0,1-.78.26,1,1,0,0,1-1.08-1.07V199h-.66v-.42h.66v-.8h.5v.8h1.12V199h-1.12v2.2a.59.59,0,0,0,.63.67.8.8,0,0,0,.55-.19Z"/><path class="cls-8" d="M189,200.6h-3.08a1.37,1.37,0,0,0,1.45,1.28,1.46,1.46,0,0,0,1.13-.48l.28.32a2,2,0,0,1-3.36-1.28,1.78,1.78,0,0,1,1.8-1.87,1.76,1.76,0,0,1,1.79,1.87S189,200.54,189,200.6Zm-3.08-.37h2.61a1.31,1.31,0,0,0-2.61,0Z"/><path class="cls-8" d="M191.87,198.57v.49h-.12a1.19,1.19,0,0,0-1.24,1.36v1.87H190V198.6h.48v.72A1.39,1.39,0,0,1,191.87,198.57Z"/><path class="cls-8" d="M197.75,198.6l-1.84,4.13c-.31.72-.7,1-1.23,1a1.22,1.22,0,0,1-.89-.34L194,203a.91.91,0,0,0,.67.28c.33,0,.55-.15.76-.61l.16-.36L194,198.6h.52l1.38,3.13,1.39-3.13Z"/><path class="cls-8" d="M198,200.44a1.88,1.88,0,1,1,1.88,1.88A1.82,1.82,0,0,1,198,200.44Zm3.24,0a1.37,1.37,0,1,0-1.36,1.44A1.34,1.34,0,0,0,201.21,200.44Z"/><path class="cls-8" d="M206.05,198.6v3.68h-.47v-.67a1.47,1.47,0,0,1-1.33.71,1.42,1.42,0,0,1-1.55-1.58V198.6h.49v2.09a1,1,0,0,0,1.11,1.18,1.2,1.2,0,0,0,1.25-1.34V198.6Z"/><path class="cls-8" d="M209.3,198.57v.49h-.12a1.19,1.19,0,0,0-1.24,1.36v1.87h-.5V198.6h.48v.72A1.39,1.39,0,0,1,209.3,198.57Z"/><path class="cls-8" d="M211.75,199.83a2.58,2.58,0,1,1,2.58,2.5A2.47,2.47,0,0,1,211.75,199.83Zm4.63,0a2.06,2.06,0,1,0-2,2A2,2,0,0,0,216.38,199.83Z"/><path class="cls-8" d="M218.94,197.83h-1.72v-.45h4v.45h-1.73v4.45h-.52Z"/><path class="cls-8" d="M225.85,199.06c0,1.05-.76,1.68-2,1.68h-1.31v1.54H222v-4.9h1.83C225.09,197.38,225.85,198,225.85,199.06Zm-.52,0c0-.78-.52-1.23-1.5-1.23h-1.3v2.45h1.3C224.81,200.28,225.33,199.83,225.33,199.06Z"/></g><g class="cls-16"><path class="cls-8" d="M180.15,243.94l.2-.4a2.37,2.37,0,0,0,1.62.6c.91,0,1.31-.39,1.31-.87,0-1.34-3-.52-3-2.33,0-.72.56-1.35,1.8-1.35a2.69,2.69,0,0,1,1.52.44l-.17.41a2.56,2.56,0,0,0-1.35-.41c-.89,0-1.29.4-1.29.89,0,1.35,3,.54,3,2.32,0,.72-.57,1.34-1.82,1.34A2.63,2.63,0,0,1,180.15,243.94Z"/><path class="cls-8" d="M188,242.85h-3.08a1.37,1.37,0,0,0,1.45,1.28,1.46,1.46,0,0,0,1.13-.48l.28.32a2,2,0,0,1-3.36-1.27,1.77,1.77,0,0,1,1.8-1.87A1.75,1.75,0,0,1,188,242.7S188,242.79,188,242.85Zm-3.08-.37h2.61a1.31,1.31,0,0,0-2.61,0Z"/><path class="cls-8" d="M192.43,242.4v2.14h-.49v-2.09a1,1,0,0,0-1.11-1.18,1.21,1.21,0,0,0-1.29,1.34v1.93H189v-3.69h.48v.68a1.54,1.54,0,0,1,1.4-.7A1.4,1.4,0,0,1,192.43,242.4Z"/><path class="cls-8" d="M197.16,239.34v5.2h-.48v-.73a1.58,1.58,0,0,1-1.42.76,1.87,1.87,0,0,1,0-3.74,1.62,1.62,0,0,1,1.4.72v-2.21Zm-.49,3.36a1.37,1.37,0,1,0-1.37,1.43A1.35,1.35,0,0,0,196.67,242.7Z"/><path class="cls-8" d="M203.16,242.25v2.29h-.48V244a1.38,1.38,0,0,1-1.27.61c-.83,0-1.34-.43-1.34-1.07s.36-1,1.42-1h1.17v-.23c0-.63-.36-1-1-1a1.91,1.91,0,0,0-1.23.43l-.22-.37a2.34,2.34,0,0,1,1.49-.49A1.31,1.31,0,0,1,203.16,242.25Zm-.5,1.18v-.6H201.5c-.71,0-.94.28-.94.66s.34.69.93.69A1.19,1.19,0,0,0,202.66,243.43Z"/><path class="cls-8" d="M207.93,240.85v3.24a1.61,1.61,0,0,1-1.84,1.84,2.56,2.56,0,0,1-1.72-.57l.25-.37a2.25,2.25,0,0,0,1.45.5c.94,0,1.36-.43,1.36-1.34v-.47a1.64,1.64,0,0,1-1.43.72,1.79,1.79,0,1,1,0-3.57,1.65,1.65,0,0,1,1.45.73v-.71Zm-.48,1.76a1.4,1.4,0,1,0-1.4,1.35A1.32,1.32,0,0,0,207.45,242.61Z"/><path class="cls-8" d="M212.1,242.25v2.29h-.47V244a1.39,1.39,0,0,1-1.27.61c-.84,0-1.35-.43-1.35-1.07s.37-1,1.43-1h1.16v-.23c0-.63-.35-1-1-1a1.9,1.9,0,0,0-1.22.43l-.23-.37a2.37,2.37,0,0,1,1.5-.49A1.3,1.3,0,0,1,212.1,242.25Zm-.5,1.18v-.6h-1.15c-.72,0-.95.28-.95.66s.35.69.94.69A1.17,1.17,0,0,0,211.6,243.43Z"/><path class="cls-8" d="M213.34,239.69a.36.36,0,0,1,.36-.35.35.35,0,0,1,.37.34.36.36,0,0,1-.37.37A.36.36,0,0,1,213.34,239.69Zm.11,1.16h.5v3.69h-.5Z"/><path class="cls-8" d="M218.72,242.4v2.14h-.49v-2.09a1,1,0,0,0-1.11-1.18,1.21,1.21,0,0,0-1.29,1.34v1.93h-.49v-3.69h.47v.68a1.54,1.54,0,0,1,1.4-.7A1.4,1.4,0,0,1,218.72,242.4Z"/></g><path class="cls-15" d="M227.46,269.54H171.73a8.31,8.31,0,0,1-8.3-8.31h0a8.31,8.31,0,0,1,8.3-8.31h55.73a8.31,8.31,0,0,1,8.31,8.31h0A8.31,8.31,0,0,1,227.46,269.54Z"/><path class="cls-8" d="M177.86,260.8a3,3,0,0,1,5.1-2l-.52.51a2.08,2.08,0,0,0-1.58-.67,2.16,2.16,0,1,0,0,4.31,2.09,2.09,0,0,0,1.58-.68l.52.51a3,3,0,0,1-5.1-2Z"/><path class="cls-8" d="M183.53,260.8a3,3,0,1,1,3,2.87A2.85,2.85,0,0,1,183.53,260.8Zm5.15,0a2.18,2.18,0,1,0-2.17,2.16A2.1,2.1,0,0,0,188.68,260.8Z"/><path class="cls-8" d="M195.52,258v5.59h-.66l-3.36-4.17v4.17h-.8V258h.66l3.36,4.17V258Z"/><path class="cls-8" d="M198.31,258.7h-1.92V258H201v.69H199.1v4.9h-.79Z"/><path class="cls-8" d="M201.89,258h.8v5.59h-.8Z"/><path class="cls-8" d="M209.19,258v5.59h-.66l-3.36-4.17v4.17h-.8V258H205l3.36,4.17V258Z"/><path class="cls-8" d="M210.82,261.19V258h.8v3.15c0,1.24.57,1.8,1.58,1.8s1.58-.56,1.58-1.8V258h.78v3.18a2.37,2.37,0,1,1-4.74,0Z"/><path class="cls-8" d="M221.26,262.91v.69H217.2V258h4v.69H218v1.72h2.8v.68H218v1.81Z"/><path class="cls-17" d="M296.49,131.57c-32.71,32.77-116.72,105.7-211.91,100.31V131.57Z"/><path class="cls-17" d="M321.14,191.8v96.74H178.72c5.46-19.54,16.38-46.29,37.56-65.42C254.38,188.72,298.6,188.83,321.14,191.8Z"/></g><g id="Speech_bubble" data-name="Speech bubble"><polygon class="cls-9" points="351.23 116.14 354.55 130.8 357.87 116.14 351.23 116.14"/><polygon class="cls-18" points="351.23 116.14 354.55 130.8 357.87 116.14 351.23 116.14"/><rect class="cls-9" x="308.81" y="74.63" width="91.49" height="44.76" rx="8.59"/><rect class="cls-18" x="308.81" y="74.63" width="91.49" height="44.76" rx="8.59"/><g class="cls-19"><path class="cls-11" d="M327.08,91.05V93h-.79V91l-2.22-3.65h.86l1.79,3,1.8-3h.79Z"/><path class="cls-11" d="M329.13,90.87A2.21,2.21,0,1,1,331.34,93,2.11,2.11,0,0,1,329.13,90.87Zm3.63,0a1.43,1.43,0,1,0-2.85,0,1.43,1.43,0,1,0,2.85,0Z"/><path class="cls-11" d="M338.55,88.75V93h-.72v-.64a1.72,1.72,0,0,1-1.44.69,1.67,1.67,0,0,1-1.83-1.85V88.75h.77V91.1c0,.83.42,1.25,1.15,1.25a1.25,1.25,0,0,0,1.31-1.41V88.75Z"/><path class="cls-11" d="M342.3,88.71v.75h-.18a1.26,1.26,0,0,0-1.33,1.43V93H340V88.75h.74v.71A1.62,1.62,0,0,1,342.3,88.71Z"/><path class="cls-11" d="M345.11,90.19a3,3,0,1,1,3,2.86A2.84,2.84,0,0,1,345.11,90.19Zm5.15,0a2.18,2.18,0,1,0-2.17,2.15A2.1,2.1,0,0,0,350.26,90.19Z"/><path class="cls-11" d="M353.32,88.09H351.4v-.7H356v.7h-1.92V93h-.79Z"/><path class="cls-11" d="M361.42,89.34c0,1.22-.88,2-2.34,2H357.7V93h-.8v-5.6h2.18C360.54,87.39,361.42,88.13,361.42,89.34Zm-.8,0c0-.8-.54-1.25-1.56-1.25H357.7V90.6h1.36C360.08,90.6,360.62,90.14,360.62,89.34Z"/><path class="cls-11" d="M364.37,90.19a2.84,2.84,0,0,1,3-2.86,2.77,2.77,0,0,1,2.13.87l-.52.5a2.17,2.17,0,1,0-1.58,3.64,2.08,2.08,0,0,0,1.58-.67l.52.5a2.79,2.79,0,0,1-2.14.88A2.83,2.83,0,0,1,364.37,90.19Z"/><path class="cls-11" d="M369.93,90.87A2.21,2.21,0,1,1,372.14,93,2.11,2.11,0,0,1,369.93,90.87Zm3.63,0a1.43,1.43,0,1,0-2.85,0,1.43,1.43,0,1,0,2.85,0Z"/><path class="cls-11" d="M379.4,87.06V93h-.73v-.67a1.8,1.8,0,0,1-1.51.72,2.17,2.17,0,0,1,0-4.33,1.83,1.83,0,0,1,1.48.68V87.06Zm-.76,3.81a1.43,1.43,0,1,0-1.42,1.5A1.4,1.4,0,0,0,378.64,90.87Z"/><path class="cls-11" d="M384.67,91.13h-3.43a1.43,1.43,0,0,0,1.53,1.24,1.55,1.55,0,0,0,1.22-.52l.43.5a2.31,2.31,0,0,1-3.95-1.48,2.08,2.08,0,0,1,2.13-2.16,2,2,0,0,1,2.09,2.19A2.15,2.15,0,0,1,384.67,91.13Zm-3.43-.55H384a1.36,1.36,0,0,0-2.71,0Z"/></g><g class="cls-19"><path class="cls-11" d="M343,101.75c0,3.15-1.77,4.83-4.36,4.83a4.46,4.46,0,0,1-2.29-.54l.5-1a3.23,3.23,0,0,0,1.78.44c1.87,0,3.06-1.17,3.06-3.48v-.33a3.07,3.07,0,0,1-2.66,1.21c-1.83,0-3.15-1.09-3.15-2.79a3,3,0,0,1,3.25-2.91C341.6,97.15,343,98.81,343,101.75ZM341.37,100c0-1-.76-1.78-2.2-1.78a1.81,1.81,0,0,0-2,1.79c0,1.08.8,1.78,2.09,1.78A1.92,1.92,0,0,0,341.37,100Z"/><path class="cls-11" d="M344.26,101.87c0-3,1.61-4.72,3.77-4.72s3.75,1.71,3.75,4.72-1.61,4.71-3.75,4.71S344.26,104.87,344.26,101.87Zm6.2,0c0-2.36-1-3.55-2.43-3.55s-2.45,1.19-2.45,3.55,1,3.54,2.45,3.54S350.46,104.22,350.46,101.87Z"/><path class="cls-11" d="M359.49,105.33v1.15h-6.63v-.9l3.76-3.62c1-.95,1.15-1.53,1.15-2.11,0-.95-.67-1.53-2-1.53a2.87,2.87,0,0,0-2.35,1l-.9-.78a4.26,4.26,0,0,1,3.37-1.4c1.92,0,3.16,1,3.16,2.57a3.73,3.73,0,0,1-1.51,2.9l-2.82,2.71Z"/><path class="cls-11" d="M363.43,97.26v9.22h-1.31V98.4H360V97.26Z"/><path class="cls-11" d="M365.44,101.87c0-3,1.61-4.72,3.77-4.72s3.75,1.71,3.75,4.72-1.6,4.71-3.75,4.71S365.44,104.87,365.44,101.87Zm6.21,0c0-2.36-1-3.55-2.44-3.55s-2.45,1.19-2.45,3.55,1,3.54,2.45,3.54S371.65,104.22,371.65,101.87Z"/></g></g><g id="Character"><path class="cls-20" d="M346.33,159.14l1,.68,1.13.73c.77.48,1.56.93,2.35,1.38,1.59.89,3.21,1.75,4.86,2.51A52.35,52.35,0,0,0,365.87,168l.16,0,.07,0h-.25a2.78,2.78,0,0,0-1.24.41,2.7,2.7,0,0,0-1,1.13,1.12,1.12,0,0,0-.12.47c0,.06.07-.2,0-.49a9.26,9.26,0,0,0-.11-1.07,39.58,39.58,0,0,0-1.33-5.18c-1.15-3.58-2.5-7.26-3.85-10.87l3.86-2.08a80.42,80.42,0,0,1,6.18,10.47,37.32,37.32,0,0,1,2.38,6,16.78,16.78,0,0,1,.41,1.84,9.26,9.26,0,0,1,.09,2.44,5.84,5.84,0,0,1-.52,1.88,5.24,5.24,0,0,1-2,2.23A5.45,5.45,0,0,1,366,176a5.87,5.87,0,0,1-1-.05l-.3,0-.2,0a48.15,48.15,0,0,1-12.33-3.41,57.29,57.29,0,0,1-5.7-2.73c-.92-.52-1.83-1.05-2.73-1.61-.45-.29-.9-.57-1.34-.88s-.86-.59-1.4-1Z"/><path class="cls-9" d="M345.21,158a19.79,19.79,0,0,1,9.63,3.91l-4,12.38S331.4,156.42,345.21,158Z"/><path class="cls-14" d="M345.17,168.45a80.88,80.88,0,0,0,5.64,5.84l1.65-5.09,2.38-7.29a19.79,19.79,0,0,0-9.62-3.91C336.72,157,340.78,163.41,345.17,168.45Z"/><path class="cls-10" d="M345.17,168.45a80.88,80.88,0,0,0,5.64,5.84l1.65-5.09a11.84,11.84,0,0,0-7.26-2.5A10.3,10.3,0,0,0,345.17,168.45Z"/><path class="cls-11" d="M302,139.74s-9.3,30.92,10.29,35.07S334,164.73,334,164.73,317.9,140.37,302,139.74Z"/><path class="cls-21" d="M297.41,149.74a3.74,3.74,0,0,1,2.68-1.89"/><path class="cls-22" d="M300.21,153.82a14.77,14.77,0,0,1-.81,3.52,2,2,0,0,0,2.05,0Z"/><path class="cls-11" d="M298.32,152.47c.21.55.68.88,1,.74s.5-.7.29-1.24-.68-.88-1-.74S298.12,151.92,298.32,152.47Z"/><path class="cls-11" d="M298.77,151.19H297.4S298.38,152,298.77,151.19Z"/><path class="cls-23" d="M318.23,157.65a1,1,0,0,1-.14.25c-.09.17-.19.33-.29.5a9.54,9.54,0,0,1-2.3,2.75c-3,2.39-5.61,3.11-7.88,2.42l-.33-.11h0c-3.37-1.37-6-5.4-8.09-10.73a21.18,21.18,0,0,1-1.73-6.58s0-.08,0-.1,0-.18,0-.26a7.84,7.84,0,0,1,3.16-6.77,15.18,15.18,0,0,1,2.9-1.79C313.52,132.36,323.24,148.22,318.23,157.65Z"/><path class="cls-10" d="M317.8,158.4a9.54,9.54,0,0,1-2.3,2.75c-3,2.39-5.61,3.11-7.88,2.42a11,11,0,0,0,5.69-3.45A5.68,5.68,0,0,1,317.8,158.4Z"/><path class="cls-11" d="M297.42,146.1s2.79,7.34,10.94,7.21c0,0,6.36,6,10.65,4.09,5.85-2.59,7.05-13.23,1.09-20.66C312.36,127.1,295.48,134,297.42,146.1Z"/><path class="cls-23" d="M304,152.88c-.52-1.1-.51-3.38,1.32-3.94s5,3.34,1.06,6.38C305.82,155.76,305.08,155.19,304,152.88Z"/><path class="cls-11" d="M306.19,132.74s-7.56,1.49-10,6c-2.86,5.23-3,9.3,4.6,11.95,0,0,9.61-9,13.75-10a45.67,45.67,0,0,1,7.35-1.18C319.13,131.57,309.24,129.43,306.19,132.74Z"/><path class="cls-23" d="M313.52,161.35s5.2,3.6,6.55,9.54l16.21-9.46s-12.69-2.9-14.87-7.81C321.41,153.62,312.93,154.68,313.52,161.35Z"/><path class="cls-9" d="M329.62,200.3s-21-20.64-23.26-27.11c0,0,8.83-13.76,26.48-14.33s29.66,33,29.66,33Z"/><path class="cls-14" d="M362.5,191.86l-32.87,8.44s-4.58-4.51-9.7-10c-1.58-1.71-3.23-3.51-4.82-5.29-4.17-4.73-7.85-9.35-8.74-11.86,0,0,8.82-13.75,26.47-14.33S362.5,191.86,362.5,191.86Z"/><path class="cls-11" d="M310,149.78s3.07,10.2,13.85,13.59,8.07,14.38,18.52,13.09c5.56-.69,10.32-12-6.73-22-9.94-5.82-6.08-24.91-27.18-23.12C308.44,131.35,312.82,144.44,310,149.78Z"/><path class="cls-23" d="M320.47,355.78l-5-1.14c.75-25,4.36-55.24,7.55-77.94.5-3.56,1-6.93,1.46-10.06.23-1.49.44-2.93.65-4.31,1-6.8,1.92-12.19,2.47-15.51.41-2.43.64-3.76.64-3.76l18,4.39L344.93,252l-4.25,15-.48,1.72-2.82,9.88L332.6,295.4C332.92,320.83,320.47,355.78,320.47,355.78Z"/><path class="cls-23" d="M363.27,351.59l-5.12-.25c-3.9-26.88-5.54-60.5-6.25-83.87-.1-3.63-.19-7-.26-10.08,0-.16,0-.3,0-.45-.13-6.09-.19-10.93-.22-14,0-2.4,0-3.72,0-3.72l18.47,1.22-.79,7.69-1.16,11.31-.23,2.22-.8,7.7L364.75,290C369.47,315,363.27,351.59,363.27,351.59Z"/><path class="cls-11" d="M365.19,350.6c0-.64-7.9-.14-7.9-.14s-4.85,4.93-9.56,6-2.07,3.93,3.19,3.93h13C367.68,360.43,365.34,357.25,365.19,350.6Z"/><path class="cls-11" d="M352.45,352.29a.76.76,0,0,1-.19-.84.82.82,0,0,1,.42-.53,3.28,3.28,0,0,1,1.77-.2c-.64-.34-1.2-.76-1.23-1.17s.16-.49.52-.66a1.21,1.21,0,0,1,1,0c1.07.44,1.73,2.28,1.76,2.36a.22.22,0,0,1,0,.16l0,.05h0a.18.18,0,0,1-.07.05,9.75,9.75,0,0,1-3.26,1A1.12,1.12,0,0,1,352.45,352.29Zm.44-1a.46.46,0,0,0-.23.27c-.08.31,0,.39,0,.42.38.3,1.82-.13,3-.62A5.07,5.07,0,0,0,352.89,351.28Zm1-2c-.11.05-.29.16-.28.27,0,.35,1.15,1,2.31,1.41a3.5,3.5,0,0,0-1.35-1.7.91.91,0,0,0-.32-.06A.94.94,0,0,0,353.92,349.26Z"/><path class="cls-11" d="M323,350.6c0-.64-7.89-.14-7.89-.14s-4.85,4.93-9.56,6-2.08,3.93,3.18,3.93h13C325.5,360.43,323.17,357.25,323,350.6Z"/><path class="cls-11" d="M310.27,352.29a.78.78,0,0,1-.19-.84.82.82,0,0,1,.42-.53,3.29,3.29,0,0,1,1.77-.2c-.64-.34-1.2-.76-1.22-1.17s.15-.49.51-.66a1.21,1.21,0,0,1,1,0c1.07.44,1.73,2.28,1.76,2.36a.18.18,0,0,1,0,.16s0,0,0,.05h0l-.07.05a9.9,9.9,0,0,1-3.27,1A1.14,1.14,0,0,1,310.27,352.29Zm.44-1a.44.44,0,0,0-.22.27c-.08.31,0,.39.05.42.37.3,1.81-.13,3-.62A5.07,5.07,0,0,0,310.71,351.28Zm1-2c-.11.05-.29.16-.28.27,0,.35,1.15,1,2.32,1.41a3.51,3.51,0,0,0-1.36-1.7.87.87,0,0,0-.32-.06A.94.94,0,0,0,311.74,349.26Z"/><path class="cls-11" d="M325.36,250.57l4.26-30V200.3c11.23-8.44,32.88-8.44,32.88-8.44s16.63,23.06,8.55,61l-20.88,3-1.33-7.09L346.22,256Z"/><path class="cls-24" d="M325.36,250.57l4.26-30V200.3c11.23-8.44,32.88-8.44,32.88-8.44s16.63,23.06,8.55,61l-20.88,3-1.33-7.09L346.22,256Z"/><path class="cls-10" d="M348.84,248.86l4-12.49s4.22-1.27,9.64-9.66C362.5,226.71,361.56,241,348.84,248.86Z"/><path class="cls-10" d="M339.94,206.06l9.37-.9a21.13,21.13,0,0,1,1.5,11.13l-6,3.61-4.35-3.09S340.32,208.87,339.94,206.06Z"/><path class="cls-10" d="M362.5,203.76a47.53,47.53,0,0,1,2.77,9.59l3.32,1.41,1.79-2.23s-1.21-6.54-3.26-9.73Z"/><polygon class="cls-11" points="324.97 248.86 347.13 255.37 345.74 258.34 324.69 251.87 324.97 248.86"/><polygon class="cls-11" points="349.31 254.94 349.68 257.67 371.41 254.94 371.74 251.48 349.31 254.94"/><path class="cls-11" d="M353.87,196a78,78,0,0,1,10.75-1l-1.34-2.22a61.45,61.45,0,0,0-10.48.63Z"/><path class="cls-11" d="M333.94,198.77a49.22,49.22,0,0,0-4.52,2.17l0,2.73q2.42-1.23,4.85-2.23Z"/><path class="cls-11" d="M335.32,201a87.57,87.57,0,0,1,17.21-4.79l-1-2.66a75.53,75.53,0,0,0-16.62,4.77Z"/><path class="cls-23" d="M275.24,208.86l-5.68-2.28-1,5.35s5.12,3.11,7.26-.59Z"/><polygon class="cls-23" points="266.74 206.91 264.92 211.05 268.6 211.93 269.56 206.57 266.74 206.91"/><path class="cls-23" d="M362.41,151.25l-.67-6.09-5.18,1.69s-.32,6,3.95,6.11Z"/><polygon class="cls-23" points="360.11 142.84 355.6 143.19 356.56 146.85 361.74 145.16 360.11 142.84"/><path class="cls-10" d="M319.93,190.33c-1.58-1.71-3.23-3.51-4.82-5.29-.61-3.72-1-7-1-7A14.44,14.44,0,0,1,319.93,190.33Z"/><path class="cls-20" d="M314.69,176.32c-.59,2.49-1.29,4.76-2,7.1s-1.58,4.6-2.46,6.88-1.82,4.53-2.87,6.75c-.51,1.12-1,2.23-1.62,3.32-.27.55-.58,1.09-.87,1.64l-.45.81-.22.42c-.14.23-.27.47-.42.68A11.84,11.84,0,0,1,300,207.4a22.92,22.92,0,0,1-3.79,1.82,45.4,45.4,0,0,1-7.38,2,81.63,81.63,0,0,1-14.59,1.39l-.4-4.36c2.22-.49,4.53-1,6.76-1.57s4.46-1.17,6.6-1.88a46.63,46.63,0,0,0,6.1-2.38,15.29,15.29,0,0,0,2.49-1.47,4.57,4.57,0,0,0,1.33-1.34.47.47,0,0,0,0-.09l.17-.37.35-.78c.23-.51.48-1,.69-1.55.44-1,.9-2.08,1.31-3.14.85-2.12,1.64-4.26,2.41-6.42s1.46-4.36,2.14-6.55,1.34-4.44,1.94-6.54Z"/><path class="cls-9" d="M309.79,168.79c-4.89,3.19-7.51,11.52-8.34,15.59l10.16,7.48,5.13-5C318.82,175.38,311.65,167.58,309.79,168.79Z"/><path class="cls-14" d="M309.79,168.79c-4.89,3.19-7.51,11.52-8.34,15.59l10.16,7.48,5.13-5C318.82,175.38,311.65,167.58,309.79,168.79Z"/><path class="cls-11" d="M359.39,153.2l-7.26.77a.73.73,0,0,1-.76-.77l-.44-15.38a.88.88,0,0,1,.72-.93l7.25-.77a.73.73,0,0,1,.76.77l.44,15.38A.89.89,0,0,1,359.39,153.2Z"/><path class="cls-14" d="M359.39,153.2l-7.26.77a.73.73,0,0,1-.76-.77l-.44-15.38a.88.88,0,0,1,.72-.93l7.25-.77a.73.73,0,0,1,.76.77l.44,15.38A.89.89,0,0,1,359.39,153.2Z"/><path class="cls-11" d="M358.75,153.27l-7.25.77a.74.74,0,0,1-.77-.77l-.43-15.38A.87.87,0,0,1,351,137l7.25-.77a.72.72,0,0,1,.76.77l.44,15.38A.87.87,0,0,1,358.75,153.27Z"/><path class="cls-18" d="M358.75,153.27l-7.25.77a.74.74,0,0,1-.77-.77l-.43-15.38A.87.87,0,0,1,351,137l7.25-.77a.72.72,0,0,1,.76.77l.44,15.38A.87.87,0,0,1,358.75,153.27Z"/><path class="cls-9" d="M358.27,136.49l-1.9.2-.24.58-2.94.32-.27-.53-1.9.2a.57.57,0,0,0-.46.6l.43,15.38a.48.48,0,0,0,.5.5l7.25-.77a.58.58,0,0,0,.46-.61L358.77,137A.48.48,0,0,0,358.27,136.49Z"/><path class="cls-25" d="M357.3,142l-5.33.57a.47.47,0,0,1-.49-.49l0-1.49a.55.55,0,0,1,.45-.59l5.34-.57a.46.46,0,0,1,.48.49l.05,1.49A.57.57,0,0,1,357.3,142Z"/></g></svg>